SplineFontDB: 3.0
FontName: Sintony
FullName: Sintony
FamilyName: Sintony
Weight: Book
Copyright: Copyright (c) 2013, Eduardo Tunni (http://www.tipo.net.ar), with Reserved Font Name 'Sintony'
Version: 001.001
ItalicAngle: 0
UnderlinePosition: 1
UnderlineWidth: 3
Ascent: 800
Descent: 200
sfntRevision: 0x00010042
LayerCount: 2
Layer: 0 1 "Back"  1
Layer: 1 1 "Fore"  0
XUID: [1021 269 874289628 10012983]
FSType: 0
OS2Version: 3
OS2_WeightWidthSlopeOnly: 0
OS2_UseTypoMetrics: 1
CreationTime: 1307112960
ModificationTime: 1359384347
PfmFamily: 17
TTFWeight: 400
TTFWidth: 5
LineGap: 0
VLineGap: 0
Panose: 2 0 5 3 5 0 0 2 0 4
OS2TypoAscent: 995
OS2TypoAOffset: 0
OS2TypoDescent: -308
OS2TypoDOffset: 0
OS2TypoLinegap: 0
OS2WinAscent: 995
OS2WinAOffset: 0
OS2WinDescent: 308
OS2WinDOffset: 0
HheadAscent: 995
HheadAOffset: 0
HheadDescent: -308
HheadDOffset: 0
OS2SubXSize: 650
OS2SubYSize: 600
OS2SubXOff: 0
OS2SubYOff: 75
OS2SupXSize: 650
OS2SupYSize: 600
OS2SupXOff: 0
OS2SupYOff: 350
OS2StrikeYSize: 3
OS2StrikeYPos: 343
OS2Vendor: 'TIPO'
OS2CodePages: 20000001.00000000
OS2UnicodeRanges: 800000af.5000204a.00000000.00000000
Lookup: 4 0 1 "'liga' Standard Ligatures lookup 0"  {"'liga' Standard Ligatures lookup 0 subtable"  } ['liga' ('DFLT' <'dflt' > ) ]
Lookup: 258 0 0 "'kern' Horizontal Kerning lookup 0"  {"'kern' Horizontal Kerning lookup 0 per glyph data 0"  "'kern' Horizontal Kerning lookup 0 kerning class 1"  } ['kern' ('DFLT' <'dflt' > ) ]
DEI: 91125
KernClass2: 4+ 7 "'kern' Horizontal Kerning lookup 0 kerning class 1" 
 8 L Lslash
 50 A Agrave Aacute Acircumflex Atilde Adieresis Aring
 18 Y Yacute Ydieresis
 68 quotedbl quotesingle quoteleft quoteright quotedblleft quotedblright
 18 Y Yacute Ydieresis
 68 quotedbl quotesingle quoteleft quoteright quotedblleft quotedblright
 109 c d e g o q ccedilla egrave eacute ecircumflex edieresis ograve oacute ocircumflex otilde odieresis oslash oe
 53 a agrave aacute acircumflex atilde adieresis aring ae

StartChar: exclam
Encoding: 33 33 4
Width: 312
GlyphClass: 2
Flags: W
LayerCount: 2
Fore
SplineSet
192 2 m 128,-1,1
 179 -8 179 -8 155.5 -8 c 128,-1,2
 132 -8 132 -8 119.5 2 c 128,-1,3
 107 12 107 12 104.5 23.5 c 128,-1,4
 102 35 102 35 102 50.5 c 128,-1,5
 102 66 102 66 103.5 75 c 128,-1,6
 105 84 105 84 110 94 c 1,7,8
 118 115 118 115 154 115 c 128,-1,9
 190 115 190 115 200 98.5 c 128,-1,10
 210 82 210 82 210 58.5 c 128,-1,11
 210 35 210 35 207.5 23.5 c 128,-1,0
 205 12 205 12 192 2 c 128,-1,1
107 730 m 1,12,-1
 203 730 l 1,13,-1
 203 566 l 1,14,-1
 181 191 l 1,15,-1
 129 191 l 1,16,-1
 107 566 l 1,17,-1
 107 730 l 1,12,-1
EndSplineSet
EndChar

StartChar: quotedbl
Encoding: 34 34 5
Width: 404
GlyphClass: 2
Flags: W
LayerCount: 2
Fore
SplineSet
240 730 m 1,0,-1
 332 730 l 1,1,-1
 332 676 l 1,2,-1
 312 485 l 1,3,-1
 260 485 l 1,4,-1
 240 676 l 1,5,-1
 240 730 l 1,0,-1
72 730 m 1,6,-1
 164 730 l 1,7,-1
 164 676 l 1,8,-1
 144 485 l 1,9,-1
 92 485 l 1,10,-1
 72 676 l 1,11,-1
 72 730 l 1,6,-1
EndSplineSet
EndChar

StartChar: numbersign
Encoding: 35 35 6
Width: 800
GlyphClass: 2
Flags: W
LayerCount: 2
Fore
SplineSet
432 -76 m 1,0,-1
 477 174 l 1,1,-1
 254 174 l 1,2,-1
 209 -76 l 1,3,-1
 122 -76 l 1,4,-1
 167 174 l 1,5,-1
 56 174 l 1,6,-1
 68 244 l 1,7,-1
 180 244 l 1,8,-1
 224 485 l 1,9,-1
 111 485 l 1,10,-1
 123 555 l 1,11,-1
 236 555 l 1,12,-1
 282 805 l 1,13,-1
 369 805 l 1,14,-1
 323 555 l 1,15,-1
 546 555 l 1,16,-1
 592 805 l 1,17,-1
 679 805 l 1,18,-1
 633 555 l 1,19,-1
 744 555 l 1,20,-1
 732 485 l 1,21,-1
 621 485 l 1,22,-1
 577 244 l 1,23,-1
 689 244 l 1,24,-1
 677 174 l 1,25,-1
 564 174 l 1,26,-1
 519 -76 l 1,27,-1
 432 -76 l 1,0,-1
311 485 m 1,28,-1
 267 244 l 1,29,-1
 490 244 l 1,30,-1
 534 485 l 1,31,-1
 311 485 l 1,28,-1
EndSplineSet
EndChar

StartChar: dollar
Encoding: 36 36 7
Width: 630
GlyphClass: 2
Flags: W
LayerCount: 2
Fore
SplineSet
131.5 395 m 128,-1,1
 90 442 90 442 90 533.5 c 128,-1,2
 90 625 90 625 134.5 677 c 128,-1,3
 179 729 179 729 286 735 c 1,4,-1
 286 843 l 1,5,-1
 347 843 l 1,6,-1
 347 735 l 1,7,8
 453 728 453 728 499.5 677 c 128,-1,9
 546 626 546 626 546 530 c 1,10,-1
 470 525 l 1,11,12
 470 597 470 597 435.5 631 c 128,-1,13
 401 665 401 665 319.5 665 c 128,-1,14
 238 665 238 665 207 631 c 128,-1,15
 176 597 176 597 176 528 c 0,16,17
 176 423 176 423 272 410 c 2,18,-1
 369 397 l 2,19,20
 468 383 468 383 512.5 334.5 c 128,-1,21
 557 286 557 286 557 200 c 0,22,23
 557 5 557 5 347 -6 c 1,24,-1
 347 -113 l 1,25,-1
 286 -113 l 1,26,-1
 286 -6 l 1,27,28
 174 0 174 0 126.5 52.5 c 128,-1,29
 79 105 79 105 79 201 c 1,30,-1
 155 206 l 1,31,32
 155 134 155 134 192 99 c 128,-1,33
 229 64 229 64 316.5 64 c 128,-1,34
 404 64 404 64 438 97.5 c 128,-1,35
 472 131 472 131 472 200 c 0,36,37
 472 298 472 298 363 318 c 1,38,-1
 266 333 l 2,39,0
 173 348 173 348 131.5 395 c 128,-1,1
EndSplineSet
EndChar

StartChar: percent
Encoding: 37 37 8
Width: 980
GlyphClass: 2
Flags: W
LayerCount: 2
Fore
SplineSet
341 -66 m 1,0,-1
 555 735 l 1,1,-1
 616 735 l 1,2,-1
 401 -66 l 1,3,-1
 341 -66 l 1,0,-1
828 8 m 0,4,5
 798 -8 798 -8 746 -8 c 128,-1,6
 694 -8 694 -8 659 21.5 c 128,-1,7
 624 51 624 51 612.5 94.5 c 128,-1,8
 601 138 601 138 601 202.5 c 128,-1,9
 601 267 601 267 612.5 310.5 c 128,-1,10
 624 354 624 354 659 383.5 c 128,-1,11
 694 413 694 413 746 413 c 128,-1,12
 798 413 798 413 828.5 397 c 128,-1,13
 859 381 859 381 875 351 c 0,14,15
 904 297 904 297 904 203 c 0,16,17
 904 48 904 48 828 8 c 0,4,5
753 52 m 128,-1,19
 796 52 796 52 811.5 88.5 c 128,-1,20
 827 125 827 125 827 202.5 c 128,-1,21
 827 280 827 280 811.5 316.5 c 128,-1,22
 796 353 796 353 753 353 c 128,-1,23
 710 353 710 353 694 316.5 c 128,-1,24
 678 280 678 280 678 202.5 c 128,-1,25
 678 125 678 125 694 88.5 c 128,-1,18
 710 52 710 52 753 52 c 128,-1,19
278 334 m 0,26,27
 247 318 247 318 195 318 c 128,-1,28
 143 318 143 318 108 347.5 c 128,-1,29
 73 377 73 377 61.5 420.5 c 128,-1,30
 50 464 50 464 50 528.5 c 128,-1,31
 50 593 50 593 61.5 636.5 c 128,-1,32
 73 680 73 680 108 709.5 c 128,-1,33
 143 739 143 739 195 739 c 128,-1,34
 247 739 247 739 277.5 723 c 128,-1,35
 308 707 308 707 324 677 c 0,36,37
 353 623 353 623 353 529 c 0,38,39
 353 374 353 374 278 334 c 0,26,27
202 378 m 128,-1,41
 245 378 245 378 260.5 414.5 c 128,-1,42
 276 451 276 451 276 528.5 c 128,-1,43
 276 606 276 606 260.5 642.5 c 128,-1,44
 245 679 245 679 202 679 c 128,-1,45
 159 679 159 679 143 642.5 c 128,-1,46
 127 606 127 606 127 528.5 c 128,-1,47
 127 451 127 451 143 414.5 c 128,-1,40
 159 378 159 378 202 378 c 128,-1,41
EndSplineSet
EndChar

StartChar: ampersand
Encoding: 38 38 9
Width: 634
GlyphClass: 2
Flags: W
LayerCount: 2
Fore
SplineSet
286 673 m 0,0,1
 215 673 215 673 186 639 c 128,-1,2
 157 605 157 605 157 543 c 128,-1,3
 157 481 157 481 190 441 c 128,-1,4
 223 401 223 401 280 401 c 2,5,-1
 295 401 l 1,6,-1
 295 339 l 1,7,8
 210 339 210 339 173.5 303 c 128,-1,9
 137 267 137 267 137 195 c 128,-1,10
 137 123 137 123 173.5 90 c 128,-1,11
 210 57 210 57 292 57 c 128,-1,12
 374 57 374 57 409 91 c 128,-1,13
 444 125 444 125 444 191 c 2,14,-1
 444 339 l 1,15,-1
 386 339 l 1,16,-1
 386 401 l 1,17,-1
 636 401 l 1,18,-1
 636 339 l 1,19,-1
 520 339 l 1,20,-1
 520 237 l 2,21,22
 520 171 520 171 512.5 129.5 c 128,-1,23
 505 88 505 88 482 52 c 0,24,25
 437 -15 437 -15 290 -15 c 0,26,27
 51 -15 51 -15 51 191 c 0,28,29
 51 263 51 263 89 309 c 128,-1,30
 127 355 127 355 191 375 c 1,31,32
 137 397 137 397 104 443.5 c 128,-1,33
 71 490 71 490 71 547 c 0,34,35
 71 744 71 744 283 744 c 0,36,37
 453 744 453 744 480 602 c 1,38,-1
 406 580 l 1,39,40
 392 673 392 673 286 673 c 0,0,1
EndSplineSet
EndChar

StartChar: quotesingle
Encoding: 39 39 10
Width: 236
GlyphClass: 2
Flags: W
LayerCount: 2
Fore
SplineSet
72 730 m 1,0,-1
 164 730 l 1,1,-1
 164 676 l 1,2,-1
 144 485 l 1,3,-1
 92 485 l 1,4,-1
 72 676 l 1,5,-1
 72 730 l 1,0,-1
EndSplineSet
EndChar

StartChar: parenleft
Encoding: 40 40 11
Width: 300
GlyphClass: 2
Flags: W
LayerCount: 2
Fore
SplineSet
294 4 m 1,0,-1
 294 -66 l 1,1,2
 189 -66 189 -66 139 -6 c 0,3,4
 86 56 86 56 72 142 c 0,5,6
 58 226 58 226 58 308.5 c 128,-1,7
 58 391 58 391 61 435 c 128,-1,8
 64 479 64 479 72 527.5 c 128,-1,9
 80 576 80 576 97 611 c 128,-1,10
 114 646 114 646 139 676 c 0,11,12
 189 735 189 735 294 735 c 1,13,-1
 294 665 l 1,14,15
 257 665 257 665 230 646 c 128,-1,16
 203 627 203 627 188 598 c 128,-1,17
 173 569 173 569 164 522 c 0,18,19
 151 449 151 449 151 363 c 128,-1,20
 151 277 151 277 153.5 235 c 128,-1,21
 156 193 156 193 164.5 146.5 c 128,-1,22
 173 100 173 100 188 71 c 128,-1,23
 203 42 203 42 230 23 c 128,-1,24
 257 4 257 4 294 4 c 1,0,-1
EndSplineSet
EndChar

StartChar: parenright
Encoding: 41 41 12
Width: 300
GlyphClass: 2
Flags: W
LayerCount: 2
Fore
SplineSet
6 665 m 1,0,-1
 6 735 l 1,1,2
 111 735 111 735 161 676 c 0,3,4
 214 613 214 613 228 528 c 256,5,6
 242 443 242 443 242 360.5 c 128,-1,7
 242 278 242 278 239 234 c 128,-1,8
 236 190 236 190 228 141.5 c 128,-1,9
 220 93 220 93 203 58 c 128,-1,10
 186 23 186 23 161 -6 c 0,11,12
 111 -66 111 -66 6 -66 c 1,13,-1
 6 4 l 1,14,15
 43 4 43 4 70 23 c 128,-1,16
 97 42 97 42 112 71 c 128,-1,17
 127 100 127 100 136 146 c 0,18,19
 149 220 149 220 149 306 c 128,-1,20
 149 392 149 392 146.5 434 c 128,-1,21
 144 476 144 476 135.5 522.5 c 128,-1,22
 127 569 127 569 112 598 c 128,-1,23
 97 627 97 627 70 646 c 128,-1,24
 43 665 43 665 6 665 c 1,0,-1
EndSplineSet
EndChar

StartChar: asterisk
Encoding: 42 42 13
Width: 553
GlyphClass: 2
Flags: W
LayerCount: 2
Fore
SplineSet
231 779 m 1,0,-1
 323 779 l 1,1,-1
 323 696 l 1,2,-1
 291 577 l 1,3,-1
 263 577 l 1,4,-1
 231 696 l 1,5,-1
 231 779 l 1,0,-1
26 566 m 1,6,-1
 54 649 l 1,7,-1
 133 624 l 1,8,-1
 237 558 l 1,9,-1
 228 532 l 1,10,-1
 105 540 l 1,11,-1
 26 566 l 1,6,-1
167 303 m 1,12,-1
 94 356 l 1,13,-1
 143 425 l 1,14,-1
 238 502 l 1,15,-1
 260 485 l 1,16,-1
 216 371 l 1,17,-1
 167 303 l 1,12,-1
459 356 m 1,18,-1
 386 303 l 1,19,-1
 337 371 l 1,20,-1
 292 485 l 1,21,-1
 315 501 l 1,22,-1
 410 425 l 1,23,-1
 459 356 l 1,18,-1
499 649 m 1,24,-1
 527 566 l 1,25,-1
 448 540 l 1,26,-1
 325 531 l 1,27,-1
 317 558 l 1,28,-1
 419 624 l 1,29,-1
 499 649 l 1,24,-1
EndSplineSet
EndChar

StartChar: plus
Encoding: 43 43 14
Width: 580
GlyphClass: 2
Flags: W
LayerCount: 2
Fore
SplineSet
92 284 m 1,0,-1
 92 352 l 1,1,-1
 256 352 l 1,2,-1
 256 516 l 1,3,-1
 324 516 l 1,4,-1
 324 352 l 1,5,-1
 488 352 l 1,6,-1
 488 284 l 1,7,-1
 324 284 l 1,8,-1
 324 120 l 1,9,-1
 256 120 l 1,10,-1
 256 284 l 1,11,-1
 92 284 l 1,0,-1
EndSplineSet
EndChar

StartChar: comma
Encoding: 44 44 15
Width: 226
GlyphClass: 2
Flags: W
LayerCount: 2
Fore
SplineSet
67 18 m 128,-1,1
 60 41 60 41 60 57.5 c 128,-1,2
 60 74 60 74 62.5 84.5 c 128,-1,3
 65 95 65 95 77 105 c 128,-1,4
 89 115 89 115 112.5 115 c 128,-1,5
 136 115 136 115 148.5 105 c 128,-1,6
 161 95 161 95 163.5 84.5 c 128,-1,7
 166 74 166 74 166 47.5 c 128,-1,8
 166 21 166 21 152.5 -11.5 c 128,-1,9
 139 -44 139 -44 117 -68 c 0,10,11
 84 -105 84 -105 59 -124 c 1,12,-1
 33 -94 l 1,13,14
 47 -81 47 -81 54 -73 c 0,15,16
 74 -50 74 -50 74 -15 c 0,17,0
 74 -5 74 -5 67 18 c 128,-1,1
EndSplineSet
EndChar

StartChar: hyphen
Encoding: 45 45 16
Width: 488
GlyphClass: 2
Flags: W
LayerCount: 2
Fore
SplineSet
68 284 m 1,0,-1
 68 352 l 1,1,-1
 420 352 l 1,2,-1
 420 284 l 1,3,-1
 68 284 l 1,0,-1
EndSplineSet
EndChar

StartChar: period
Encoding: 46 46 17
Width: 228
GlyphClass: 2
Flags: W
LayerCount: 2
Fore
SplineSet
150 2 m 128,-1,1
 137 -8 137 -8 113.5 -8 c 128,-1,2
 90 -8 90 -8 77.5 2 c 128,-1,3
 65 12 65 12 62.5 23.5 c 128,-1,4
 60 35 60 35 60 50.5 c 128,-1,5
 60 66 60 66 61.5 75 c 128,-1,6
 63 84 63 84 68 94 c 1,7,8
 76 115 76 115 112 115 c 128,-1,9
 148 115 148 115 158 98.5 c 128,-1,10
 168 82 168 82 168 58.5 c 128,-1,11
 168 35 168 35 165.5 23.5 c 128,-1,0
 163 12 163 12 150 2 c 128,-1,1
EndSplineSet
EndChar

StartChar: slash
Encoding: 47 47 18
Width: 320
GlyphClass: 2
Flags: W
LayerCount: 2
Fore
SplineSet
-2 -106 m 1,0,-1
 235 775 l 1,1,-1
 322 775 l 1,2,-1
 85 -106 l 1,3,-1
 -2 -106 l 1,0,-1
EndSplineSet
EndChar

StartChar: zero
Encoding: 48 48 19
Width: 634
GlyphClass: 2
Flags: W
LayerCount: 2
Fore
SplineSet
316 -14 m 128,-1,1
 255 -14 255 -14 209.5 6 c 128,-1,2
 164 26 164 26 135.5 59.5 c 128,-1,3
 107 93 107 93 90 143 c 128,-1,4
 73 193 73 193 66.5 246 c 128,-1,5
 60 299 60 299 60 365 c 128,-1,6
 60 431 60 431 66.5 484 c 128,-1,7
 73 537 73 537 90 587 c 128,-1,8
 107 637 107 637 135 670.5 c 128,-1,9
 163 704 163 704 209 724 c 128,-1,10
 255 744 255 744 316 744 c 128,-1,11
 377 744 377 744 423 724 c 128,-1,12
 469 704 469 704 497.5 670.5 c 128,-1,13
 526 637 526 637 543 587 c 128,-1,14
 560 537 560 537 566.5 484 c 128,-1,15
 573 431 573 431 573 365 c 128,-1,16
 573 299 573 299 566.5 246 c 128,-1,17
 560 193 560 193 543 143 c 128,-1,18
 526 93 526 93 497.5 59.5 c 128,-1,19
 469 26 469 26 423 6 c 128,-1,0
 377 -14 377 -14 316 -14 c 128,-1,1
316 56 m 0,20,21
 413 56 413 56 450.5 135.5 c 128,-1,22
 488 215 488 215 488 365 c 0,23,24
 488 595 488 595 400 651 c 0,25,26
 366 673 366 673 316 673 c 128,-1,27
 266 673 266 673 232 651 c 128,-1,28
 198 629 198 629 180 586 c 0,29,30
 146 508 146 508 146 365 c 0,31,32
 146 134 146 134 232 78 c 0,33,34
 266 56 266 56 316 56 c 0,20,21
EndSplineSet
EndChar

StartChar: one
Encoding: 49 49 20
Width: 634
GlyphClass: 2
Flags: W
LayerCount: 2
Fore
SplineSet
146 621 m 1,0,-1
 146 675 l 1,1,2
 255 687 255 687 316 730 c 1,3,-1
 381 730 l 1,4,-1
 381 71 l 1,5,-1
 533 71 l 1,6,-1
 533 0 l 1,7,-1
 142 0 l 1,8,-1
 142 71 l 1,9,-1
 293 71 l 1,10,-1
 293 621 l 1,11,-1
 146 621 l 1,0,-1
EndSplineSet
EndChar

StartChar: two
Encoding: 50 50 21
Width: 634
GlyphClass: 2
Flags: W
LayerCount: 2
Fore
SplineSet
159 695 m 128,-1,1
 215 744 215 744 322.5 744 c 128,-1,2
 430 744 430 744 487.5 691.5 c 128,-1,3
 545 639 545 639 545 548 c 0,4,5
 545 485 545 485 511.5 429 c 128,-1,6
 478 373 478 373 418 308 c 2,7,-1
 197 71 l 1,8,-1
 553 71 l 1,9,-1
 553 0 l 1,10,-1
 80 0 l 1,11,-1
 80 67 l 1,12,-1
 362 372 l 2,13,14
 412 425 412 425 435.5 464 c 128,-1,15
 459 503 459 503 459 555 c 128,-1,16
 459 607 459 607 423.5 640 c 128,-1,17
 388 673 388 673 317 673 c 0,18,19
 179 673 179 673 171 545 c 1,20,-1
 95 557 l 1,21,0
 103 646 103 646 159 695 c 128,-1,1
EndSplineSet
EndChar

StartChar: three
Encoding: 51 51 22
Width: 634
GlyphClass: 2
Flags: W
LayerCount: 2
Fore
SplineSet
147 174 m 1,0,1
 162 57 162 57 310 57 c 0,2,3
 386 57 386 57 428 90 c 128,-1,4
 470 123 470 123 470 187 c 128,-1,5
 470 251 470 251 433.5 289.5 c 128,-1,6
 397 328 397 328 320 328 c 2,7,-1
 229 328 l 1,8,-1
 229 394 l 1,9,-1
 321 394 l 2,10,11
 388 394 388 394 424 432.5 c 128,-1,12
 460 471 460 471 460 535 c 128,-1,13
 460 599 460 599 422 636 c 128,-1,14
 384 673 384 673 311 673 c 128,-1,15
 238 673 238 673 201 639 c 128,-1,16
 164 605 164 605 159 544 c 1,17,-1
 84 554 l 1,18,19
 91 644 91 644 148 694 c 128,-1,20
 205 744 205 744 314.5 744 c 128,-1,21
 424 744 424 744 485 687.5 c 128,-1,22
 546 631 546 631 546 532 c 0,23,24
 546 475 546 475 515.5 431 c 128,-1,25
 485 387 485 387 434 364 c 1,26,27
 490 344 490 344 522.5 298 c 128,-1,28
 555 252 555 252 555 183 c 0,29,30
 555 90 555 90 489 38 c 128,-1,31
 423 -14 423 -14 307 -14 c 0,32,33
 90 -14 90 -14 71 165 c 1,34,-1
 147 174 l 1,0,1
EndSplineSet
EndChar

StartChar: four
Encoding: 52 52 23
Width: 634
GlyphClass: 2
Flags: W
LayerCount: 2
Fore
SplineSet
480 0 m 1,0,-1
 394 0 l 1,1,-1
 394 163 l 1,2,-1
 32 163 l 1,3,-1
 32 233 l 1,4,-1
 354 730 l 1,5,-1
 480 730 l 1,6,-1
 480 234 l 1,7,-1
 569 234 l 1,8,-1
 569 163 l 1,9,-1
 480 163 l 1,10,-1
 480 0 l 1,0,-1
394 234 m 1,11,-1
 394 648 l 1,12,-1
 129 234 l 1,13,-1
 394 234 l 1,11,-1
EndSplineSet
EndChar

StartChar: five
Encoding: 53 53 24
Width: 634
GlyphClass: 2
Flags: W
LayerCount: 2
Fore
SplineSet
327 56 m 0,0,1
 407 56 407 56 446.5 99.5 c 128,-1,2
 486 143 486 143 486 216 c 128,-1,3
 486 289 486 289 429 328 c 128,-1,4
 372 367 372 367 232 367 c 2,5,-1
 112 367 l 1,6,-1
 135 730 l 1,7,-1
 531 730 l 1,8,-1
 531 659 l 1,9,-1
 208 659 l 1,10,-1
 193 439 l 1,11,-1
 240 439 l 2,12,13
 410 439 410 439 491.5 383 c 128,-1,14
 573 327 573 327 573 220.5 c 128,-1,15
 573 114 573 114 509.5 50 c 128,-1,16
 446 -14 446 -14 332.5 -14 c 128,-1,17
 219 -14 219 -14 161.5 39 c 128,-1,18
 104 92 104 92 98 191 c 1,19,-1
 174 198 l 1,20,21
 182 56 182 56 327 56 c 0,0,1
EndSplineSet
EndChar

StartChar: six
Encoding: 54 54 25
Width: 634
GlyphClass: 2
Flags: W
LayerCount: 2
Fore
SplineSet
332 673 m 0,0,1
 239 673 239 673 202 592 c 0,2,3
 171 525 171 525 167 394 c 1,4,5
 255 420 255 420 336 420 c 0,6,7
 581 420 581 420 581 219 c 1,8,9
 580 109 580 109 519 47.5 c 128,-1,10
 458 -14 458 -14 339 -14 c 0,11,12
 202 -14 202 -14 141.5 77.5 c 128,-1,13
 81 169 81 169 81 339 c 0,14,15
 81 639 81 639 210 715 c 0,16,17
 260 744 260 744 330 744 c 0,18,19
 552 744 552 744 564 544 c 1,20,-1
 489 536 l 1,21,22
 482 673 482 673 332 673 c 0,0,1
456 316 m 128,-1,24
 417 353 417 353 333 353 c 128,-1,25
 249 353 249 353 167 328 c 1,26,27
 171 184 171 184 210 120 c 128,-1,28
 249 56 249 56 335 56 c 0,29,30
 495 56 495 56 495 219 c 0,31,23
 495 279 495 279 456 316 c 128,-1,24
EndSplineSet
EndChar

StartChar: seven
Encoding: 55 55 26
Width: 634
GlyphClass: 2
Flags: W
LayerCount: 2
Fore
SplineSet
81 659 m 1,0,-1
 81 730 l 1,1,-1
 554 730 l 1,2,-1
 554 664 l 1,3,-1
 268 0 l 1,4,-1
 174 0 l 1,5,-1
 460 659 l 1,6,-1
 81 659 l 1,0,-1
EndSplineSet
EndChar

StartChar: eight
Encoding: 56 56 27
Width: 634
GlyphClass: 2
Flags: W
LayerCount: 2
Fore
SplineSet
70 186 m 0,0,1
 70 314 70 314 191 364 c 1,2,3
 80 411 80 411 80 534 c 0,4,5
 80 626 80 626 141 685 c 128,-1,6
 202 744 202 744 317.5 744 c 128,-1,7
 433 744 433 744 494 684.5 c 128,-1,8
 555 625 555 625 555 534 c 0,9,10
 555 420 555 420 443 370 c 1,11,12
 565 324 565 324 565 186 c 0,13,14
 565 97 565 97 498.5 41.5 c 128,-1,15
 432 -14 432 -14 318 -14 c 128,-1,16
 204 -14 204 -14 137 41.5 c 128,-1,17
 70 97 70 97 70 186 c 0,0,1
188.5 288.5 m 128,-1,19
 156 248 156 248 156 188.5 c 128,-1,20
 156 129 156 129 197.5 93 c 128,-1,21
 239 57 239 57 316.5 57 c 128,-1,22
 394 57 394 57 437 93.5 c 128,-1,23
 480 130 480 130 480 188 c 128,-1,24
 480 246 480 246 453 281 c 128,-1,25
 426 316 426 316 363 326 c 2,26,-1
 284 339 l 1,27,18
 221 329 221 329 188.5 288.5 c 128,-1,19
203 633.5 m 128,-1,29
 165 594 165 594 165 535.5 c 128,-1,30
 165 477 165 477 191.5 445 c 128,-1,31
 218 413 218 413 283 403 c 2,32,-1
 344 393 l 1,33,34
 406 404 406 404 438 441 c 128,-1,35
 470 478 470 478 470 536 c 128,-1,36
 470 594 470 594 432.5 633.5 c 128,-1,37
 395 673 395 673 318 673 c 128,-1,28
 241 673 241 673 203 633.5 c 128,-1,29
EndSplineSet
EndChar

StartChar: nine
Encoding: 57 57 28
Width: 634
GlyphClass: 2
Flags: W
LayerCount: 2
Fore
SplineSet
142 192 m 1,0,1
 148 56 148 56 304 56 c 0,2,3
 383 56 383 56 422.5 118.5 c 128,-1,4
 462 181 462 181 467 325 c 1,5,6
 384 301 384 301 308.5 301 c 128,-1,7
 233 301 233 301 184 318.5 c 128,-1,8
 135 336 135 336 108 367 c 0,9,10
 58 426 58 426 58 519.5 c 128,-1,11
 58 613 58 613 125 678.5 c 128,-1,12
 192 744 192 744 318 744 c 128,-1,13
 444 744 444 744 498.5 650.5 c 128,-1,14
 553 557 553 557 553 373 c 0,15,16
 553 198 553 198 502 98 c 0,17,18
 446 -14 446 -14 298 -14 c 0,19,20
 189 -14 189 -14 131 37 c 128,-1,21
 73 88 73 88 67 183 c 1,22,-1
 142 192 l 1,0,1
183.5 413 m 128,-1,24
 223 370 223 370 306 370 c 128,-1,25
 389 370 389 370 468 390 c 1,26,27
 466 542 466 542 430.5 607.5 c 128,-1,28
 395 673 395 673 312.5 673 c 128,-1,29
 230 673 230 673 187 629 c 128,-1,30
 144 585 144 585 144 520.5 c 128,-1,23
 144 456 144 456 183.5 413 c 128,-1,24
EndSplineSet
EndChar

StartChar: colon
Encoding: 58 58 29
Width: 228
GlyphClass: 2
Flags: W
LayerCount: 2
Fore
SplineSet
150 2 m 128,-1,1
 137 -8 137 -8 113.5 -8 c 128,-1,2
 90 -8 90 -8 77.5 2 c 128,-1,3
 65 12 65 12 62.5 23.5 c 128,-1,4
 60 35 60 35 60 50.5 c 128,-1,5
 60 66 60 66 61.5 75 c 128,-1,6
 63 84 63 84 68 94 c 1,7,8
 76 115 76 115 112 115 c 128,-1,9
 148 115 148 115 158 98.5 c 128,-1,10
 168 82 168 82 168 58.5 c 128,-1,11
 168 35 168 35 165.5 23.5 c 128,-1,0
 163 12 163 12 150 2 c 128,-1,1
150 417 m 128,-1,13
 137 407 137 407 113.5 407 c 128,-1,14
 90 407 90 407 77.5 417 c 128,-1,15
 65 427 65 427 62.5 438.5 c 128,-1,16
 60 450 60 450 60 465.5 c 128,-1,17
 60 481 60 481 61.5 490 c 128,-1,18
 63 499 63 499 68 510 c 0,19,20
 76 530 76 530 112 530 c 128,-1,21
 148 530 148 530 158 513.5 c 128,-1,22
 168 497 168 497 168 473.5 c 128,-1,23
 168 450 168 450 165.5 438.5 c 128,-1,12
 163 427 163 427 150 417 c 128,-1,13
EndSplineSet
EndChar

StartChar: semicolon
Encoding: 59 59 30
Width: 226
GlyphClass: 2
Flags: W
LayerCount: 2
Fore
SplineSet
67 18 m 128,-1,1
 60 41 60 41 60 57.5 c 128,-1,2
 60 74 60 74 62.5 84.5 c 128,-1,3
 65 95 65 95 77 105 c 128,-1,4
 89 115 89 115 112.5 115 c 128,-1,5
 136 115 136 115 148.5 105 c 128,-1,6
 161 95 161 95 163.5 84.5 c 128,-1,7
 166 74 166 74 166 47.5 c 128,-1,8
 166 21 166 21 152.5 -11.5 c 128,-1,9
 139 -44 139 -44 117 -68 c 0,10,11
 84 -105 84 -105 59 -124 c 1,12,-1
 33 -94 l 1,13,14
 47 -81 47 -81 54 -73 c 0,15,16
 74 -50 74 -50 74 -15 c 0,17,0
 74 -5 74 -5 67 18 c 128,-1,1
149 417 m 128,-1,19
 136 407 136 407 112.5 407 c 128,-1,20
 89 407 89 407 76.5 417 c 128,-1,21
 64 427 64 427 61.5 438.5 c 128,-1,22
 59 450 59 450 59 465.5 c 128,-1,23
 59 481 59 481 60.5 490 c 128,-1,24
 62 499 62 499 66 510 c 0,25,26
 75 530 75 530 111 530 c 128,-1,27
 147 530 147 530 157 513.5 c 128,-1,28
 167 497 167 497 167 473.5 c 128,-1,29
 167 450 167 450 164.5 438.5 c 128,-1,18
 162 427 162 427 149 417 c 128,-1,19
EndSplineSet
EndChar

StartChar: less
Encoding: 60 60 31
Width: 580
GlyphClass: 2
Flags: W
LayerCount: 2
Fore
SplineSet
89 274 m 1,0,-1
 89 360 l 1,1,-1
 491 529 l 1,2,-1
 491 454 l 1,3,-1
 155 317 l 1,4,-1
 491 180 l 1,5,-1
 491 105 l 1,6,-1
 89 274 l 1,0,-1
EndSplineSet
EndChar

StartChar: equal
Encoding: 61 61 32
Width: 580
GlyphClass: 2
Flags: W
LayerCount: 2
Fore
SplineSet
92 386 m 1,0,-1
 92 454 l 1,1,-1
 488 454 l 1,2,-1
 488 386 l 1,3,-1
 92 386 l 1,0,-1
92 182 m 1,4,-1
 92 250 l 1,5,-1
 488 250 l 1,6,-1
 488 182 l 1,7,-1
 92 182 l 1,4,-1
EndSplineSet
EndChar

StartChar: greater
Encoding: 62 62 33
Width: 580
GlyphClass: 2
Flags: W
LayerCount: 2
Fore
SplineSet
491 360 m 1,0,-1
 491 274 l 1,1,-1
 89 105 l 1,2,-1
 89 180 l 1,3,-1
 425 317 l 1,4,-1
 89 454 l 1,5,-1
 89 529 l 1,6,-1
 491 360 l 1,0,-1
EndSplineSet
EndChar

StartChar: question
Encoding: 63 63 34
Width: 480
GlyphClass: 2
Flags: W
LayerCount: 2
Fore
SplineSet
256 2 m 128,-1,1
 243 -8 243 -8 219.5 -8 c 128,-1,2
 196 -8 196 -8 183.5 2 c 128,-1,3
 171 12 171 12 168.5 23.5 c 128,-1,4
 166 35 166 35 166 50.5 c 128,-1,5
 166 66 166 66 167.5 75 c 128,-1,6
 169 84 169 84 174 94 c 1,7,8
 182 115 182 115 217.5 115 c 128,-1,9
 253 115 253 115 263.5 98 c 128,-1,10
 274 81 274 81 274 58 c 128,-1,11
 274 35 274 35 271.5 23.5 c 128,-1,0
 269 12 269 12 256 2 c 128,-1,1
99 703 m 128,-1,13
 150 744 150 744 245.5 744 c 128,-1,14
 341 744 341 744 397.5 682.5 c 128,-1,15
 454 621 454 621 454 535 c 0,16,17
 454 381 454 381 258 313 c 1,18,-1
 247 191 l 1,19,-1
 192 191 l 1,20,-1
 184 343 l 1,21,22
 281 375 281 375 325.5 420.5 c 128,-1,23
 370 466 370 466 370 528.5 c 128,-1,24
 370 591 370 591 336 634 c 128,-1,25
 302 677 302 677 236 677 c 0,26,27
 129 677 129 677 110 581 c 1,28,-1
 36 591 l 1,29,12
 48 662 48 662 99 703 c 128,-1,13
EndSplineSet
EndChar

StartChar: at
Encoding: 64 64 35
Width: 1024
GlyphClass: 2
Flags: W
LayerCount: 2
Fore
SplineSet
514 -95 m 2,0,1
 344 -95 344 -95 252 -41 c 0,2,3
 157 14 157 14 121 106 c 0,4,5
 86 196 86 196 86 328 c 0,6,7
 86 527 86 527 189.5 639 c 128,-1,8
 293 751 293 751 509 751 c 128,-1,9
 725 751 725 751 831.5 644.5 c 128,-1,10
 938 538 938 538 938 365 c 0,11,12
 938 125 938 125 710 125 c 2,13,-1
 630 125 l 1,14,-1
 607 186 l 1,15,16
 532 115 532 115 447 115 c 0,17,18
 294 115 294 115 294 340 c 128,-1,19
 294 565 294 565 479 565 c 0,20,21
 552 565 552 565 624 529 c 1,22,-1
 649 565 l 1,23,-1
 681 565 l 1,24,-1
 681 185 l 1,25,-1
 708 185 l 2,26,27
 792 185 792 185 825.5 230 c 128,-1,28
 859 275 859 275 859 354.5 c 128,-1,29
 859 434 859 434 841 490 c 128,-1,30
 823 546 823 546 784 591 c 0,31,32
 702 686 702 686 515.5 686 c 128,-1,33
 329 686 329 686 249.5 593 c 128,-1,34
 170 500 170 500 170 328 c 0,35,36
 170 259 170 259 178 208 c 128,-1,37
 186 157 186 157 208 110 c 128,-1,38
 230 63 230 63 268 34 c 0,39,40
 350 -30 350 -30 514 -30 c 2,41,-1
 681 -30 l 1,42,-1
 681 -95 l 1,43,-1
 514 -95 l 2,0,1
473 176 m 0,44,45
 542 176 542 176 603 240 c 1,46,-1
 603 479 l 1,47,48
 549 504 549 504 494 504 c 0,49,50
 372 504 372 504 372 340 c 128,-1,51
 372 176 372 176 473 176 c 0,44,45
EndSplineSet
EndChar

StartChar: A
Encoding: 65 65 36
Width: 628
GlyphClass: 2
Flags: W
LayerCount: 2
Fore
SplineSet
255 730 m 1,0,-1
 372 730 l 1,1,-1
 611 0 l 1,2,-1
 524 0 l 1,3,-1
 453 220 l 1,4,-1
 175 220 l 1,5,-1
 104 0 l 1,6,-1
 17 0 l 1,7,-1
 255 730 l 1,0,-1
314 652 m 1,8,-1
 197 290 l 1,9,-1
 430 290 l 1,10,-1
 314 652 l 1,8,-1
EndSplineSet
EndChar

StartChar: B
Encoding: 66 66 37
Width: 613
GlyphClass: 2
Flags: W
LayerCount: 2
Fore
SplineSet
344 0 m 2,0,-1
 106 0 l 1,1,-1
 106 730 l 1,2,-1
 306 730 l 2,3,4
 529 730 529 730 529 543 c 0,5,6
 529 417 529 417 424 378 c 1,7,8
 567 347 567 347 567 195 c 0,9,10
 567 0 567 0 344 0 c 2,0,-1
194 70 m 1,11,-1
 343 70 l 2,12,13
 413 70 413 70 446 106 c 128,-1,14
 479 142 479 142 479 203 c 128,-1,15
 479 264 479 264 446 301 c 128,-1,16
 413 338 413 338 343 338 c 2,17,-1
 194 338 l 1,18,-1
 194 70 l 1,11,-1
194 409 m 1,19,-1
 305 409 l 2,20,21
 375 409 375 409 408 442.5 c 128,-1,22
 441 476 441 476 441 534 c 128,-1,23
 441 592 441 592 408 626 c 128,-1,24
 375 660 375 660 305 660 c 2,25,-1
 194 660 l 1,26,-1
 194 409 l 1,19,-1
EndSplineSet
EndChar

StartChar: C
Encoding: 67 67 38
Width: 638
GlyphClass: 2
Flags: W
LayerCount: 2
Fore
SplineSet
355 672 m 0,0,1
 262 672 262 672 216 620 c 0,2,3
 175 575 175 575 166 472 c 0,4,5
 162 429 162 429 162 366 c 128,-1,6
 162 303 162 303 166 258.5 c 128,-1,7
 170 214 170 214 182.5 174 c 128,-1,8
 195 134 195 134 216 110 c 0,9,10
 262 58 262 58 355 58 c 0,11,12
 509 58 509 58 514 222 c 1,13,-1
 586 218 l 1,14,15
 579 107 579 107 525.5 46.5 c 128,-1,16
 472 -14 472 -14 355 -14 c 0,17,18
 190 -14 190 -14 130 88 c 0,19,20
 99 139 99 139 86.5 205 c 128,-1,21
 74 271 74 271 74 365.5 c 128,-1,22
 74 460 74 460 86.5 526 c 128,-1,23
 99 592 99 592 130 643 c 0,24,25
 190 744 190 744 355 744 c 0,26,27
 464 744 464 744 517 694.5 c 128,-1,28
 570 645 570 645 582 553 c 1,29,-1
 511 540 l 1,30,31
 490 672 490 672 355 672 c 0,0,1
EndSplineSet
EndChar

StartChar: D
Encoding: 68 68 39
Width: 698
GlyphClass: 2
Flags: W
LayerCount: 2
Fore
SplineSet
106 730 m 1,0,-1
 328 730 l 2,1,2
 500 730 500 730 561 622 c 0,3,4
 591 570 591 570 602.5 509 c 128,-1,5
 614 448 614 448 614 373.5 c 128,-1,6
 614 299 614 299 607.5 248 c 128,-1,7
 601 197 601 197 582 148.5 c 128,-1,8
 563 100 563 100 532 69 c 0,9,10
 461 0 461 0 328 0 c 2,11,-1
 106 0 l 1,12,-1
 106 730 l 1,0,-1
324 660 m 2,13,-1
 194 660 l 1,14,-1
 194 70 l 1,15,-1
 324 70 l 2,16,17
 422 70 422 70 470 126 c 1,18,19
 526 194 526 194 526 365 c 128,-1,20
 526 536 526 536 470 604 c 1,21,22
 422 660 422 660 324 660 c 2,13,-1
EndSplineSet
EndChar

StartChar: E
Encoding: 69 69 40
Width: 560
GlyphClass: 2
Flags: W
LayerCount: 2
Fore
SplineSet
106 730 m 1,0,-1
 494 730 l 1,1,-1
 494 660 l 1,2,-1
 194 660 l 1,3,-1
 194 406 l 1,4,-1
 473 406 l 1,5,-1
 473 336 l 1,6,-1
 194 336 l 1,7,-1
 194 70 l 1,8,-1
 514 70 l 1,9,-1
 514 0 l 1,10,-1
 106 0 l 1,11,-1
 106 730 l 1,0,-1
EndSplineSet
EndChar

StartChar: F
Encoding: 70 70 41
Width: 518
GlyphClass: 2
Flags: W
LayerCount: 2
Fore
SplineSet
106 730 m 1,0,-1
 474 730 l 1,1,-1
 474 660 l 1,2,-1
 194 660 l 1,3,-1
 194 406 l 1,4,-1
 451 406 l 1,5,-1
 451 336 l 1,6,-1
 194 336 l 1,7,-1
 194 0 l 1,8,-1
 106 0 l 1,9,-1
 106 730 l 1,0,-1
EndSplineSet
EndChar

StartChar: G
Encoding: 71 71 42
Width: 693
GlyphClass: 2
Flags: W
LayerCount: 2
Fore
SplineSet
406 308 m 1,0,-1
 406 367 l 1,1,-1
 597 367 l 1,2,-1
 597 0 l 1,3,-1
 549 0 l 1,4,-1
 534 87 l 1,5,6
 472 -14 472 -14 345 -14 c 0,7,8
 216 -14 216 -14 152 52 c 0,9,10
 96 109 96 109 80 236 c 0,11,12
 74 291 74 291 74 375.5 c 128,-1,13
 74 460 74 460 86.5 526 c 128,-1,14
 99 592 99 592 130 643 c 0,15,16
 190 744 190 744 355 744 c 0,17,18
 464 744 464 744 517 694.5 c 128,-1,19
 570 645 570 645 582 553 c 1,20,-1
 511 540 l 1,21,22
 490 672 490 672 355 672 c 0,23,24
 262 672 262 672 216 620 c 0,25,26
 175 573 175 573 166 472 c 0,27,28
 162 428 162 428 162 364.5 c 128,-1,29
 162 301 162 301 166 256 c 128,-1,30
 170 211 170 211 182 171.5 c 128,-1,31
 194 132 194 132 214 108 c 1,32,33
 259 58 259 58 342.5 58 c 128,-1,34
 426 58 426 58 469.5 98.5 c 128,-1,35
 513 139 513 139 519 208 c 1,36,-1
 519 308 l 1,37,-1
 406 308 l 1,0,-1
EndSplineSet
EndChar

StartChar: H
Encoding: 72 72 43
Width: 726
GlyphClass: 2
Flags: W
LayerCount: 2
Fore
SplineSet
532 730 m 1,0,-1
 620 730 l 1,1,-1
 620 0 l 1,2,-1
 532 0 l 1,3,-1
 532 330 l 1,4,-1
 194 330 l 1,5,-1
 194 0 l 1,6,-1
 106 0 l 1,7,-1
 106 730 l 1,8,-1
 194 730 l 1,9,-1
 194 400 l 1,10,-1
 532 400 l 1,11,-1
 532 730 l 1,0,-1
EndSplineSet
EndChar

StartChar: I
Encoding: 73 73 44
Width: 300
GlyphClass: 2
Flags: W
LayerCount: 2
Fore
SplineSet
106 730 m 1,0,-1
 194 730 l 1,1,-1
 194 0 l 1,2,-1
 106 0 l 1,3,-1
 106 730 l 1,0,-1
EndSplineSet
EndChar

StartChar: J
Encoding: 74 74 45
Width: 467
GlyphClass: 2
Flags: W
LayerCount: 2
Fore
SplineSet
376 730 m 1,0,-1
 376 183 l 2,1,2
 376 136 376 136 370.5 105.5 c 128,-1,3
 365 75 365 75 347 45 c 0,4,5
 312 -14 312 -14 189 -14 c 0,6,7
 86 -14 86 -14 50 32 c 1,8,9
 26 65 26 65 21 95 c 1,10,11
 16 133 16 133 16 189 c 1,12,-1
 92 189 l 1,13,14
 92 115 92 115 113 86.5 c 128,-1,15
 134 58 134 58 191.5 58 c 128,-1,16
 249 58 249 58 268.5 84.5 c 128,-1,17
 288 111 288 111 288 183 c 2,18,-1
 288 730 l 1,19,-1
 376 730 l 1,0,-1
EndSplineSet
EndChar

StartChar: K
Encoding: 75 75 46
Width: 598
GlyphClass: 2
Flags: W
LayerCount: 2
Fore
SplineSet
194 335 m 1,0,-1
 194 0 l 1,1,-1
 106 0 l 1,2,-1
 106 730 l 1,3,-1
 194 730 l 1,4,-1
 194 405 l 1,5,-1
 273 405 l 1,6,-1
 478 730 l 1,7,-1
 570 730 l 1,8,-1
 339 368 l 1,9,-1
 584 0 l 1,10,-1
 489 0 l 1,11,-1
 267 335 l 1,12,-1
 194 335 l 1,0,-1
EndSplineSet
EndChar

StartChar: L
Encoding: 76 76 47
Width: 482
GlyphClass: 2
Flags: W
LayerCount: 2
Fore
SplineSet
106 0 m 1,0,-1
 106 730 l 1,1,-1
 194 730 l 1,2,-1
 194 70 l 1,3,-1
 466 70 l 1,4,-1
 466 0 l 1,5,-1
 106 0 l 1,0,-1
EndSplineSet
EndChar

StartChar: M
Encoding: 77 77 48
Width: 877
GlyphClass: 2
Flags: W
LayerCount: 2
Fore
SplineSet
642 730 m 1,0,-1
 762 730 l 1,1,-1
 781 0 l 1,2,-1
 695 0 l 1,3,-1
 680 615 l 1,4,-1
 471 62 l 1,5,-1
 391 62 l 1,6,-1
 197 609 l 1,7,-1
 182 0 l 1,8,-1
 96 0 l 1,9,-1
 116 730 l 1,10,-1
 235 730 l 1,11,-1
 432 171 l 1,12,-1
 642 730 l 1,0,-1
EndSplineSet
EndChar

StartChar: N
Encoding: 78 78 49
Width: 744
GlyphClass: 2
Flags: W
LayerCount: 2
Fore
SplineSet
550 730 m 1,0,-1
 638 730 l 1,1,-1
 638 0 l 1,2,-1
 542 0 l 1,3,-1
 194 582 l 1,4,-1
 194 0 l 1,5,-1
 106 0 l 1,6,-1
 106 730 l 1,7,-1
 202 730 l 1,8,-1
 550 147 l 1,9,-1
 550 730 l 1,0,-1
EndSplineSet
EndChar

StartChar: O
Encoding: 79 79 50
Width: 721
GlyphClass: 2
Flags: W
LayerCount: 2
Fore
SplineSet
502 14.5 m 128,-1,1
 444 -14 444 -14 359.5 -14 c 128,-1,2
 275 -14 275 -14 217.5 14 c 128,-1,3
 160 42 160 42 129.5 96.5 c 128,-1,4
 99 151 99 151 86.5 215 c 128,-1,5
 74 279 74 279 74 355.5 c 128,-1,6
 74 432 74 432 81 485.5 c 128,-1,7
 88 539 88 539 107.5 589 c 128,-1,8
 127 639 127 639 158 672 c 0,9,10
 227 744 227 744 360 744 c 0,11,12
 528 744 528 744 591 632 c 0,13,14
 622 578 622 578 634.5 514 c 128,-1,15
 647 450 647 450 647 364.5 c 128,-1,16
 647 279 647 279 634.5 215 c 128,-1,17
 622 151 622 151 591 97 c 128,-1,0
 560 43 560 43 502 14.5 c 128,-1,1
366 58 m 0,18,19
 418 58 418 58 458.5 81.5 c 128,-1,20
 499 105 499 105 520 148.5 c 128,-1,21
 541 192 541 192 550 244.5 c 128,-1,22
 559 297 559 297 559 365 c 128,-1,23
 559 433 559 433 550 485.5 c 128,-1,24
 541 538 541 538 520 582 c 0,25,26
 476 672 476 672 360 672 c 0,27,28
 267 672 267 672 220 613 c 0,29,30
 162 540 162 540 162 365 c 128,-1,31
 162 190 162 190 220 117 c 0,32,33
 267 58 267 58 366 58 c 0,18,19
EndSplineSet
EndChar

StartChar: P
Encoding: 80 80 51
Width: 589
GlyphClass: 2
Flags: W
LayerCount: 2
Fore
SplineSet
321 271 m 2,0,-1
 194 271 l 1,1,-1
 194 0 l 1,2,-1
 106 0 l 1,3,-1
 106 730 l 1,4,-1
 321 730 l 2,5,6
 547 730 547 730 547 500.5 c 128,-1,7
 547 271 547 271 321 271 c 2,0,-1
194 341 m 1,8,-1
 316 341 l 2,9,10
 459 341 459 341 459 500.5 c 128,-1,11
 459 660 459 660 316 660 c 2,12,-1
 194 660 l 1,13,-1
 194 341 l 1,8,-1
EndSplineSet
EndChar

StartChar: Q
Encoding: 81 81 52
Width: 711
GlyphClass: 2
Flags: W
LayerCount: 2
Fore
SplineSet
74 365 m 0,0,1
 74 598 74 598 158 678 c 1,2,3
 225 744 225 744 355 744 c 0,4,5
 521 744 521 744 582 642 c 0,6,7
 612 590 612 590 624.5 524.5 c 128,-1,8
 637 459 637 459 637 365 c 0,9,10
 637 207 637 207 598 117 c 128,-1,11
 559 27 559 27 459 -1 c 1,12,-1
 618 -72 l 1,13,-1
 582 -139 l 1,14,-1
 327 -13 l 1,15,16
 182 -5 182 -5 128 87.5 c 128,-1,17
 74 180 74 180 74 365 c 0,0,1
203 134 m 128,-1,19
 244 58 244 58 354.5 58 c 128,-1,20
 465 58 465 58 507 134.5 c 128,-1,21
 549 211 549 211 549 365 c 128,-1,22
 549 519 549 519 507 595.5 c 128,-1,23
 465 672 465 672 354.5 672 c 128,-1,24
 244 672 244 672 203 596 c 128,-1,25
 162 520 162 520 162 365 c 128,-1,18
 162 210 162 210 203 134 c 128,-1,19
EndSplineSet
EndChar

StartChar: R
Encoding: 82 82 53
Width: 640
GlyphClass: 2
Flags: W
LayerCount: 2
Fore
SplineSet
106 730 m 1,0,-1
 327 730 l 2,1,2
 392 730 392 730 438.5 711 c 128,-1,3
 485 692 485 692 508 659 c 0,4,5
 551 597 551 597 551 515 c 0,6,7
 551 358 551 358 425 315 c 1,8,9
 452 295 452 295 473 249 c 2,10,-1
 581 0 l 1,11,-1
 487 0 l 1,12,-1
 386 237 l 2,13,14
 370 273 370 273 346 286 c 128,-1,15
 322 299 322 299 279 301 c 1,16,-1
 194 301 l 1,17,-1
 194 0 l 1,18,-1
 106 0 l 1,19,-1
 106 730 l 1,0,-1
194 371 m 1,20,-1
 323 371 l 2,21,22
 396 371 396 371 429.5 412.5 c 128,-1,23
 463 454 463 454 463 515.5 c 128,-1,24
 463 577 463 577 429.5 618.5 c 128,-1,25
 396 660 396 660 323 660 c 2,26,-1
 194 660 l 1,27,-1
 194 371 l 1,20,-1
EndSplineSet
EndChar

StartChar: S
Encoding: 83 83 54
Width: 598
GlyphClass: 2
Flags: W
LayerCount: 2
Fore
SplineSet
498.5 323 m 128,-1,1
 542 280 542 280 542 190.5 c 128,-1,2
 542 101 542 101 479.5 43.5 c 128,-1,3
 417 -14 417 -14 298.5 -14 c 128,-1,4
 180 -14 180 -14 125 35 c 128,-1,5
 70 84 70 84 56 176 c 1,6,-1
 128 189 l 1,7,8
 147 57 147 57 291 57 c 0,9,10
 454 57 454 57 454 186 c 0,11,12
 454 242 454 242 424 269 c 128,-1,13
 394 296 394 296 324 315 c 1,14,-1
 258 334 l 1,15,16
 155 362 155 362 113 405.5 c 128,-1,17
 71 449 71 449 71 538.5 c 128,-1,18
 71 628 71 628 131 686 c 128,-1,19
 191 744 191 744 305.5 744 c 128,-1,20
 420 744 420 744 472 695 c 128,-1,21
 524 646 524 646 538 554 c 1,22,-1
 466 541 l 1,23,24
 447 673 447 673 314 673 c 0,25,26
 159 673 159 673 159 544 c 0,27,28
 159 488 159 488 186.5 460.5 c 128,-1,29
 214 433 214 433 280 415 c 2,30,-1
 349 396 l 2,31,0
 455 366 455 366 498.5 323 c 128,-1,1
EndSplineSet
EndChar

StartChar: T
Encoding: 84 84 55
Width: 494
GlyphClass: 2
Flags: W
LayerCount: 2
Fore
SplineSet
7 660 m 1,0,-1
 7 730 l 1,1,-1
 487 730 l 1,2,-1
 487 660 l 1,3,-1
 291 660 l 1,4,-1
 291 0 l 1,5,-1
 203 0 l 1,6,-1
 203 660 l 1,7,-1
 7 660 l 1,0,-1
EndSplineSet
EndChar

StartChar: U
Encoding: 85 85 56
Width: 697
GlyphClass: 2
Flags: W
LayerCount: 2
Fore
SplineSet
518 730 m 1,0,-1
 606 730 l 1,1,-1
 606 241 l 2,2,3
 606 174 606 174 590 126 c 128,-1,4
 574 78 574 78 550.5 51.5 c 128,-1,5
 527 25 527 25 490 9.5 c 128,-1,6
 453 -6 453 -6 421.5 -10 c 128,-1,7
 390 -14 390 -14 348 -14 c 128,-1,8
 306 -14 306 -14 274.5 -10 c 128,-1,9
 243 -6 243 -6 206.5 9.5 c 128,-1,10
 170 25 170 25 146.5 51.5 c 128,-1,11
 123 78 123 78 107 126 c 128,-1,12
 91 174 91 174 91 241 c 2,13,-1
 91 730 l 1,14,-1
 179 730 l 1,15,-1
 179 244 l 2,16,17
 179 128 179 128 234 90 c 0,18,19
 261 72 261 72 287 66 c 128,-1,20
 313 60 313 60 348.5 60 c 128,-1,21
 384 60 384 60 410 66 c 128,-1,22
 436 72 436 72 463 90 c 0,23,24
 518 127 518 127 518 244 c 2,25,-1
 518 730 l 1,0,-1
EndSplineSet
EndChar

StartChar: V
Encoding: 86 86 57
Width: 612
GlyphClass: 2
Flags: W
LayerCount: 2
Fore
SplineSet
365 0 m 1,0,-1
 248 0 l 1,1,-1
 25 730 l 1,2,-1
 115 730 l 1,3,-1
 306 83 l 1,4,-1
 498 730 l 1,5,-1
 587 730 l 1,6,-1
 365 0 l 1,0,-1
EndSplineSet
EndChar

StartChar: W
Encoding: 87 87 58
Width: 871
GlyphClass: 2
Flags: W
LayerCount: 2
Fore
SplineSet
315 0 m 1,0,-1
 187 0 l 1,1,-1
 28 730 l 1,2,-1
 118 730 l 1,3,-1
 253 82 l 1,4,-1
 392 730 l 1,5,-1
 479 730 l 1,6,-1
 617 82 l 1,7,-1
 753 730 l 1,8,-1
 843 730 l 1,9,-1
 684 0 l 1,10,-1
 556 0 l 1,11,-1
 435 556 l 1,12,-1
 315 0 l 1,0,-1
EndSplineSet
EndChar

StartChar: X
Encoding: 88 88 59
Width: 629
GlyphClass: 2
Flags: W
LayerCount: 2
Fore
SplineSet
40 730 m 1,0,-1
 140 730 l 1,1,-1
 321 447 l 1,2,-1
 493 730 l 1,3,-1
 589 730 l 1,4,-1
 368 374 l 1,5,-1
 608 0 l 1,6,-1
 508 0 l 1,7,-1
 310 308 l 1,8,-1
 124 0 l 1,9,-1
 27 0 l 1,10,-1
 263 382 l 1,11,-1
 40 730 l 1,0,-1
EndSplineSet
EndChar

StartChar: Y
Encoding: 89 89 60
Width: 550
GlyphClass: 2
Flags: W
LayerCount: 2
Fore
SplineSet
319 0 m 1,0,-1
 231 0 l 1,1,-1
 231 254 l 1,2,-1
 6 730 l 1,3,-1
 96 730 l 1,4,-1
 275 340 l 1,5,-1
 454 730 l 1,6,-1
 544 730 l 1,7,-1
 319 254 l 1,8,-1
 319 0 l 1,0,-1
EndSplineSet
EndChar

StartChar: Z
Encoding: 90 90 61
Width: 549
GlyphClass: 2
Flags: W
LayerCount: 2
Fore
SplineSet
511 730 m 1,0,-1
 511 674 l 1,1,-1
 135 70 l 1,2,-1
 521 70 l 1,3,-1
 521 0 l 1,4,-1
 28 0 l 1,5,-1
 28 56 l 1,6,-1
 404 660 l 1,7,-1
 47 660 l 1,8,-1
 48 730 l 1,9,-1
 511 730 l 1,0,-1
EndSplineSet
EndChar

StartChar: bracketleft
Encoding: 91 91 62
Width: 295
GlyphClass: 2
Flags: W
LayerCount: 2
Fore
SplineSet
78 -66 m 1,0,-1
 78 735 l 1,1,-1
 289 735 l 1,2,-1
 289 672 l 1,3,-1
 167 672 l 1,4,-1
 167 -3 l 1,5,-1
 289 -3 l 1,6,-1
 289 -66 l 1,7,-1
 78 -66 l 1,0,-1
EndSplineSet
EndChar

StartChar: backslash
Encoding: 92 92 63
Width: 320
GlyphClass: 2
Flags: W
LayerCount: 2
Fore
SplineSet
85 775 m 1,0,-1
 322 -106 l 1,1,-1
 235 -106 l 1,2,-1
 -2 775 l 1,3,-1
 85 775 l 1,0,-1
EndSplineSet
EndChar

StartChar: bracketright
Encoding: 93 93 64
Width: 295
GlyphClass: 2
Flags: W
LayerCount: 2
Fore
SplineSet
217 735 m 1,0,-1
 217 -66 l 1,1,-1
 6 -66 l 1,2,-1
 6 -3 l 1,3,-1
 128 -3 l 1,4,-1
 128 672 l 1,5,-1
 6 672 l 1,6,-1
 6 735 l 1,7,-1
 217 735 l 1,0,-1
EndSplineSet
EndChar

StartChar: asciicircum
Encoding: 94 94 65
Width: 580
GlyphClass: 2
Flags: W
LayerCount: 2
Fore
SplineSet
247 618 m 1,0,-1
 333 618 l 1,1,-1
 482 316 l 1,2,-1
 407 316 l 1,3,-1
 290 561 l 1,4,-1
 173 316 l 1,5,-1
 98 316 l 1,6,-1
 247 618 l 1,0,-1
EndSplineSet
EndChar

StartChar: underscore
Encoding: 95 95 66
Width: 576
GlyphClass: 2
Flags: W
LayerCount: 2
Fore
SplineSet
68 -68 m 1,0,-1
 68 0 l 1,1,-1
 508 0 l 1,2,-1
 508 -68 l 1,3,-1
 68 -68 l 1,0,-1
EndSplineSet
EndChar

StartChar: grave
Encoding: 96 96 67
Width: 310
GlyphClass: 2
Flags: W
LayerCount: 2
Fore
SplineSet
264 671 m 1,0,-1
 225 625 l 1,1,-1
 42 763 l 1,2,-1
 96 827 l 1,3,-1
 264 671 l 1,0,-1
EndSplineSet
EndChar

StartChar: a
Encoding: 97 97 68
Width: 586
GlyphClass: 2
Flags: W
LayerCount: 2
Fore
SplineSet
430 548 m 0,0,1
 490 505 490 505 490 386 c 2,2,-1
 490 0 l 1,3,-1
 433 0 l 1,4,-1
 411 89 l 1,5,6
 315 -14 315 -14 200 -14 c 0,7,8
 124 -14 124 -14 88.5 26 c 128,-1,9
 53 66 53 66 53 134 c 128,-1,10
 53 202 53 202 95.5 244 c 128,-1,11
 138 286 138 286 255 305 c 2,12,-1
 404 329 l 1,13,-1
 404 386 l 2,14,15
 404 460 404 460 372.5 488 c 128,-1,16
 341 516 341 516 286 516 c 0,17,18
 176 516 176 516 155 409 c 1,19,-1
 85 430 l 1,20,21
 101 504 101 504 152 545 c 128,-1,22
 203 586 203 586 290.5 586 c 128,-1,23
 378 586 378 586 430 548 c 0,0,1
224 52 m 0,24,25
 314 52 314 52 404 149 c 1,26,-1
 404 269 l 1,27,-1
 263 245 l 2,28,29
 192 232 192 232 165 204.5 c 128,-1,30
 138 177 138 177 138 137.5 c 128,-1,31
 138 98 138 98 159 75 c 128,-1,32
 180 52 180 52 224 52 c 0,24,25
EndSplineSet
EndChar

StartChar: b
Encoding: 98 98 69
Width: 627
GlyphClass: 2
Flags: W
LayerCount: 2
Fore
SplineSet
357 -14 m 0,0,1
 263 -14 263 -14 176 47 c 1,2,-1
 157 0 l 1,3,-1
 106 0 l 1,4,-1
 106 758 l 1,5,-1
 192 768 l 1,6,-1
 192 539 l 1,7,8
 278 586 278 586 357 586 c 0,9,10
 573 586 573 586 573 286 c 128,-1,11
 573 -14 573 -14 357 -14 c 0,0,1
341 516 m 0,12,13
 264 516 264 516 192 473 c 1,14,-1
 192 103 l 1,15,16
 261 56 261 56 333 56 c 0,17,18
 487 56 487 56 487 286 c 0,19,20
 487 349 487 349 474.5 398 c 128,-1,21
 462 447 462 447 428 481.5 c 128,-1,22
 394 516 394 516 341 516 c 0,12,13
EndSplineSet
EndChar

StartChar: c
Encoding: 99 99 70
Width: 550
GlyphClass: 2
Flags: W
LayerCount: 2
Fore
SplineSet
140 286 m 0,0,1
 140 237 140 237 146 199 c 128,-1,2
 152 161 152 161 168 127 c 0,3,4
 201 56 201 56 293 56 c 0,5,6
 368 56 368 56 400.5 85.5 c 128,-1,7
 433 115 433 115 436 173 c 1,8,-1
 506 170 l 1,9,10
 499 81 499 81 450 33.5 c 128,-1,11
 401 -14 401 -14 290 -14 c 0,12,13
 133 -14 133 -14 82 114 c 0,14,15
 54 184 54 184 54 267 c 128,-1,16
 54 350 54 350 64 399.5 c 128,-1,17
 74 449 74 449 99 494 c 0,18,19
 151 586 151 586 290 586 c 0,20,21
 401 586 401 586 450 540.5 c 128,-1,22
 499 495 499 495 505 409 c 1,23,-1
 436 399 l 1,24,25
 433 457 433 457 400.5 486.5 c 128,-1,26
 368 516 368 516 293 516 c 0,27,28
 201 516 201 516 168 445 c 0,29,30
 140 386 140 386 140 286 c 0,0,1
EndSplineSet
EndChar

StartChar: d
Encoding: 100 100 71
Width: 627
GlyphClass: 2
Flags: W
LayerCount: 2
Fore
SplineSet
238 -14 m 0,0,1
 54 -14 54 -14 54 286 c 128,-1,2
 54 586 54 586 277 586 c 0,3,4
 354 586 354 586 435 547 c 1,5,-1
 435 758 l 1,6,-1
 521 768 l 1,7,-1
 521 0 l 1,8,-1
 464 0 l 1,9,-1
 439 87 l 1,10,11
 348 -14 348 -14 238 -14 c 0,0,1
266 56 m 0,12,13
 356 56 356 56 435 152 c 1,14,-1
 435 479 l 1,15,16
 363 518 363 518 294 518 c 0,17,18
 210 518 210 518 175 457 c 128,-1,19
 140 396 140 396 140 286 c 0,20,21
 140 56 140 56 266 56 c 0,12,13
EndSplineSet
EndChar

StartChar: e
Encoding: 101 101 72
Width: 578
GlyphClass: 2
Flags: W
LayerCount: 2
Fore
SplineSet
297 -14 m 0,0,1
 166 -14 166 -14 110 60.5 c 128,-1,2
 54 135 54 135 54 286 c 0,3,4
 54 586 54 586 293 586 c 0,5,6
 529 586 529 586 529 298 c 2,7,-1
 529 277 l 1,8,-1
 139 277 l 1,9,10
 140 159 140 159 175 107.5 c 128,-1,11
 210 56 210 56 297 56 c 0,12,13
 439 56 439 56 449 171 c 1,14,-1
 520 167 l 1,15,16
 501 -14 501 -14 297 -14 c 0,0,1
405 470.5 m 128,-1,18
 372 516 372 516 294 516 c 128,-1,19
 216 516 216 516 182 469.5 c 128,-1,20
 148 423 148 423 141 341 c 1,21,-1
 443 341 l 1,22,17
 438 425 438 425 405 470.5 c 128,-1,18
EndSplineSet
EndChar

StartChar: f
Encoding: 102 102 73
Width: 338
GlyphClass: 2
Flags: W
LayerCount: 2
Fore
SplineSet
286 707 m 0,0,1
 208 707 208 707 208 616 c 2,2,-1
 208 572 l 1,3,-1
 340 572 l 1,4,-1
 340 513 l 1,5,-1
 208 513 l 1,6,-1
 208 0 l 1,7,-1
 122 0 l 1,8,-1
 122 513 l 1,9,-1
 56 513 l 1,10,-1
 56 572 l 1,11,-1
 122 572 l 1,12,-1
 122 616 l 2,13,14
 122 775 122 775 280 775 c 0,15,16
 339 775 339 775 386 758 c 1,17,-1
 364 693 l 1,18,19
 330 707 330 707 286 707 c 0,0,1
EndSplineSet
EndChar

StartChar: g
Encoding: 103 103 74
Width: 572
GlyphClass: 2
Flags: W
LayerCount: 2
Fore
SplineSet
390.5 198 m 128,-1,1
 347 180 347 180 287 180 c 128,-1,2
 227 180 227 180 181 198 c 1,3,-1
 136 154 l 2,4,5
 113 132 113 132 113 104 c 0,6,7
 113 67 113 67 159 67 c 2,8,-1
 383 67 l 2,9,10
 456 67 456 67 497.5 28.5 c 128,-1,11
 539 -10 539 -10 539 -66.5 c 128,-1,12
 539 -123 539 -123 517 -156.5 c 128,-1,13
 495 -190 495 -190 454 -206 c 0,14,15
 383 -233 383 -233 270 -233 c 128,-1,16
 157 -233 157 -233 95.5 -203.5 c 128,-1,17
 34 -174 34 -174 34 -104.5 c 128,-1,18
 34 -35 34 -35 94 8 c 1,19,20
 37 30 37 30 37 94 c 0,21,22
 37 142 37 142 79 184 c 2,23,-1
 127 232 l 1,24,25
 74 284 74 284 74 383 c 0,26,27
 74 463 74 463 115 520 c 0,28,29
 137 550 137 550 180.5 568 c 128,-1,30
 224 586 224 586 281.5 586 c 128,-1,31
 339 586 339 586 379 572 c 1,32,-1
 530 572 l 1,33,-1
 530 515 l 1,34,-1
 459 515 l 1,35,36
 497 463 497 463 497 383 c 256,37,38
 497 303 497 303 456 246 c 0,39,0
 434 216 434 216 390.5 198 c 128,-1,1
157 383 m 128,-1,41
 157 242 157 242 285.5 242 c 128,-1,42
 414 242 414 242 414 383 c 128,-1,43
 414 524 414 524 285.5 524 c 128,-1,40
 157 524 157 524 157 383 c 128,-1,41
156 -148 m 128,-1,45
 197 -164 197 -164 283.5 -164 c 128,-1,46
 370 -164 370 -164 410.5 -146.5 c 128,-1,47
 451 -129 451 -129 451 -73 c 0,48,49
 451 -34 451 -34 422.5 -17 c 128,-1,50
 394 0 394 0 356 0 c 2,51,-1
 156 0 l 1,52,53
 115 -33 115 -33 115 -82.5 c 128,-1,44
 115 -132 115 -132 156 -148 c 128,-1,45
EndSplineSet
EndChar

StartChar: h
Encoding: 104 104 75
Width: 654
GlyphClass: 2
Flags: W
LayerCount: 2
Fore
SplineSet
192 519 m 1,0,1
 287 586 287 586 382.5 586 c 128,-1,2
 478 586 478 586 518 541.5 c 128,-1,3
 558 497 558 497 558 406 c 2,4,-1
 558 0 l 1,5,-1
 472 0 l 1,6,-1
 472 404 l 2,7,8
 472 464 472 464 449 490 c 128,-1,9
 426 516 426 516 372 516 c 0,10,11
 279 516 279 516 192 449 c 1,12,-1
 192 0 l 1,13,-1
 106 0 l 1,14,-1
 106 758 l 1,15,-1
 192 768 l 1,16,-1
 192 519 l 1,0,1
EndSplineSet
EndChar

StartChar: i
Encoding: 105 105 76
Width: 298
GlyphClass: 2
Flags: W
LayerCount: 2
Fore
SplineSet
106 572 m 1,0,-1
 192 572 l 1,1,-1
 192 0 l 1,2,-1
 106 0 l 1,3,-1
 106 572 l 1,0,-1
149 668 m 0,4,5
 98 668 98 668 98 723.5 c 128,-1,6
 98 779 98 779 149 779 c 0,7,8
 202 779 202 779 202 723.5 c 128,-1,9
 202 668 202 668 149 668 c 0,4,5
EndSplineSet
EndChar

StartChar: j
Encoding: 106 106 77
Width: 298
GlyphClass: 2
Flags: W
LayerCount: 2
Fore
SplineSet
28 -158 m 0,0,1
 106 -158 106 -158 106 -67 c 2,2,-1
 106 572 l 1,3,-1
 192 572 l 1,4,-1
 192 -67 l 2,5,6
 192 -226 192 -226 34 -226 c 0,7,8
 -25 -226 -25 -226 -71 -208 c 1,9,-1
 -49 -143 l 1,10,11
 -14 -158 -14 -158 28 -158 c 0,0,1
149 668 m 0,12,13
 98 668 98 668 98 723.5 c 128,-1,14
 98 779 98 779 149 779 c 0,15,16
 202 779 202 779 202 723.5 c 128,-1,17
 202 668 202 668 149 668 c 0,12,13
EndSplineSet
EndChar

StartChar: k
Encoding: 107 107 78
Width: 543
GlyphClass: 2
Flags: W
LayerCount: 2
Fore
SplineSet
192 0 m 1,0,-1
 106 0 l 1,1,-1
 106 758 l 1,2,-1
 192 768 l 1,3,-1
 192 341 l 1,4,-1
 271 341 l 1,5,-1
 432 572 l 1,6,-1
 527 572 l 1,7,-1
 336 302 l 1,8,-1
 545 0 l 1,9,-1
 450 0 l 1,10,-1
 259 277 l 1,11,-1
 192 277 l 1,12,-1
 192 0 l 1,0,-1
EndSplineSet
EndChar

StartChar: l
Encoding: 108 108 79
Width: 298
GlyphClass: 2
Flags: W
LayerCount: 2
Fore
SplineSet
192 0 m 1,0,-1
 106 0 l 1,1,-1
 106 758 l 1,2,-1
 192 770 l 1,3,-1
 192 0 l 1,0,-1
EndSplineSet
EndChar

StartChar: m
Encoding: 109 109 80
Width: 986
GlyphClass: 2
Flags: W
LayerCount: 2
Fore
SplineSet
365 586 m 0,0,1
 481 586 481 586 521 507 c 1,2,3
 558 540 558 540 609.5 563 c 128,-1,4
 661 586 661 586 716 586 c 0,5,6
 890 586 890 586 890 407 c 2,7,-1
 890 0 l 1,8,-1
 804 0 l 1,9,-1
 804 402 l 2,10,11
 804 458 804 458 780 487 c 128,-1,12
 756 516 756 516 702 516 c 0,13,14
 613 516 613 516 538 448 c 1,15,16
 541 428 541 428 541 407 c 2,17,-1
 541 0 l 1,18,-1
 455 0 l 1,19,-1
 455 402 l 2,20,21
 455 458 455 458 431 487 c 128,-1,22
 407 516 407 516 352 516 c 0,23,24
 265 516 265 516 192 453 c 1,25,-1
 192 0 l 1,26,-1
 106 0 l 1,27,-1
 106 572 l 1,28,-1
 159 572 l 1,29,-1
 181 515 l 1,30,31
 265 586 265 586 365 586 c 0,0,1
EndSplineSet
EndChar

StartChar: n
Encoding: 110 110 81
Width: 654
GlyphClass: 2
Flags: W
LayerCount: 2
Fore
SplineSet
181 512 m 1,0,1
 282 586 282 586 380 586 c 128,-1,2
 478 586 478 586 518 541.5 c 128,-1,3
 558 497 558 497 558 406 c 2,4,-1
 558 0 l 1,5,-1
 472 0 l 1,6,-1
 472 404 l 2,7,8
 472 464 472 464 449 490 c 128,-1,9
 426 516 426 516 372 516 c 0,10,11
 279 516 279 516 192 449 c 1,12,-1
 192 0 l 1,13,-1
 106 0 l 1,14,-1
 106 572 l 1,15,-1
 157 572 l 1,16,-1
 181 512 l 1,0,1
EndSplineSet
EndChar

StartChar: o
Encoding: 111 111 82
Width: 604
GlyphClass: 2
Flags: W
LayerCount: 2
Fore
SplineSet
302 56 m 128,-1,1
 352 56 352 56 385.5 74.5 c 128,-1,2
 419 93 419 93 435 127.5 c 128,-1,3
 451 162 451 162 457.5 199.5 c 128,-1,4
 464 237 464 237 464 286 c 128,-1,5
 464 335 464 335 457.5 372.5 c 128,-1,6
 451 410 451 410 435 444.5 c 128,-1,7
 419 479 419 479 385.5 497.5 c 128,-1,8
 352 516 352 516 302 516 c 128,-1,9
 252 516 252 516 218.5 497.5 c 128,-1,10
 185 479 185 479 168.5 444.5 c 128,-1,11
 152 410 152 410 146 373 c 128,-1,12
 140 336 140 336 140 286 c 128,-1,13
 140 236 140 236 146 199 c 128,-1,14
 152 162 152 162 168.5 127.5 c 128,-1,15
 185 93 185 93 218.5 74.5 c 128,-1,0
 252 56 252 56 302 56 c 128,-1,1
302 -14 m 128,-1,17
 54 -14 54 -14 54 286 c 128,-1,18
 54 586 54 586 302 586 c 128,-1,19
 550 586 550 586 550 286 c 128,-1,16
 550 -14 550 -14 302 -14 c 128,-1,17
EndSplineSet
EndChar

StartChar: p
Encoding: 112 112 83
Width: 627
GlyphClass: 2
Flags: W
LayerCount: 2
Fore
SplineSet
357 586 m 0,0,1
 573 586 573 586 573 286 c 128,-1,2
 573 -14 573 -14 349 -14 c 0,3,4
 276 -14 276 -14 192 17 c 1,5,-1
 192 -222 l 1,6,-1
 106 -234 l 1,7,-1
 106 572 l 1,8,-1
 157 572 l 1,9,-1
 177 522 l 1,10,11
 264 586 264 586 357 586 c 0,0,1
452.5 450.5 m 128,-1,13
 418 516 418 516 340 516 c 128,-1,14
 262 516 262 516 192 465 c 1,15,-1
 192 82 l 1,16,17
 254 56 254 56 333 56 c 0,18,19
 487 56 487 56 487 286 c 0,20,12
 487 385 487 385 452.5 450.5 c 128,-1,13
EndSplineSet
EndChar

StartChar: q
Encoding: 113 113 84
Width: 627
GlyphClass: 2
Flags: W
LayerCount: 2
Fore
SplineSet
277 586 m 0,0,1
 375 586 375 586 452 530 c 1,2,-1
 469 572 l 1,3,-1
 521 572 l 1,4,-1
 521 -222 l 1,5,-1
 435 -234 l 1,6,-1
 435 23 l 1,7,8
 352 -14 352 -14 277 -14 c 0,9,10
 54 -14 54 -14 54 286 c 128,-1,11
 54 586 54 586 277 586 c 0,0,1
294 56 m 0,12,13
 368 56 368 56 435 89 c 1,14,-1
 435 473 l 1,15,16
 376 516 376 516 294 516 c 0,17,18
 140 516 140 516 140 286 c 128,-1,19
 140 56 140 56 294 56 c 0,12,13
EndSplineSet
EndChar

StartChar: r
Encoding: 114 114 85
Width: 401
GlyphClass: 2
Flags: W
LayerCount: 2
Fore
SplineSet
192 0 m 1,0,-1
 106 0 l 1,1,-1
 106 572 l 1,2,-1
 157 572 l 1,3,-1
 188 470 l 1,4,5
 258 581 258 581 393 586 c 1,6,-1
 393 507 l 1,7,8
 258 502 258 502 192 393 c 1,9,-1
 192 0 l 1,0,-1
EndSplineSet
EndChar

StartChar: s
Encoding: 115 115 86
Width: 532
GlyphClass: 2
Flags: W
LayerCount: 2
Fore
SplineSet
441.5 260.5 m 128,-1,1
 480 224 480 224 480 151.5 c 128,-1,2
 480 79 480 79 426 34 c 128,-1,3
 372 -11 372 -11 266 -11 c 128,-1,4
 160 -11 160 -11 112.5 29.5 c 128,-1,5
 65 70 65 70 52 147 c 1,6,-1
 122 158 l 1,7,8
 137 57 137 57 259 57 c 0,9,10
 394 57 394 57 394 148 c 0,11,12
 394 188 394 188 369.5 207 c 128,-1,13
 345 226 345 226 282 242 c 2,14,-1
 225 256 l 2,15,16
 138 278 138 278 101.5 314 c 128,-1,17
 65 350 65 350 65 423.5 c 128,-1,18
 65 497 65 497 117 541.5 c 128,-1,19
 169 586 169 586 270.5 586 c 128,-1,20
 372 586 372 586 417.5 545.5 c 128,-1,21
 463 505 463 505 476 428 c 1,22,-1
 405 417 l 1,23,24
 392 518 392 518 277 518 c 0,25,26
 151 518 151 518 151 427 c 0,27,28
 151 387 151 387 174 367.5 c 128,-1,29
 197 348 197 348 255 333 c 2,30,-1
 313 319 l 2,31,0
 403 297 403 297 441.5 260.5 c 128,-1,1
EndSplineSet
EndChar

StartChar: t
Encoding: 116 116 87
Width: 345
GlyphClass: 2
Flags: W
LayerCount: 2
Fore
SplineSet
21 513 m 1,0,-1
 21 572 l 1,1,-1
 119 572 l 1,2,-1
 119 676 l 1,3,-1
 205 710 l 1,4,-1
 205 572 l 1,5,-1
 326 572 l 1,6,-1
 326 513 l 1,7,-1
 205 513 l 1,8,-1
 205 134 l 2,9,10
 205 89 205 89 217.5 70.5 c 128,-1,11
 230 52 230 52 254 52 c 128,-1,12
 278 52 278 52 313 60 c 1,13,-1
 323 2 l 1,14,15
 269 -14 269 -14 231.5 -14 c 128,-1,16
 194 -14 194 -14 170 -2 c 128,-1,17
 146 10 146 10 136 34 c 1,18,19
 119 70 119 70 119 131 c 2,20,-1
 119 513 l 1,21,-1
 21 513 l 1,0,-1
EndSplineSet
EndChar

StartChar: u
Encoding: 117 117 88
Width: 660
GlyphClass: 2
Flags: W
LayerCount: 2
Fore
SplineSet
265 -14 m 0,0,1
 176 -14 176 -14 136 30.5 c 128,-1,2
 96 75 96 75 96 164 c 2,3,-1
 96 572 l 1,4,-1
 182 572 l 1,5,-1
 182 170 l 2,6,7
 182 111 182 111 207.5 83.5 c 128,-1,8
 233 56 233 56 287 56 c 0,9,10
 384 56 384 56 468 155 c 1,11,-1
 468 572 l 1,12,-1
 554 572 l 1,13,-1
 554 0 l 1,14,-1
 497 0 l 1,15,-1
 470 85 l 1,16,17
 377 -14 377 -14 265 -14 c 0,0,1
EndSplineSet
EndChar

StartChar: v
Encoding: 118 118 89
Width: 532
GlyphClass: 2
Flags: W
LayerCount: 2
Fore
SplineSet
313 0 m 1,0,-1
 219 0 l 1,1,-1
 16 572 l 1,2,-1
 103 572 l 1,3,-1
 266 100 l 1,4,-1
 429 572 l 1,5,-1
 516 572 l 1,6,-1
 313 0 l 1,0,-1
EndSplineSet
EndChar

StartChar: w
Encoding: 119 119 90
Width: 745
GlyphClass: 2
Flags: W
LayerCount: 2
Fore
SplineSet
256 0 m 1,0,-1
 167 0 l 1,1,-1
 21 572 l 1,2,-1
 108 572 l 1,3,-1
 218 110 l 1,4,-1
 335 522 l 1,5,-1
 409 522 l 1,6,-1
 527 110 l 1,7,-1
 637 572 l 1,8,-1
 724 572 l 1,9,-1
 578 0 l 1,10,-1
 490 0 l 1,11,-1
 372 400 l 1,12,-1
 256 0 l 1,0,-1
EndSplineSet
EndChar

StartChar: x
Encoding: 120 120 91
Width: 505
GlyphClass: 2
Flags: W
LayerCount: 2
Fore
SplineSet
99 0 m 1,0,-1
 8 0 l 1,1,-1
 204 294 l 1,2,-1
 18 572 l 1,3,-1
 114 572 l 1,4,-1
 256 359 l 1,5,-1
 396 572 l 1,6,-1
 487 572 l 1,7,-1
 302 291 l 1,8,-1
 497 0 l 1,9,-1
 401 0 l 1,10,-1
 249 227 l 1,11,-1
 99 0 l 1,0,-1
EndSplineSet
EndChar

StartChar: y
Encoding: 121 121 92
Width: 543
GlyphClass: 2
Flags: W
LayerCount: 2
Fore
SplineSet
222 -245 m 1,0,-1
 144 -231 l 1,1,-1
 232 -4 l 1,2,-1
 16 572 l 1,3,-1
 105 572 l 1,4,-1
 274 109 l 1,5,-1
 438 572 l 1,6,-1
 526 572 l 1,7,-1
 222 -245 l 1,0,-1
EndSplineSet
EndChar

StartChar: z
Encoding: 122 122 93
Width: 520
GlyphClass: 2
Flags: W
LayerCount: 2
Fore
SplineSet
54 506 m 1,0,-1
 54 572 l 1,1,-1
 465 572 l 1,2,-1
 465 514 l 1,3,-1
 147 66 l 1,4,-1
 478 66 l 1,5,-1
 478 0 l 1,6,-1
 42 0 l 1,7,-1
 42 58 l 1,8,-1
 362 506 l 1,9,-1
 54 506 l 1,0,-1
EndSplineSet
EndChar

StartChar: braceleft
Encoding: 123 123 94
Width: 303
GlyphClass: 2
Flags: W
LayerCount: 2
Fore
SplineSet
174 522 m 1,0,-1
 182 404 l 1,1,2
 182 375 182 375 167.5 357 c 128,-1,3
 153 339 153 339 133 339 c 1,4,-1
 133 333 l 1,5,6
 153 333 153 333 167.5 315.5 c 128,-1,7
 182 298 182 298 182 269 c 1,8,-1
 174 149 l 1,9,10
 174 80 174 80 201.5 42 c 128,-1,11
 229 4 229 4 297 4 c 1,12,-1
 297 -66 l 1,13,14
 84 -66 84 -66 84 137 c 1,15,-1
 92 258 l 1,16,17
 92 284 92 284 69 295 c 128,-1,18
 46 306 46 306 19 306 c 1,19,-1
 19 364 l 1,20,21
 46 364 46 364 69 375 c 128,-1,22
 92 386 92 386 92 412 c 1,23,24
 92 412 92 412 84 533 c 1,25,26
 84 736 84 736 297 736 c 1,27,-1
 297 666 l 1,28,29
 229 666 229 666 201.5 628.5 c 128,-1,30
 174 591 174 591 174 522 c 1,0,-1
EndSplineSet
EndChar

StartChar: bar
Encoding: 124 124 95
Width: 325
GlyphClass: 2
Flags: W
LayerCount: 2
Fore
SplineSet
114 -106 m 1,0,-1
 114 775 l 1,1,-1
 211 775 l 1,2,-1
 211 -106 l 1,3,-1
 114 -106 l 1,0,-1
EndSplineSet
EndChar

StartChar: braceright
Encoding: 125 125 96
Width: 303
GlyphClass: 2
Flags: W
LayerCount: 2
Fore
SplineSet
129 150 m 1,0,-1
 121 270 l 1,1,2
 121 299 121 299 135.5 317 c 128,-1,3
 150 335 150 335 170 335 c 1,4,-1
 170 341 l 1,5,6
 150 341 150 341 135.5 358.5 c 128,-1,7
 121 376 121 376 121 406 c 1,8,-1
 129 526 l 1,9,10
 129 593 129 593 101.5 629.5 c 128,-1,11
 74 666 74 666 6 666 c 1,12,-1
 6 736 l 1,13,14
 219 736 219 736 219 533 c 1,15,-1
 211 412 l 1,16,17
 211 386 211 386 234 375 c 128,-1,18
 257 364 257 364 284 364 c 1,19,-1
 284 306 l 1,20,21
 257 306 257 306 234 295 c 128,-1,22
 211 284 211 284 211 258 c 1,23,24
 211 258 211 258 219 137 c 1,25,26
 219 -66 219 -66 6 -66 c 1,27,-1
 6 4 l 1,28,29
 74 4 74 4 101.5 42 c 128,-1,30
 129 80 129 80 129 150 c 1,0,-1
EndSplineSet
EndChar

StartChar: asciitilde
Encoding: 126 126 97
Width: 580
GlyphClass: 2
Flags: W
LayerCount: 2
Fore
SplineSet
92 352 m 1,0,1
 126 328 126 328 169.5 328 c 128,-1,2
 213 328 213 328 289.5 349.5 c 128,-1,3
 366 371 366 371 408.5 371 c 128,-1,4
 451 371 451 371 488 352 c 1,5,-1
 488 284 l 1,6,7
 450 305 450 305 408 305 c 128,-1,8
 366 305 366 305 289.5 283.5 c 128,-1,9
 213 262 213 262 171 262 c 128,-1,10
 129 262 129 262 92 284 c 1,11,-1
 92 352 l 1,0,1
EndSplineSet
EndChar

StartChar: exclamdown
Encoding: 161 161 99
Width: 312
GlyphClass: 2
Flags: W
LayerCount: 2
Fore
SplineSet
120 576 m 128,-1,1
 133 586 133 586 161.5 586 c 128,-1,2
 190 586 190 586 200 569.5 c 128,-1,3
 210 553 210 553 210 530 c 128,-1,4
 210 507 210 507 207.5 495.5 c 128,-1,5
 205 484 205 484 192.5 473.5 c 128,-1,6
 180 463 180 463 151 463 c 128,-1,7
 122 463 122 463 112 479.5 c 128,-1,8
 102 496 102 496 102 519.5 c 128,-1,9
 102 543 102 543 104.5 554.5 c 128,-1,0
 107 566 107 566 120 576 c 128,-1,1
205 -152 m 1,10,-1
 108 -152 l 1,11,-1
 108 12 l 1,12,-1
 130 387 l 1,13,-1
 183 387 l 1,14,-1
 205 12 l 1,15,-1
 205 -152 l 1,10,-1
EndSplineSet
EndChar

StartChar: cent
Encoding: 162 162 100
Width: 631
GlyphClass: 2
Flags: W
LayerCount: 2
Fore
SplineSet
373 -81 m 1,0,-1
 313 -81 l 1,1,-1
 313 39 l 1,2,3
 256 42 256 42 214.5 62 c 128,-1,4
 173 82 173 82 149 111 c 128,-1,5
 125 140 125 140 110 184 c 0,6,7
 87 254 87 254 87 365 c 0,8,9
 87 474 87 474 105 529.5 c 128,-1,10
 123 585 123 585 147 614 c 128,-1,11
 171 643 171 643 213 664 c 128,-1,12
 255 685 255 685 313 690 c 1,13,-1
 313 810 l 1,14,-1
 373 810 l 1,15,-1
 373 691 l 1,16,17
 471 686 471 686 514.5 630.5 c 128,-1,18
 558 575 558 575 565 483 c 1,19,-1
 496 479 l 1,20,21
 489 621 489 621 355 621 c 0,22,23
 306 621 306 621 271 606.5 c 128,-1,24
 236 592 236 592 217.5 570.5 c 128,-1,25
 199 549 199 549 188.5 512.5 c 128,-1,26
 178 476 178 476 175.5 444.5 c 128,-1,27
 173 413 173 413 173 366 c 128,-1,28
 173 319 173 319 176 286 c 128,-1,29
 179 253 179 253 189 217.5 c 128,-1,30
 199 182 199 182 216 160 c 0,31,32
 257 109 257 109 343 109 c 128,-1,33
 429 109 429 109 465.5 141 c 128,-1,34
 502 173 502 173 504 236 c 1,35,-1
 573 232 l 1,36,37
 566 144 566 144 521.5 95 c 128,-1,38
 477 46 477 46 373 39 c 1,39,-1
 373 -81 l 1,0,-1
EndSplineSet
EndChar

StartChar: sterling
Encoding: 163 163 101
Width: 630
GlyphClass: 2
Flags: W
LayerCount: 2
Fore
SplineSet
68 314 m 1,0,-1
 68 375 l 1,1,-1
 139 375 l 1,2,-1
 139 530 l 2,3,4
 139 636 139 636 187 690 c 128,-1,5
 235 744 235 744 349.5 744 c 128,-1,6
 464 744 464 744 513.5 692 c 128,-1,7
 563 640 563 640 563 530 c 1,8,-1
 487 525 l 1,9,10
 487 602 487 602 455 637.5 c 128,-1,11
 423 673 423 673 351.5 673 c 128,-1,12
 280 673 280 673 253.5 638 c 128,-1,13
 227 603 227 603 227 530 c 2,14,-1
 227 375 l 1,15,-1
 479 375 l 1,16,-1
 479 314 l 1,17,-1
 227 314 l 1,18,-1
 227 194 l 2,19,20
 227 146 227 146 216.5 119.5 c 128,-1,21
 206 93 206 93 178 71 c 1,22,-1
 580 71 l 1,23,-1
 580 0 l 1,24,-1
 85 0 l 1,25,-1
 85 65 l 1,26,27
 139 111 139 111 139 182 c 2,28,-1
 139 314 l 1,29,-1
 68 314 l 1,0,-1
EndSplineSet
EndChar

StartChar: currency
Encoding: 164 164 102
Width: 630
GlyphClass: 2
Flags: W
LayerCount: 2
Fore
SplineSet
188 534 m 1,0,1
 242 575 242 575 320.5 575 c 128,-1,2
 399 575 399 575 447 540 c 1,3,-1
 532 624 l 1,4,-1
 574 582 l 1,5,-1
 489 497 l 1,6,7
 525 444 525 444 525 365.5 c 128,-1,8
 525 287 525 287 488 234 c 1,9,-1
 574 148 l 1,10,-1
 532 106 l 1,11,-1
 445 191 l 1,12,13
 393 155 393 155 314.5 155 c 128,-1,14
 236 155 236 155 186 194 c 1,15,-1
 98 106 l 1,16,-1
 56 148 l 1,17,-1
 146 239 l 1,18,19
 115 290 115 290 115 365 c 128,-1,20
 115 440 115 440 147 490 c 1,21,-1
 56 582 l 1,22,-1
 98 624 l 1,23,-1
 188 534 l 1,0,1
220.5 267.5 m 128,-1,25
 249 228 249 228 317 228 c 128,-1,26
 385 228 385 228 416.5 267.5 c 128,-1,27
 448 307 448 307 448 365 c 128,-1,28
 448 423 448 423 419 462.5 c 128,-1,29
 390 502 390 502 322 502 c 128,-1,30
 254 502 254 502 223 462.5 c 128,-1,31
 192 423 192 423 192 365 c 128,-1,24
 192 307 192 307 220.5 267.5 c 128,-1,25
EndSplineSet
EndChar

StartChar: yen
Encoding: 165 165 103
Width: 630
GlyphClass: 2
Flags: W
LayerCount: 2
Fore
SplineSet
81 387 m 1,0,-1
 81 447 l 1,1,-1
 196 447 l 1,2,-1
 49 730 l 1,3,-1
 141 730 l 1,4,-1
 315 382 l 1,5,-1
 490 730 l 1,6,-1
 581 730 l 1,7,-1
 434 447 l 1,8,-1
 551 447 l 1,9,-1
 551 387 l 1,10,-1
 403 387 l 1,11,-1
 359 302 l 1,12,-1
 551 302 l 1,13,-1
 551 241 l 1,14,-1
 358 241 l 1,15,-1
 358 0 l 1,16,-1
 272 0 l 1,17,-1
 272 241 l 1,18,-1
 81 241 l 1,19,-1
 81 302 l 1,20,-1
 271 302 l 1,21,-1
 227 387 l 1,22,-1
 81 387 l 1,0,-1
EndSplineSet
EndChar

StartChar: brokenbar
Encoding: 166 166 104
Width: 325
GlyphClass: 2
Flags: W
LayerCount: 2
Fore
SplineSet
114 439 m 1,0,-1
 114 775 l 1,1,-1
 211 775 l 1,2,-1
 211 439 l 1,3,-1
 114 439 l 1,0,-1
114 -106 m 1,4,-1
 114 230 l 1,5,-1
 211 230 l 1,6,-1
 211 -106 l 1,7,-1
 114 -106 l 1,4,-1
EndSplineSet
EndChar

StartChar: section
Encoding: 167 167 105
Width: 491
GlyphClass: 2
Flags: W
LayerCount: 2
Fore
SplineSet
455 204 m 0,0,1
 455 81 455 81 325 32 c 1,2,3
 383 -42 383 -42 383 -110.5 c 128,-1,4
 383 -179 383 -179 329 -229.5 c 128,-1,5
 275 -280 275 -280 190 -301 c 1,6,-1
 172 -235 l 1,7,8
 222 -222 222 -222 259 -193.5 c 128,-1,9
 296 -165 296 -165 296 -128 c 128,-1,10
 296 -91 296 -91 284 -66.5 c 128,-1,11
 272 -42 272 -42 242 -6 c 2,12,-1
 109 153 l 2,13,14
 36 239 36 239 36 312 c 0,15,16
 36 435 36 435 166 485 c 1,17,18
 108 561 108 561 108 628.5 c 128,-1,19
 108 696 108 696 161.5 746 c 128,-1,20
 215 796 215 796 301 818 c 1,21,-1
 319 751 l 1,22,23
 269 738 269 738 232 709.5 c 128,-1,24
 195 681 195 681 195 644.5 c 128,-1,25
 195 608 195 608 206.5 583.5 c 128,-1,26
 218 559 218 559 247 525 c 2,27,-1
 382 364 l 2,28,29
 455 278 455 278 455 204 c 0,0,1
368 187 m 0,30,31
 368 222 368 222 356.5 247 c 128,-1,32
 345 272 345 272 314 308 c 2,33,-1
 212 430 l 1,34,35
 123 397 123 397 123 330 c 0,36,37
 123 294 123 294 134 270 c 128,-1,38
 145 246 145 246 175 211 c 2,39,-1
 279 87 l 1,40,41
 368 119 368 119 368 187 c 0,30,31
EndSplineSet
EndChar

StartChar: dieresis
Encoding: 168 168 106
Width: 324
GlyphClass: 2
Flags: W
LayerCount: 2
Fore
SplineSet
90 676.5 m 128,-1,1
 78 667 78 667 55.5 667 c 128,-1,2
 33 667 33 667 21.5 676.5 c 128,-1,3
 10 686 10 686 8 696 c 128,-1,4
 6 706 6 706 6 723 c 128,-1,5
 6 740 6 740 8 750.5 c 128,-1,6
 10 761 10 761 21.5 770.5 c 128,-1,7
 33 780 33 780 60.5 780 c 128,-1,8
 88 780 88 780 97 765 c 128,-1,9
 106 750 106 750 106 728 c 128,-1,10
 106 706 106 706 104 696 c 128,-1,0
 102 686 102 686 90 676.5 c 128,-1,1
302 676.5 m 128,-1,12
 290 667 290 667 267.5 667 c 128,-1,13
 245 667 245 667 233.5 676.5 c 128,-1,14
 222 686 222 686 220 696 c 128,-1,15
 218 706 218 706 218 723 c 128,-1,16
 218 740 218 740 220 750.5 c 128,-1,17
 222 761 222 761 233.5 770.5 c 128,-1,18
 245 780 245 780 272.5 780 c 128,-1,19
 300 780 300 780 309 765 c 128,-1,20
 318 750 318 750 318 728 c 128,-1,21
 318 706 318 706 316 696 c 128,-1,11
 314 686 314 686 302 676.5 c 128,-1,12
EndSplineSet
EndChar

StartChar: copyright
Encoding: 169 169 107
Width: 729
GlyphClass: 2
Flags: W
LayerCount: 2
Fore
SplineSet
362 723 m 0,0,1
 309 723 309 723 286.5 682.5 c 128,-1,2
 264 642 264 642 264 560 c 128,-1,3
 264 478 264 478 285 438.5 c 128,-1,4
 306 399 306 399 363 399 c 0,5,6
 403 399 403 399 423.5 423 c 128,-1,7
 444 447 444 447 446 488 c 1,8,-1
 494 486 l 1,9,10
 486 352 486 352 362 352 c 0,11,12
 275 352 275 352 240.5 404 c 128,-1,13
 206 456 206 456 206 560.5 c 128,-1,14
 206 665 206 665 241.5 717 c 128,-1,15
 277 769 277 769 361 769 c 0,16,17
 482 769 482 769 493 652 c 1,18,-1
 444 649 l 1,19,20
 436 723 436 723 362 723 c 0,0,1
65 560 m 128,-1,22
 65 706 65 706 142 783 c 128,-1,23
 219 860 219 860 364.5 860 c 128,-1,24
 510 860 510 860 587 783 c 128,-1,25
 664 706 664 706 664 560.5 c 128,-1,26
 664 415 664 415 587 338 c 128,-1,27
 510 261 510 261 364 261 c 128,-1,28
 218 261 218 261 141.5 337.5 c 128,-1,21
 65 414 65 414 65 560 c 128,-1,22
119 560.5 m 128,-1,30
 119 310 119 310 364.5 310 c 128,-1,31
 610 310 610 310 610 560.5 c 128,-1,32
 610 811 610 811 364.5 811 c 128,-1,29
 119 811 119 811 119 560.5 c 128,-1,30
EndSplineSet
EndChar

StartChar: ordfeminine
Encoding: 170 170 108
Width: 433
GlyphClass: 2
Flags: W
LayerCount: 2
Fore
SplineSet
214 760 m 0,0,1
 282 760 282 760 321.5 729.5 c 128,-1,2
 361 699 361 699 361 620 c 2,3,-1
 361 350 l 1,4,-1
 310 350 l 1,5,-1
 289 405 l 1,6,7
 226 340 226 340 150 340 c 0,8,9
 96 340 96 340 70 369 c 128,-1,10
 44 398 44 398 44 447 c 128,-1,11
 44 496 44 496 75 526 c 128,-1,12
 106 556 106 556 190 569 c 2,13,-1
 283 584 l 1,14,-1
 283 620 l 2,15,16
 283 699 283 699 212 699 c 128,-1,17
 141 699 141 699 129 631 c 1,18,-1
 68 650 l 1,19,20
 92 760 92 760 214 760 c 0,0,1
121 449 m 0,21,22
 121 398 121 398 174.5 398 c 128,-1,23
 228 398 228 398 283 455 c 1,24,-1
 283 533 l 1,25,-1
 201 519 l 2,26,27
 154 511 154 511 137.5 493 c 128,-1,28
 121 475 121 475 121 449 c 0,21,22
36 228 m 1,29,-1
 36 279 l 1,30,-1
 372 279 l 1,31,-1
 372 228 l 1,32,-1
 36 228 l 1,29,-1
EndSplineSet
EndChar

StartChar: guillemotleft
Encoding: 171 171 109
Width: 524
GlyphClass: 2
Flags: W
LayerCount: 2
Fore
SplineSet
251 470 m 1,0,-1
 129 315 l 1,1,-1
 251 160 l 1,2,-1
 199 109 l 1,3,-1
 28 297 l 1,4,-1
 28 333 l 1,5,-1
 199 521 l 1,6,-1
 251 470 l 1,0,-1
470 470 m 1,7,-1
 348 315 l 1,8,-1
 470 160 l 1,9,-1
 418 109 l 1,10,-1
 247 297 l 1,11,-1
 247 333 l 1,12,-1
 418 521 l 1,13,-1
 470 470 l 1,7,-1
EndSplineSet
EndChar

StartChar: logicalnot
Encoding: 172 172 110
Width: 580
GlyphClass: 2
Flags: W
LayerCount: 2
Fore
SplineSet
92 284 m 1,0,-1
 92 352 l 1,1,-1
 488 352 l 1,2,-1
 488 146 l 1,3,-1
 424 146 l 1,4,-1
 424 284 l 1,5,-1
 92 284 l 1,0,-1
EndSplineSet
EndChar

StartChar: registered
Encoding: 174 174 111
Width: 729
GlyphClass: 2
Flags: W
LayerCount: 2
Fore
SplineSet
65 560 m 128,-1,1
 65 706 65 706 142 783 c 128,-1,2
 219 860 219 860 364.5 860 c 128,-1,3
 510 860 510 860 587 783 c 128,-1,4
 664 706 664 706 664 560.5 c 128,-1,5
 664 415 664 415 587 338 c 128,-1,6
 510 261 510 261 364 261 c 128,-1,7
 218 261 218 261 141.5 337.5 c 128,-1,0
 65 414 65 414 65 560 c 128,-1,1
119 560.5 m 128,-1,9
 119 310 119 310 364.5 310 c 128,-1,10
 610 310 610 310 610 560.5 c 128,-1,11
 610 811 610 811 364.5 811 c 128,-1,8
 119 811 119 811 119 560.5 c 128,-1,9
245 762 m 1,12,-1
 370 762 l 2,13,14
 450 762 450 762 476 720 c 0,15,16
 496 688 496 688 496 643 c 0,17,18
 496 550 496 550 429 531 c 1,19,20
 443 518 443 518 453 496 c 2,21,-1
 513 360 l 1,22,-1
 451 360 l 1,23,-1
 395 490 l 1,24,25
 382 523 382 523 345 523 c 2,26,-1
 303 523 l 1,27,-1
 303 360 l 1,28,-1
 245 360 l 1,29,-1
 245 762 l 1,12,-1
303 568 m 1,30,-1
 369 568 l 2,31,32
 438 568 438 568 438 642 c 128,-1,33
 438 716 438 716 369 716 c 2,34,-1
 303 716 l 1,35,-1
 303 568 l 1,30,-1
EndSplineSet
EndChar

StartChar: macron
Encoding: 175 175 112
Width: 354
GlyphClass: 2
Flags: W
LayerCount: 2
Fore
SplineSet
48 688 m 1,0,-1
 48 761 l 1,1,-1
 306 761 l 1,2,-1
 306 688 l 1,3,-1
 48 688 l 1,0,-1
EndSplineSet
EndChar

StartChar: degree
Encoding: 176 176 113
Width: 421
GlyphClass: 2
Flags: W
LayerCount: 2
Fore
SplineSet
210 401 m 128,-1,1
 242 401 242 401 261.5 410 c 128,-1,2
 281 419 281 419 289.5 439 c 128,-1,3
 298 459 298 459 300 476.5 c 128,-1,4
 302 494 302 494 302 525 c 128,-1,5
 302 556 302 556 300 573.5 c 128,-1,6
 298 591 298 591 289.5 611 c 128,-1,7
 281 631 281 631 261.5 640 c 128,-1,8
 242 649 242 649 210 649 c 128,-1,9
 178 649 178 649 158.5 640 c 128,-1,10
 139 631 139 631 130.5 611 c 128,-1,11
 122 591 122 591 120 573.5 c 128,-1,12
 118 556 118 556 118 525 c 128,-1,13
 118 494 118 494 120 476.5 c 128,-1,14
 122 459 122 459 130.5 439 c 128,-1,15
 139 419 139 419 158.5 410 c 128,-1,0
 178 401 178 401 210 401 c 128,-1,1
210 340 m 128,-1,17
 166 340 166 340 134.5 350.5 c 128,-1,18
 103 361 103 361 85.5 377 c 128,-1,19
 68 393 68 393 58 419 c 0,20,21
 42 461 42 461 42 514 c 128,-1,22
 42 567 42 567 47.5 595.5 c 128,-1,23
 53 624 53 624 69 652 c 0,24,25
 101 710 101 710 210 710 c 0,26,27
 320 710 320 710 352 652 c 0,28,29
 368 624 368 624 373.5 595.5 c 128,-1,30
 379 567 379 567 379 529.5 c 128,-1,31
 379 492 379 492 376 468.5 c 128,-1,32
 373 445 373 445 363 419 c 128,-1,33
 353 393 353 393 335.5 377 c 128,-1,34
 318 361 318 361 286 350.5 c 128,-1,16
 254 340 254 340 210 340 c 128,-1,17
EndSplineSet
EndChar

StartChar: plusminus
Encoding: 177 177 114
Width: 580
GlyphClass: 2
Flags: W
LayerCount: 2
Fore
SplineSet
92 334 m 1,0,-1
 92 402 l 1,1,-1
 256 402 l 1,2,-1
 256 566 l 1,3,-1
 324 566 l 1,4,-1
 324 402 l 1,5,-1
 488 402 l 1,6,-1
 488 334 l 1,7,-1
 324 334 l 1,8,-1
 324 170 l 1,9,-1
 256 170 l 1,10,-1
 256 334 l 1,11,-1
 92 334 l 1,0,-1
92 0 m 1,12,-1
 92 68 l 1,13,-1
 488 68 l 1,14,-1
 488 0 l 1,15,-1
 92 0 l 1,12,-1
EndSplineSet
EndChar

StartChar: twosuperior
Encoding: 178 178 115
Width: 391
GlyphClass: 2
Flags: W
LayerCount: 2
Fore
SplineSet
196 754 m 0,0,1
 260 754 260 754 293.5 723 c 128,-1,2
 327 692 327 692 327 639 c 128,-1,3
 327 586 327 586 262 514 c 1,4,-1
 157 401 l 1,5,-1
 334 401 l 1,6,-1
 334 340 l 1,7,-1
 53 340 l 1,8,-1
 53 387 l 1,9,-1
 200 546 l 2,10,11
 251 602 251 602 251 639 c 0,12,13
 251 663 251 663 235.5 678 c 128,-1,14
 220 693 220 693 190 693 c 0,15,16
 131 693 131 693 125 637 c 1,17,-1
 58 644 l 1,18,19
 69 754 69 754 196 754 c 0,0,1
EndSplineSet
EndChar

StartChar: threesuperior
Encoding: 179 179 116
Width: 391
GlyphClass: 2
Flags: W
LayerCount: 2
Fore
SplineSet
119 451 m 1,0,1
 124 390 124 390 193.5 390 c 128,-1,2
 263 390 263 390 263 449 c 0,3,4
 263 479 263 479 243.5 498 c 128,-1,5
 224 517 224 517 185 517 c 2,6,-1
 163 517 l 1,7,-1
 163 564 l 1,8,-1
 186 564 l 2,9,10
 222 564 222 564 240.5 583.5 c 128,-1,11
 259 603 259 603 259 632 c 0,12,13
 259 694 259 694 195 694 c 0,14,15
 167 694 167 694 149 678.5 c 128,-1,16
 131 663 131 663 128 636 c 1,17,-1
 61 645 l 1,18,19
 68 754 68 754 197 754 c 0,20,21
 264 754 264 754 299.5 721 c 128,-1,22
 335 688 335 688 335 629 c 128,-1,23
 335 570 335 570 269 542 c 1,24,25
 340 518 340 518 340 445 c 0,26,27
 340 395 340 395 300.5 363.5 c 128,-1,28
 261 332 261 332 196 332 c 0,29,30
 63 332 63 332 53 442 c 1,31,-1
 119 451 l 1,0,1
EndSplineSet
EndChar

StartChar: acute
Encoding: 180 180 117
Width: 310
GlyphClass: 2
Flags: W
LayerCount: 2
Fore
SplineSet
85 625 m 1,0,-1
 46 671 l 1,1,-1
 214 827 l 1,2,-1
 268 763 l 1,3,-1
 85 625 l 1,0,-1
EndSplineSet
EndChar

StartChar: mu
Encoding: 181 181 118
Width: 637
GlyphClass: 2
Flags: W
LayerCount: 2
Fore
SplineSet
200 -227 m 1,0,-1
 114 -227 l 1,1,-1
 114 572 l 1,2,-1
 200 572 l 1,3,-1
 200 130 l 1,4,5
 287 56 287 56 384 56 c 0,6,7
 444 56 444 56 468 82.5 c 128,-1,8
 492 109 492 109 492 170 c 2,9,-1
 492 572 l 1,10,-1
 578 572 l 1,11,-1
 578 164 l 2,12,13
 578 73 578 73 539.5 29.5 c 128,-1,14
 501 -14 501 -14 400.5 -14 c 128,-1,15
 300 -14 300 -14 200 59 c 1,16,-1
 200 -227 l 1,0,-1
EndSplineSet
EndChar

StartChar: paragraph
Encoding: 182 182 119
Width: 495
GlyphClass: 2
Flags: W
LayerCount: 2
Fore
SplineSet
369 0 m 1,0,-1
 281 0 l 1,1,-1
 281 281 l 1,2,-1
 224 281 l 2,3,4
 124 281 124 281 75 336.5 c 128,-1,5
 26 392 26 392 26 475.5 c 128,-1,6
 26 559 26 559 75 614.5 c 128,-1,7
 124 670 124 670 224 670 c 2,8,-1
 369 670 l 1,9,-1
 369 0 l 1,0,-1
EndSplineSet
EndChar

StartChar: periodcentered
Encoding: 183 183 120
Width: 228
GlyphClass: 2
Flags: W
LayerCount: 2
Fore
SplineSet
150 267 m 128,-1,1
 137 257 137 257 113.5 257 c 128,-1,2
 90 257 90 257 77.5 267 c 128,-1,3
 65 277 65 277 62.5 288.5 c 128,-1,4
 60 300 60 300 60 315.5 c 128,-1,5
 60 331 60 331 61.5 340 c 128,-1,6
 63 349 63 349 68 360 c 0,7,8
 76 380 76 380 112 380 c 128,-1,9
 148 380 148 380 158 363.5 c 128,-1,10
 168 347 168 347 168 323.5 c 128,-1,11
 168 300 168 300 165.5 288.5 c 128,-1,0
 163 277 163 277 150 267 c 128,-1,1
EndSplineSet
EndChar

StartChar: cedilla
Encoding: 184 184 121
Width: 295
GlyphClass: 2
Flags: W
LayerCount: 2
Fore
SplineSet
44 -142 m 1,0,-1
 110 -142 l 1,1,2
 110 -157 110 -157 112 -165 c 0,3,4
 117 -185 117 -185 146 -185 c 128,-1,5
 175 -185 175 -185 182 -174.5 c 128,-1,6
 189 -164 189 -164 189 -142 c 128,-1,7
 189 -120 189 -120 179.5 -109.5 c 128,-1,8
 170 -99 170 -99 145 -95 c 2,9,-1
 91 -85 l 1,10,-1
 98 -50 l 1,11,-1
 140 -50 l 2,12,13
 196 -50 196 -50 223.5 -69 c 128,-1,14
 251 -88 251 -88 251 -139.5 c 128,-1,15
 251 -191 251 -191 228.5 -216 c 128,-1,16
 206 -241 206 -241 147.5 -241 c 128,-1,17
 89 -241 89 -241 66.5 -215.5 c 128,-1,18
 44 -190 44 -190 44 -142 c 1,0,-1
EndSplineSet
EndChar

StartChar: onesuperior
Encoding: 185 185 122
Width: 391
GlyphClass: 2
Flags: W
LayerCount: 2
Fore
SplineSet
86 669 m 1,0,-1
 86 715 l 1,1,2
 152 721 152 721 185 745 c 1,3,-1
 247 745 l 1,4,-1
 247 340 l 1,5,-1
 168 340 l 1,6,-1
 168 669 l 1,7,-1
 86 669 l 1,0,-1
EndSplineSet
EndChar

StartChar: ordmasculine
Encoding: 186 186 123
Width: 421
GlyphClass: 2
Flags: W
LayerCount: 2
Fore
SplineSet
42 228 m 1,0,-1
 42 279 l 1,1,-1
 378 279 l 1,2,-1
 378 228 l 1,3,-1
 42 228 l 1,0,-1
131.5 440.5 m 128,-1,5
 152 402 152 402 210.5 402 c 128,-1,6
 269 402 269 402 289.5 440.5 c 128,-1,7
 310 479 310 479 310 550 c 128,-1,8
 310 621 310 621 289.5 660 c 128,-1,9
 269 699 269 699 210.5 699 c 128,-1,10
 152 699 152 699 131.5 660 c 128,-1,11
 111 621 111 621 111 550 c 128,-1,4
 111 479 111 479 131.5 440.5 c 128,-1,5
389 550 m 128,-1,13
 389 340 389 340 210.5 340 c 128,-1,14
 32 340 32 340 32 550 c 128,-1,15
 32 760 32 760 210.5 760 c 128,-1,12
 389 760 389 760 389 550 c 128,-1,13
EndSplineSet
EndChar

StartChar: guillemotright
Encoding: 187 187 124
Width: 524
GlyphClass: 2
Flags: W
LayerCount: 2
Fore
SplineSet
249 160 m 1,0,-1
 371 315 l 1,1,-1
 249 470 l 1,2,-1
 301 521 l 1,3,-1
 472 333 l 1,4,-1
 472 297 l 1,5,-1
 301 109 l 1,6,-1
 249 160 l 1,0,-1
30 160 m 1,7,-1
 152 315 l 1,8,-1
 30 470 l 1,9,-1
 82 521 l 1,10,-1
 253 333 l 1,11,-1
 253 297 l 1,12,-1
 82 109 l 1,13,-1
 30 160 l 1,7,-1
EndSplineSet
EndChar

StartChar: onequarter
Encoding: 188 188 125
Width: 980
GlyphClass: 2
Flags: W
LayerCount: 2
Fore
SplineSet
854 0 m 1,0,-1
 782 0 l 1,1,-1
 782 79 l 1,2,-1
 584 79 l 1,3,-1
 584 135 l 1,4,-1
 739 405 l 1,5,-1
 854 405 l 1,6,-1
 854 139 l 1,7,-1
 897 139 l 1,8,-1
 897 79 l 1,9,-1
 854 79 l 1,10,-1
 854 0 l 1,0,-1
782 139 m 1,11,-1
 782 354 l 1,12,-1
 660 139 l 1,13,-1
 782 139 l 1,11,-1
93 655 m 1,14,-1
 93 701 l 1,15,16
 159 707 159 707 192 731 c 1,17,-1
 254 731 l 1,18,-1
 254 326 l 1,19,-1
 175 326 l 1,20,-1
 175 655 l 1,21,-1
 93 655 l 1,14,-1
341 -36 m 1,22,-1
 555 765 l 1,23,-1
 616 765 l 1,24,-1
 401 -36 l 1,25,-1
 341 -36 l 1,22,-1
EndSplineSet
EndChar

StartChar: onehalf
Encoding: 189 189 126
Width: 980
GlyphClass: 2
Flags: W
LayerCount: 2
Fore
SplineSet
333 -36 m 1,0,-1
 547 765 l 1,1,-1
 608 765 l 1,2,-1
 393 -36 l 1,3,-1
 333 -36 l 1,0,-1
754 414 m 0,4,5
 818 414 818 414 851.5 383 c 128,-1,6
 885 352 885 352 885 299 c 128,-1,7
 885 246 885 246 820 174 c 1,8,-1
 715 61 l 1,9,-1
 892 61 l 1,10,-1
 892 0 l 1,11,-1
 611 0 l 1,12,-1
 611 47 l 1,13,-1
 758 206 l 2,14,15
 809 262 809 262 809 299 c 0,16,17
 809 323 809 323 793.5 338 c 128,-1,18
 778 353 778 353 748 353 c 0,19,20
 689 353 689 353 683 297 c 1,21,-1
 616 304 l 1,22,23
 627 414 627 414 754 414 c 0,4,5
93 655 m 1,24,-1
 93 701 l 1,25,26
 159 707 159 707 192 731 c 1,27,-1
 254 731 l 1,28,-1
 254 326 l 1,29,-1
 175 326 l 1,30,-1
 175 655 l 1,31,-1
 93 655 l 1,24,-1
EndSplineSet
EndChar

StartChar: threequarters
Encoding: 190 190 127
Width: 980
GlyphClass: 2
Flags: W
LayerCount: 2
Fore
SplineSet
854 0 m 1,0,-1
 782 0 l 1,1,-1
 782 79 l 1,2,-1
 584 79 l 1,3,-1
 584 135 l 1,4,-1
 739 405 l 1,5,-1
 854 405 l 1,6,-1
 854 139 l 1,7,-1
 897 139 l 1,8,-1
 897 79 l 1,9,-1
 854 79 l 1,10,-1
 854 0 l 1,0,-1
782 139 m 1,11,-1
 782 354 l 1,12,-1
 660 139 l 1,13,-1
 782 139 l 1,11,-1
126 437 m 1,14,15
 131 376 131 376 200.5 376 c 128,-1,16
 270 376 270 376 270 435 c 0,17,18
 270 465 270 465 250.5 484 c 128,-1,19
 231 503 231 503 192 503 c 2,20,-1
 170 503 l 1,21,-1
 170 550 l 1,22,-1
 193 550 l 2,23,24
 229 550 229 550 247.5 569.5 c 128,-1,25
 266 589 266 589 266 618 c 0,26,27
 266 680 266 680 202 680 c 0,28,29
 174 680 174 680 156 664.5 c 128,-1,30
 138 649 138 649 135 622 c 1,31,-1
 68 631 l 1,32,33
 75 740 75 740 204 740 c 0,34,35
 271 740 271 740 306.5 707 c 128,-1,36
 342 674 342 674 342 615 c 128,-1,37
 342 556 342 556 276 528 c 1,38,39
 347 504 347 504 347 431 c 0,40,41
 347 381 347 381 307.5 349.5 c 128,-1,42
 268 318 268 318 203 318 c 0,43,44
 70 318 70 318 60 428 c 1,45,-1
 126 437 l 1,14,15
361 -36 m 1,46,-1
 575 765 l 1,47,-1
 636 765 l 1,48,-1
 421 -36 l 1,49,-1
 361 -36 l 1,46,-1
EndSplineSet
EndChar

StartChar: questiondown
Encoding: 191 191 128
Width: 480
GlyphClass: 2
Flags: W
LayerCount: 2
Fore
SplineSet
234 576 m 128,-1,1
 247 586 247 586 270.5 586 c 128,-1,2
 294 586 294 586 306.5 576 c 128,-1,3
 319 566 319 566 321.5 554.5 c 128,-1,4
 324 543 324 543 324 527.5 c 128,-1,5
 324 512 324 512 322.5 503 c 128,-1,6
 321 494 321 494 316 484 c 1,7,8
 308 463 308 463 272.5 463 c 128,-1,9
 237 463 237 463 226.5 480 c 128,-1,10
 216 497 216 497 216 520 c 128,-1,11
 216 543 216 543 218.5 554.5 c 128,-1,0
 221 566 221 566 234 576 c 128,-1,1
391 -125 m 128,-1,13
 340 -166 340 -166 244.5 -166 c 128,-1,14
 149 -166 149 -166 92.5 -104.5 c 128,-1,15
 36 -43 36 -43 36 43 c 0,16,17
 36 197 36 197 232 265 c 1,18,-1
 243 387 l 1,19,-1
 298 387 l 1,20,-1
 306 235 l 1,21,22
 209 203 209 203 164.5 157.5 c 128,-1,23
 120 112 120 112 120 49.5 c 128,-1,24
 120 -13 120 -13 154 -56 c 128,-1,25
 188 -99 188 -99 254 -99 c 0,26,27
 361 -99 361 -99 380 -3 c 1,28,-1
 454 -13 l 1,29,12
 442 -84 442 -84 391 -125 c 128,-1,13
EndSplineSet
EndChar

StartChar: Agrave
Encoding: 192 192 129
Width: 628
GlyphClass: 2
Flags: W
LayerCount: 2
Fore
SplineSet
255 730 m 1,0,-1
 372 730 l 1,1,-1
 611 0 l 1,2,-1
 524 0 l 1,3,-1
 453 220 l 1,4,-1
 175 220 l 1,5,-1
 104 0 l 1,6,-1
 17 0 l 1,7,-1
 255 730 l 1,0,-1
314 652 m 1,8,-1
 197 290 l 1,9,-1
 430 290 l 1,10,-1
 314 652 l 1,8,-1
425 829 m 1,11,-1
 386 783 l 1,12,-1
 203 921 l 1,13,-1
 257 985 l 1,14,-1
 425 829 l 1,11,-1
EndSplineSet
EndChar

StartChar: Aacute
Encoding: 193 193 130
Width: 628
GlyphClass: 2
Flags: W
LayerCount: 2
Fore
SplineSet
255 730 m 1,0,-1
 372 730 l 1,1,-1
 611 0 l 1,2,-1
 524 0 l 1,3,-1
 453 220 l 1,4,-1
 175 220 l 1,5,-1
 104 0 l 1,6,-1
 17 0 l 1,7,-1
 255 730 l 1,0,-1
314 652 m 1,8,-1
 197 290 l 1,9,-1
 430 290 l 1,10,-1
 314 652 l 1,8,-1
246 783 m 1,11,-1
 207 829 l 1,12,-1
 375 985 l 1,13,-1
 429 921 l 1,14,-1
 246 783 l 1,11,-1
EndSplineSet
EndChar

StartChar: Acircumflex
Encoding: 194 194 131
Width: 628
GlyphClass: 2
Flags: W
LayerCount: 2
Fore
SplineSet
255 730 m 1,0,-1
 372 730 l 1,1,-1
 611 0 l 1,2,-1
 524 0 l 1,3,-1
 453 220 l 1,4,-1
 175 220 l 1,5,-1
 104 0 l 1,6,-1
 17 0 l 1,7,-1
 255 730 l 1,0,-1
314 652 m 1,8,-1
 197 290 l 1,9,-1
 430 290 l 1,10,-1
 314 652 l 1,8,-1
200 790 m 1,11,-1
 164 826 l 1,12,-1
 298 979 l 1,13,-1
 335 979 l 1,14,-1
 469 826 l 1,15,-1
 433 790 l 1,16,-1
 316 886 l 1,17,-1
 200 790 l 1,11,-1
EndSplineSet
EndChar

StartChar: Atilde
Encoding: 195 195 132
Width: 628
GlyphClass: 2
Flags: W
LayerCount: 2
Fore
SplineSet
255 730 m 1,0,-1
 372 730 l 1,1,-1
 611 0 l 1,2,-1
 524 0 l 1,3,-1
 453 220 l 1,4,-1
 175 220 l 1,5,-1
 104 0 l 1,6,-1
 17 0 l 1,7,-1
 255 730 l 1,0,-1
314 652 m 1,8,-1
 197 290 l 1,9,-1
 430 290 l 1,10,-1
 314 652 l 1,8,-1
481 930 m 1,11,12
 454 831 454 831 392 831 c 0,13,14
 364 831 364 831 315.5 849 c 128,-1,15
 267 867 267 867 251.5 867 c 128,-1,16
 236 867 236 867 226 856.5 c 128,-1,17
 216 846 216 846 208 823 c 1,18,-1
 151 841 l 1,19,20
 166 895 166 895 188.5 917.5 c 128,-1,21
 211 940 211 940 239.5 940 c 128,-1,22
 268 940 268 940 317 922 c 128,-1,23
 366 904 366 904 381.5 904 c 128,-1,24
 397 904 397 904 407 914 c 128,-1,25
 417 924 417 924 425 948 c 1,26,-1
 481 930 l 1,11,12
EndSplineSet
EndChar

StartChar: Adieresis
Encoding: 196 196 133
Width: 628
GlyphClass: 2
Flags: W
LayerCount: 2
Fore
SplineSet
255 730 m 1,0,-1
 372 730 l 1,1,-1
 611 0 l 1,2,-1
 524 0 l 1,3,-1
 453 220 l 1,4,-1
 175 220 l 1,5,-1
 104 0 l 1,6,-1
 17 0 l 1,7,-1
 255 730 l 1,0,-1
314 652 m 1,8,-1
 197 290 l 1,9,-1
 430 290 l 1,10,-1
 314 652 l 1,8,-1
244 834.5 m 128,-1,12
 232 825 232 825 209.5 825 c 128,-1,13
 187 825 187 825 175.5 834.5 c 128,-1,14
 164 844 164 844 162 854 c 128,-1,15
 160 864 160 864 160 881 c 128,-1,16
 160 898 160 898 162 908.5 c 128,-1,17
 164 919 164 919 175.5 928.5 c 128,-1,18
 187 938 187 938 214.5 938 c 128,-1,19
 242 938 242 938 251 923 c 128,-1,20
 260 908 260 908 260 886 c 128,-1,21
 260 864 260 864 258 854 c 128,-1,11
 256 844 256 844 244 834.5 c 128,-1,12
456 834.5 m 128,-1,23
 444 825 444 825 421.5 825 c 128,-1,24
 399 825 399 825 387.5 834.5 c 128,-1,25
 376 844 376 844 374 854 c 128,-1,26
 372 864 372 864 372 881 c 128,-1,27
 372 898 372 898 374 908.5 c 128,-1,28
 376 919 376 919 387.5 928.5 c 128,-1,29
 399 938 399 938 426.5 938 c 128,-1,30
 454 938 454 938 463 923 c 128,-1,31
 472 908 472 908 472 886 c 128,-1,32
 472 864 472 864 470 854 c 128,-1,22
 468 844 468 844 456 834.5 c 128,-1,23
EndSplineSet
EndChar

StartChar: Aring
Encoding: 197 197 134
Width: 628
GlyphClass: 2
Flags: W
LayerCount: 2
Fore
SplineSet
255 730 m 1,0,-1
 372 730 l 1,1,-1
 611 0 l 1,2,-1
 524 0 l 1,3,-1
 453 220 l 1,4,-1
 175 220 l 1,5,-1
 104 0 l 1,6,-1
 17 0 l 1,7,-1
 255 730 l 1,0,-1
314 652 m 1,8,-1
 197 290 l 1,9,-1
 430 290 l 1,10,-1
 314 652 l 1,8,-1
315 826 m 0,11,12
 362 826 362 826 362 883 c 128,-1,13
 362 940 362 940 315 940 c 0,14,15
 271 940 271 940 271 883 c 128,-1,16
 271 826 271 826 315 826 c 0,11,12
315 779 m 0,17,18
 213 779 213 779 213 883 c 0,19,20
 213 909 213 909 220 930.5 c 128,-1,21
 227 952 227 952 251 970 c 128,-1,22
 275 988 275 988 315 988 c 0,23,24
 419 988 419 988 419 883.5 c 128,-1,25
 419 779 419 779 315 779 c 0,17,18
EndSplineSet
EndChar

StartChar: AE
Encoding: 198 198 135
Width: 911
GlyphClass: 2
Flags: W
LayerCount: 2
Fore
SplineSet
845 730 m 1,0,-1
 845 660 l 1,1,-1
 545 660 l 1,2,-1
 545 386 l 1,3,-1
 824 386 l 1,4,-1
 824 316 l 1,5,-1
 545 316 l 1,6,-1
 545 70 l 1,7,-1
 865 70 l 1,8,-1
 865 0 l 1,9,-1
 457 0 l 1,10,-1
 457 316 l 1,11,-1
 249 316 l 1,12,-1
 116 0 l 1,13,-1
 29 0 l 1,14,-1
 340 730 l 1,15,-1
 845 730 l 1,0,-1
457 659 m 1,16,-1
 394 659 l 1,17,-1
 279 386 l 1,18,-1
 457 386 l 1,19,-1
 457 659 l 1,16,-1
EndSplineSet
EndChar

StartChar: Ccedilla
Encoding: 199 199 136
Width: 638
GlyphClass: 2
Flags: W
LayerCount: 2
Fore
SplineSet
355 672 m 0,0,1
 262 672 262 672 216 620 c 0,2,3
 175 575 175 575 166 472 c 0,4,5
 162 429 162 429 162 366 c 128,-1,6
 162 303 162 303 166 258.5 c 128,-1,7
 170 214 170 214 182.5 174 c 128,-1,8
 195 134 195 134 216 110 c 0,9,10
 262 58 262 58 355 58 c 0,11,12
 509 58 509 58 514 222 c 1,13,-1
 586 218 l 1,14,15
 579 107 579 107 525.5 46.5 c 128,-1,16
 472 -14 472 -14 355 -14 c 0,17,18
 190 -14 190 -14 130 88 c 0,19,20
 99 139 99 139 86.5 205 c 128,-1,21
 74 271 74 271 74 365.5 c 128,-1,22
 74 460 74 460 86.5 526 c 128,-1,23
 99 592 99 592 130 643 c 0,24,25
 190 744 190 744 355 744 c 0,26,27
 464 744 464 744 517 694.5 c 128,-1,28
 570 645 570 645 582 553 c 1,29,-1
 511 540 l 1,30,31
 490 672 490 672 355 672 c 0,0,1
218 -142 m 1,32,-1
 284 -142 l 1,33,34
 284 -157 284 -157 286 -165 c 0,35,36
 291 -185 291 -185 320 -185 c 128,-1,37
 349 -185 349 -185 356 -174.5 c 128,-1,38
 363 -164 363 -164 363 -142 c 128,-1,39
 363 -120 363 -120 353.5 -109.5 c 128,-1,40
 344 -99 344 -99 319 -95 c 2,41,-1
 265 -85 l 1,42,-1
 272 -50 l 1,43,-1
 314 -50 l 2,44,45
 370 -50 370 -50 397.5 -69 c 128,-1,46
 425 -88 425 -88 425 -139.5 c 128,-1,47
 425 -191 425 -191 402.5 -216 c 128,-1,48
 380 -241 380 -241 321.5 -241 c 128,-1,49
 263 -241 263 -241 240.5 -215.5 c 128,-1,50
 218 -190 218 -190 218 -142 c 1,32,-1
EndSplineSet
EndChar

StartChar: Egrave
Encoding: 200 200 137
Width: 560
GlyphClass: 2
Flags: W
LayerCount: 2
Fore
SplineSet
106 730 m 1,0,-1
 494 730 l 1,1,-1
 494 660 l 1,2,-1
 194 660 l 1,3,-1
 194 406 l 1,4,-1
 473 406 l 1,5,-1
 473 336 l 1,6,-1
 194 336 l 1,7,-1
 194 70 l 1,8,-1
 514 70 l 1,9,-1
 514 0 l 1,10,-1
 106 0 l 1,11,-1
 106 730 l 1,0,-1
399 829 m 1,12,-1
 360 783 l 1,13,-1
 177 921 l 1,14,-1
 231 985 l 1,15,-1
 399 829 l 1,12,-1
EndSplineSet
EndChar

StartChar: Eacute
Encoding: 201 201 138
Width: 560
GlyphClass: 2
Flags: W
LayerCount: 2
Fore
SplineSet
106 730 m 1,0,-1
 494 730 l 1,1,-1
 494 660 l 1,2,-1
 194 660 l 1,3,-1
 194 406 l 1,4,-1
 473 406 l 1,5,-1
 473 336 l 1,6,-1
 194 336 l 1,7,-1
 194 70 l 1,8,-1
 514 70 l 1,9,-1
 514 0 l 1,10,-1
 106 0 l 1,11,-1
 106 730 l 1,0,-1
252 783 m 1,12,-1
 213 829 l 1,13,-1
 381 985 l 1,14,-1
 435 921 l 1,15,-1
 252 783 l 1,12,-1
EndSplineSet
EndChar

StartChar: Ecircumflex
Encoding: 202 202 139
Width: 560
GlyphClass: 2
Flags: W
LayerCount: 2
Fore
SplineSet
106 730 m 1,0,-1
 494 730 l 1,1,-1
 494 660 l 1,2,-1
 194 660 l 1,3,-1
 194 406 l 1,4,-1
 473 406 l 1,5,-1
 473 336 l 1,6,-1
 194 336 l 1,7,-1
 194 70 l 1,8,-1
 514 70 l 1,9,-1
 514 0 l 1,10,-1
 106 0 l 1,11,-1
 106 730 l 1,0,-1
174 790 m 1,12,-1
 138 826 l 1,13,-1
 272 979 l 1,14,-1
 309 979 l 1,15,-1
 443 826 l 1,16,-1
 407 790 l 1,17,-1
 290 886 l 1,18,-1
 174 790 l 1,12,-1
EndSplineSet
EndChar

StartChar: Edieresis
Encoding: 203 203 140
Width: 560
GlyphClass: 2
Flags: W
LayerCount: 2
Fore
SplineSet
106 730 m 1,0,-1
 494 730 l 1,1,-1
 494 660 l 1,2,-1
 194 660 l 1,3,-1
 194 406 l 1,4,-1
 473 406 l 1,5,-1
 473 336 l 1,6,-1
 194 336 l 1,7,-1
 194 70 l 1,8,-1
 514 70 l 1,9,-1
 514 0 l 1,10,-1
 106 0 l 1,11,-1
 106 730 l 1,0,-1
218 834.5 m 128,-1,13
 206 825 206 825 183.5 825 c 128,-1,14
 161 825 161 825 149.5 834.5 c 128,-1,15
 138 844 138 844 136 854 c 128,-1,16
 134 864 134 864 134 881 c 128,-1,17
 134 898 134 898 136 908.5 c 128,-1,18
 138 919 138 919 149.5 928.5 c 128,-1,19
 161 938 161 938 188.5 938 c 128,-1,20
 216 938 216 938 225 923 c 128,-1,21
 234 908 234 908 234 886 c 128,-1,22
 234 864 234 864 232 854 c 128,-1,12
 230 844 230 844 218 834.5 c 128,-1,13
430 834.5 m 128,-1,24
 418 825 418 825 395.5 825 c 128,-1,25
 373 825 373 825 361.5 834.5 c 128,-1,26
 350 844 350 844 348 854 c 128,-1,27
 346 864 346 864 346 881 c 128,-1,28
 346 898 346 898 348 908.5 c 128,-1,29
 350 919 350 919 361.5 928.5 c 128,-1,30
 373 938 373 938 400.5 938 c 128,-1,31
 428 938 428 938 437 923 c 128,-1,32
 446 908 446 908 446 886 c 128,-1,33
 446 864 446 864 444 854 c 128,-1,23
 442 844 442 844 430 834.5 c 128,-1,24
EndSplineSet
EndChar

StartChar: Igrave
Encoding: 204 204 141
Width: 300
GlyphClass: 2
Flags: W
LayerCount: 2
Fore
SplineSet
106 730 m 1,0,-1
 194 730 l 1,1,-1
 194 0 l 1,2,-1
 106 0 l 1,3,-1
 106 730 l 1,0,-1
259 829 m 1,4,-1
 220 783 l 1,5,-1
 37 921 l 1,6,-1
 91 985 l 1,7,-1
 259 829 l 1,4,-1
EndSplineSet
EndChar

StartChar: Iacute
Encoding: 205 205 142
Width: 300
GlyphClass: 2
Flags: W
LayerCount: 2
Fore
SplineSet
106 730 m 1,0,-1
 194 730 l 1,1,-1
 194 0 l 1,2,-1
 106 0 l 1,3,-1
 106 730 l 1,0,-1
100 783 m 1,4,-1
 61 829 l 1,5,-1
 229 985 l 1,6,-1
 283 921 l 1,7,-1
 100 783 l 1,4,-1
EndSplineSet
EndChar

StartChar: Icircumflex
Encoding: 206 206 143
Width: 300
GlyphClass: 2
Flags: W
LayerCount: 2
Fore
SplineSet
106 730 m 1,0,-1
 194 730 l 1,1,-1
 194 0 l 1,2,-1
 106 0 l 1,3,-1
 106 730 l 1,0,-1
34 790 m 1,4,-1
 -2 826 l 1,5,-1
 132 979 l 1,6,-1
 169 979 l 1,7,-1
 303 826 l 1,8,-1
 267 790 l 1,9,-1
 150 886 l 1,10,-1
 34 790 l 1,4,-1
EndSplineSet
EndChar

StartChar: Idieresis
Encoding: 207 207 144
Width: 300
GlyphClass: 2
Flags: W
LayerCount: 2
Fore
SplineSet
106 730 m 1,0,-1
 194 730 l 1,1,-1
 194 0 l 1,2,-1
 106 0 l 1,3,-1
 106 730 l 1,0,-1
78 834.5 m 128,-1,5
 66 825 66 825 43.5 825 c 128,-1,6
 21 825 21 825 9.5 834.5 c 128,-1,7
 -2 844 -2 844 -4 854 c 128,-1,8
 -6 864 -6 864 -6 881 c 128,-1,9
 -6 898 -6 898 -4 908.5 c 128,-1,10
 -2 919 -2 919 9.5 928.5 c 128,-1,11
 21 938 21 938 48.5 938 c 128,-1,12
 76 938 76 938 85 923 c 128,-1,13
 94 908 94 908 94 886 c 128,-1,14
 94 864 94 864 92 854 c 128,-1,4
 90 844 90 844 78 834.5 c 128,-1,5
290 834.5 m 128,-1,16
 278 825 278 825 255.5 825 c 128,-1,17
 233 825 233 825 221.5 834.5 c 128,-1,18
 210 844 210 844 208 854 c 128,-1,19
 206 864 206 864 206 881 c 128,-1,20
 206 898 206 898 208 908.5 c 128,-1,21
 210 919 210 919 221.5 928.5 c 128,-1,22
 233 938 233 938 260.5 938 c 128,-1,23
 288 938 288 938 297 923 c 128,-1,24
 306 908 306 908 306 886 c 128,-1,25
 306 864 306 864 304 854 c 128,-1,15
 302 844 302 844 290 834.5 c 128,-1,16
EndSplineSet
EndChar

StartChar: Eth
Encoding: 208 208 145
Width: 698
GlyphClass: 2
Flags: W
LayerCount: 2
Fore
SplineSet
58 330 m 1,0,-1
 58 398 l 1,1,-1
 106 398 l 1,2,-1
 106 730 l 1,3,-1
 328 730 l 2,4,5
 500 730 500 730 561 622 c 0,6,7
 591 570 591 570 602.5 509 c 128,-1,8
 614 448 614 448 614 373.5 c 128,-1,9
 614 299 614 299 607.5 248 c 128,-1,10
 601 197 601 197 582 148.5 c 128,-1,11
 563 100 563 100 532 69 c 0,12,13
 461 0 461 0 328 0 c 2,14,-1
 106 0 l 1,15,-1
 106 330 l 1,16,-1
 58 330 l 1,0,-1
324 660 m 2,17,-1
 194 660 l 1,18,-1
 194 398 l 1,19,-1
 410 398 l 1,20,-1
 410 330 l 1,21,-1
 194 330 l 1,22,-1
 194 70 l 1,23,-1
 324 70 l 2,24,25
 422 70 422 70 470 126 c 1,26,27
 526 194 526 194 526 365 c 128,-1,28
 526 536 526 536 470 604 c 1,29,30
 422 660 422 660 324 660 c 2,17,-1
EndSplineSet
EndChar

StartChar: Ntilde
Encoding: 209 209 146
Width: 744
GlyphClass: 2
Flags: W
LayerCount: 2
Fore
SplineSet
550 730 m 1,0,-1
 638 730 l 1,1,-1
 638 0 l 1,2,-1
 542 0 l 1,3,-1
 194 582 l 1,4,-1
 194 0 l 1,5,-1
 106 0 l 1,6,-1
 106 730 l 1,7,-1
 202 730 l 1,8,-1
 550 147 l 1,9,-1
 550 730 l 1,0,-1
543 930 m 1,10,11
 516 831 516 831 454 831 c 0,12,13
 426 831 426 831 377.5 849 c 128,-1,14
 329 867 329 867 313.5 867 c 128,-1,15
 298 867 298 867 288 856.5 c 128,-1,16
 278 846 278 846 270 823 c 1,17,-1
 213 841 l 1,18,19
 228 895 228 895 250.5 917.5 c 128,-1,20
 273 940 273 940 301.5 940 c 128,-1,21
 330 940 330 940 379 922 c 128,-1,22
 428 904 428 904 443.5 904 c 128,-1,23
 459 904 459 904 469 914 c 128,-1,24
 479 924 479 924 487 948 c 1,25,-1
 543 930 l 1,10,11
EndSplineSet
EndChar

StartChar: Ograve
Encoding: 210 210 147
Width: 721
GlyphClass: 2
Flags: W
LayerCount: 2
Fore
SplineSet
502 14.5 m 128,-1,1
 444 -14 444 -14 359.5 -14 c 128,-1,2
 275 -14 275 -14 217.5 14 c 128,-1,3
 160 42 160 42 129.5 96.5 c 128,-1,4
 99 151 99 151 86.5 215 c 128,-1,5
 74 279 74 279 74 355.5 c 128,-1,6
 74 432 74 432 81 485.5 c 128,-1,7
 88 539 88 539 107.5 589 c 128,-1,8
 127 639 127 639 158 672 c 0,9,10
 227 744 227 744 360 744 c 0,11,12
 528 744 528 744 591 632 c 0,13,14
 622 578 622 578 634.5 514 c 128,-1,15
 647 450 647 450 647 364.5 c 128,-1,16
 647 279 647 279 634.5 215 c 128,-1,17
 622 151 622 151 591 97 c 128,-1,0
 560 43 560 43 502 14.5 c 128,-1,1
366 58 m 0,18,19
 418 58 418 58 458.5 81.5 c 128,-1,20
 499 105 499 105 520 148.5 c 128,-1,21
 541 192 541 192 550 244.5 c 128,-1,22
 559 297 559 297 559 365 c 128,-1,23
 559 433 559 433 550 485.5 c 128,-1,24
 541 538 541 538 520 582 c 0,25,26
 476 672 476 672 360 672 c 0,27,28
 267 672 267 672 220 613 c 0,29,30
 162 540 162 540 162 365 c 128,-1,31
 162 190 162 190 220 117 c 0,32,33
 267 58 267 58 366 58 c 0,18,19
469 829 m 1,34,-1
 430 783 l 1,35,-1
 247 921 l 1,36,-1
 301 985 l 1,37,-1
 469 829 l 1,34,-1
EndSplineSet
EndChar

StartChar: Oacute
Encoding: 211 211 148
Width: 721
GlyphClass: 2
Flags: W
LayerCount: 2
Fore
SplineSet
502 14.5 m 128,-1,1
 444 -14 444 -14 359.5 -14 c 128,-1,2
 275 -14 275 -14 217.5 14 c 128,-1,3
 160 42 160 42 129.5 96.5 c 128,-1,4
 99 151 99 151 86.5 215 c 128,-1,5
 74 279 74 279 74 355.5 c 128,-1,6
 74 432 74 432 81 485.5 c 128,-1,7
 88 539 88 539 107.5 589 c 128,-1,8
 127 639 127 639 158 672 c 0,9,10
 227 744 227 744 360 744 c 0,11,12
 528 744 528 744 591 632 c 0,13,14
 622 578 622 578 634.5 514 c 128,-1,15
 647 450 647 450 647 364.5 c 128,-1,16
 647 279 647 279 634.5 215 c 128,-1,17
 622 151 622 151 591 97 c 128,-1,0
 560 43 560 43 502 14.5 c 128,-1,1
366 58 m 0,18,19
 418 58 418 58 458.5 81.5 c 128,-1,20
 499 105 499 105 520 148.5 c 128,-1,21
 541 192 541 192 550 244.5 c 128,-1,22
 559 297 559 297 559 365 c 128,-1,23
 559 433 559 433 550 485.5 c 128,-1,24
 541 538 541 538 520 582 c 0,25,26
 476 672 476 672 360 672 c 0,27,28
 267 672 267 672 220 613 c 0,29,30
 162 540 162 540 162 365 c 128,-1,31
 162 190 162 190 220 117 c 0,32,33
 267 58 267 58 366 58 c 0,18,19
290 783 m 1,34,-1
 251 829 l 1,35,-1
 419 985 l 1,36,-1
 473 921 l 1,37,-1
 290 783 l 1,34,-1
EndSplineSet
EndChar

StartChar: Ocircumflex
Encoding: 212 212 149
Width: 721
GlyphClass: 2
Flags: W
LayerCount: 2
Fore
SplineSet
502 14.5 m 128,-1,1
 444 -14 444 -14 359.5 -14 c 128,-1,2
 275 -14 275 -14 217.5 14 c 128,-1,3
 160 42 160 42 129.5 96.5 c 128,-1,4
 99 151 99 151 86.5 215 c 128,-1,5
 74 279 74 279 74 355.5 c 128,-1,6
 74 432 74 432 81 485.5 c 128,-1,7
 88 539 88 539 107.5 589 c 128,-1,8
 127 639 127 639 158 672 c 0,9,10
 227 744 227 744 360 744 c 0,11,12
 528 744 528 744 591 632 c 0,13,14
 622 578 622 578 634.5 514 c 128,-1,15
 647 450 647 450 647 364.5 c 128,-1,16
 647 279 647 279 634.5 215 c 128,-1,17
 622 151 622 151 591 97 c 128,-1,0
 560 43 560 43 502 14.5 c 128,-1,1
366 58 m 0,18,19
 418 58 418 58 458.5 81.5 c 128,-1,20
 499 105 499 105 520 148.5 c 128,-1,21
 541 192 541 192 550 244.5 c 128,-1,22
 559 297 559 297 559 365 c 128,-1,23
 559 433 559 433 550 485.5 c 128,-1,24
 541 538 541 538 520 582 c 0,25,26
 476 672 476 672 360 672 c 0,27,28
 267 672 267 672 220 613 c 0,29,30
 162 540 162 540 162 365 c 128,-1,31
 162 190 162 190 220 117 c 0,32,33
 267 58 267 58 366 58 c 0,18,19
244 790 m 1,34,-1
 208 826 l 1,35,-1
 342 979 l 1,36,-1
 379 979 l 1,37,-1
 513 826 l 1,38,-1
 477 790 l 1,39,-1
 360 886 l 1,40,-1
 244 790 l 1,34,-1
EndSplineSet
EndChar

StartChar: Otilde
Encoding: 213 213 150
Width: 721
GlyphClass: 2
Flags: W
LayerCount: 2
Fore
SplineSet
502 14.5 m 128,-1,1
 444 -14 444 -14 359.5 -14 c 128,-1,2
 275 -14 275 -14 217.5 14 c 128,-1,3
 160 42 160 42 129.5 96.5 c 128,-1,4
 99 151 99 151 86.5 215 c 128,-1,5
 74 279 74 279 74 355.5 c 128,-1,6
 74 432 74 432 81 485.5 c 128,-1,7
 88 539 88 539 107.5 589 c 128,-1,8
 127 639 127 639 158 672 c 0,9,10
 227 744 227 744 360 744 c 0,11,12
 528 744 528 744 591 632 c 0,13,14
 622 578 622 578 634.5 514 c 128,-1,15
 647 450 647 450 647 364.5 c 128,-1,16
 647 279 647 279 634.5 215 c 128,-1,17
 622 151 622 151 591 97 c 128,-1,0
 560 43 560 43 502 14.5 c 128,-1,1
366 58 m 0,18,19
 418 58 418 58 458.5 81.5 c 128,-1,20
 499 105 499 105 520 148.5 c 128,-1,21
 541 192 541 192 550 244.5 c 128,-1,22
 559 297 559 297 559 365 c 128,-1,23
 559 433 559 433 550 485.5 c 128,-1,24
 541 538 541 538 520 582 c 0,25,26
 476 672 476 672 360 672 c 0,27,28
 267 672 267 672 220 613 c 0,29,30
 162 540 162 540 162 365 c 128,-1,31
 162 190 162 190 220 117 c 0,32,33
 267 58 267 58 366 58 c 0,18,19
525 930 m 1,34,35
 498 831 498 831 436 831 c 0,36,37
 408 831 408 831 359.5 849 c 128,-1,38
 311 867 311 867 295.5 867 c 128,-1,39
 280 867 280 867 270 856.5 c 128,-1,40
 260 846 260 846 252 823 c 1,41,-1
 195 841 l 1,42,43
 210 895 210 895 232.5 917.5 c 128,-1,44
 255 940 255 940 283.5 940 c 128,-1,45
 312 940 312 940 361 922 c 128,-1,46
 410 904 410 904 425.5 904 c 128,-1,47
 441 904 441 904 451 914 c 128,-1,48
 461 924 461 924 469 948 c 1,49,-1
 525 930 l 1,34,35
EndSplineSet
EndChar

StartChar: Odieresis
Encoding: 214 214 151
Width: 721
GlyphClass: 2
Flags: W
LayerCount: 2
Fore
SplineSet
502 14.5 m 128,-1,1
 444 -14 444 -14 359.5 -14 c 128,-1,2
 275 -14 275 -14 217.5 14 c 128,-1,3
 160 42 160 42 129.5 96.5 c 128,-1,4
 99 151 99 151 86.5 215 c 128,-1,5
 74 279 74 279 74 355.5 c 128,-1,6
 74 432 74 432 81 485.5 c 128,-1,7
 88 539 88 539 107.5 589 c 128,-1,8
 127 639 127 639 158 672 c 0,9,10
 227 744 227 744 360 744 c 0,11,12
 528 744 528 744 591 632 c 0,13,14
 622 578 622 578 634.5 514 c 128,-1,15
 647 450 647 450 647 364.5 c 128,-1,16
 647 279 647 279 634.5 215 c 128,-1,17
 622 151 622 151 591 97 c 128,-1,0
 560 43 560 43 502 14.5 c 128,-1,1
366 58 m 0,18,19
 418 58 418 58 458.5 81.5 c 128,-1,20
 499 105 499 105 520 148.5 c 128,-1,21
 541 192 541 192 550 244.5 c 128,-1,22
 559 297 559 297 559 365 c 128,-1,23
 559 433 559 433 550 485.5 c 128,-1,24
 541 538 541 538 520 582 c 0,25,26
 476 672 476 672 360 672 c 0,27,28
 267 672 267 672 220 613 c 0,29,30
 162 540 162 540 162 365 c 128,-1,31
 162 190 162 190 220 117 c 0,32,33
 267 58 267 58 366 58 c 0,18,19
288 834.5 m 128,-1,35
 276 825 276 825 253.5 825 c 128,-1,36
 231 825 231 825 219.5 834.5 c 128,-1,37
 208 844 208 844 206 854 c 128,-1,38
 204 864 204 864 204 881 c 128,-1,39
 204 898 204 898 206 908.5 c 128,-1,40
 208 919 208 919 219.5 928.5 c 128,-1,41
 231 938 231 938 258.5 938 c 128,-1,42
 286 938 286 938 295 923 c 128,-1,43
 304 908 304 908 304 886 c 128,-1,44
 304 864 304 864 302 854 c 128,-1,34
 300 844 300 844 288 834.5 c 128,-1,35
500 834.5 m 128,-1,46
 488 825 488 825 465.5 825 c 128,-1,47
 443 825 443 825 431.5 834.5 c 128,-1,48
 420 844 420 844 418 854 c 128,-1,49
 416 864 416 864 416 881 c 128,-1,50
 416 898 416 898 418 908.5 c 128,-1,51
 420 919 420 919 431.5 928.5 c 128,-1,52
 443 938 443 938 470.5 938 c 128,-1,53
 498 938 498 938 507 923 c 128,-1,54
 516 908 516 908 516 886 c 128,-1,55
 516 864 516 864 514 854 c 128,-1,45
 512 844 512 844 500 834.5 c 128,-1,46
EndSplineSet
EndChar

StartChar: multiply
Encoding: 215 215 152
Width: 580
GlyphClass: 2
Flags: W
LayerCount: 2
Fore
SplineSet
156 137 m 1,0,-1
 109 184 l 1,1,-1
 242 318 l 1,2,-1
 109 452 l 1,3,-1
 156 499 l 1,4,-1
 290 366 l 1,5,-1
 424 499 l 1,6,-1
 471 452 l 1,7,-1
 338 318 l 1,8,-1
 471 184 l 1,9,-1
 424 137 l 1,10,-1
 290 270 l 1,11,-1
 156 137 l 1,0,-1
EndSplineSet
EndChar

StartChar: Oslash
Encoding: 216 216 153
Width: 721
GlyphClass: 2
Flags: W
LayerCount: 2
Fore
SplineSet
74 365 m 0,0,1
 74 583 74 583 158 672 c 0,2,3
 227 744 227 744 360 744 c 0,4,5
 382 744 382 744 416 740 c 1,6,-1
 437 827 l 1,7,-1
 498 827 l 1,8,-1
 474 726 l 1,9,10
 572 693 572 693 612 590 c 0,11,12
 647 500 647 500 647 365 c 0,13,14
 647 279 647 279 634.5 215 c 128,-1,15
 622 151 622 151 591 97 c 0,16,17
 527 -14 527 -14 360 -14 c 0,18,19
 338 -14 338 -14 302 -10 c 1,20,-1
 283 -94 l 1,21,-1
 223 -94 l 1,22,-1
 245 3 l 1,23,24
 150 37 150 37 112 129 c 128,-1,25
 74 221 74 221 74 365 c 0,0,1
360 58 m 0,26,27
 476 58 476 58 520 148 c 0,28,29
 559 229 559 229 559 365 c 0,30,31
 559 590 559 590 456 649 c 1,32,-1
 319 61 l 1,33,34
 337 58 337 58 360 58 c 0,26,27
162 365 m 0,35,36
 162 138 162 138 263 80 c 1,37,-1
 400 668 l 1,38,39
 374 672 374 672 360 672 c 0,40,41
 267 672 267 672 220 613 c 0,42,43
 162 540 162 540 162 365 c 0,35,36
EndSplineSet
EndChar

StartChar: Ugrave
Encoding: 217 217 154
Width: 697
GlyphClass: 2
Flags: W
LayerCount: 2
Fore
SplineSet
518 730 m 1,0,-1
 606 730 l 1,1,-1
 606 241 l 2,2,3
 606 174 606 174 590 126 c 128,-1,4
 574 78 574 78 550.5 51.5 c 128,-1,5
 527 25 527 25 490 9.5 c 128,-1,6
 453 -6 453 -6 421.5 -10 c 128,-1,7
 390 -14 390 -14 348 -14 c 128,-1,8
 306 -14 306 -14 274.5 -10 c 128,-1,9
 243 -6 243 -6 206.5 9.5 c 128,-1,10
 170 25 170 25 146.5 51.5 c 128,-1,11
 123 78 123 78 107 126 c 128,-1,12
 91 174 91 174 91 241 c 2,13,-1
 91 730 l 1,14,-1
 179 730 l 1,15,-1
 179 244 l 2,16,17
 179 128 179 128 234 90 c 0,18,19
 261 72 261 72 287 66 c 128,-1,20
 313 60 313 60 348.5 60 c 128,-1,21
 384 60 384 60 410 66 c 128,-1,22
 436 72 436 72 463 90 c 0,23,24
 518 127 518 127 518 244 c 2,25,-1
 518 730 l 1,0,-1
434 829 m 1,26,-1
 395 783 l 1,27,-1
 212 921 l 1,28,-1
 266 985 l 1,29,-1
 434 829 l 1,26,-1
EndSplineSet
EndChar

StartChar: Uacute
Encoding: 218 218 155
Width: 697
GlyphClass: 2
Flags: W
LayerCount: 2
Fore
SplineSet
518 730 m 1,0,-1
 606 730 l 1,1,-1
 606 241 l 2,2,3
 606 174 606 174 590 126 c 128,-1,4
 574 78 574 78 550.5 51.5 c 128,-1,5
 527 25 527 25 490 9.5 c 128,-1,6
 453 -6 453 -6 421.5 -10 c 128,-1,7
 390 -14 390 -14 348 -14 c 128,-1,8
 306 -14 306 -14 274.5 -10 c 128,-1,9
 243 -6 243 -6 206.5 9.5 c 128,-1,10
 170 25 170 25 146.5 51.5 c 128,-1,11
 123 78 123 78 107 126 c 128,-1,12
 91 174 91 174 91 241 c 2,13,-1
 91 730 l 1,14,-1
 179 730 l 1,15,-1
 179 244 l 2,16,17
 179 128 179 128 234 90 c 0,18,19
 261 72 261 72 287 66 c 128,-1,20
 313 60 313 60 348.5 60 c 128,-1,21
 384 60 384 60 410 66 c 128,-1,22
 436 72 436 72 463 90 c 0,23,24
 518 127 518 127 518 244 c 2,25,-1
 518 730 l 1,0,-1
335 783 m 1,26,-1
 296 829 l 1,27,-1
 464 985 l 1,28,-1
 518 921 l 1,29,-1
 335 783 l 1,26,-1
EndSplineSet
EndChar

StartChar: Ucircumflex
Encoding: 219 219 156
Width: 697
GlyphClass: 2
Flags: W
LayerCount: 2
Fore
SplineSet
518 730 m 1,0,-1
 606 730 l 1,1,-1
 606 241 l 2,2,3
 606 174 606 174 590 126 c 128,-1,4
 574 78 574 78 550.5 51.5 c 128,-1,5
 527 25 527 25 490 9.5 c 128,-1,6
 453 -6 453 -6 421.5 -10 c 128,-1,7
 390 -14 390 -14 348 -14 c 128,-1,8
 306 -14 306 -14 274.5 -10 c 128,-1,9
 243 -6 243 -6 206.5 9.5 c 128,-1,10
 170 25 170 25 146.5 51.5 c 128,-1,11
 123 78 123 78 107 126 c 128,-1,12
 91 174 91 174 91 241 c 2,13,-1
 91 730 l 1,14,-1
 179 730 l 1,15,-1
 179 244 l 2,16,17
 179 128 179 128 234 90 c 0,18,19
 261 72 261 72 287 66 c 128,-1,20
 313 60 313 60 348.5 60 c 128,-1,21
 384 60 384 60 410 66 c 128,-1,22
 436 72 436 72 463 90 c 0,23,24
 518 127 518 127 518 244 c 2,25,-1
 518 730 l 1,0,-1
238 790 m 1,26,-1
 202 826 l 1,27,-1
 336 979 l 1,28,-1
 373 979 l 1,29,-1
 507 826 l 1,30,-1
 471 790 l 1,31,-1
 354 886 l 1,32,-1
 238 790 l 1,26,-1
EndSplineSet
EndChar

StartChar: Udieresis
Encoding: 220 220 157
Width: 697
GlyphClass: 2
Flags: W
LayerCount: 2
Fore
SplineSet
518 730 m 1,0,-1
 606 730 l 1,1,-1
 606 241 l 2,2,3
 606 174 606 174 590 126 c 128,-1,4
 574 78 574 78 550.5 51.5 c 128,-1,5
 527 25 527 25 490 9.5 c 128,-1,6
 453 -6 453 -6 421.5 -10 c 128,-1,7
 390 -14 390 -14 348 -14 c 128,-1,8
 306 -14 306 -14 274.5 -10 c 128,-1,9
 243 -6 243 -6 206.5 9.5 c 128,-1,10
 170 25 170 25 146.5 51.5 c 128,-1,11
 123 78 123 78 107 126 c 128,-1,12
 91 174 91 174 91 241 c 2,13,-1
 91 730 l 1,14,-1
 179 730 l 1,15,-1
 179 244 l 2,16,17
 179 128 179 128 234 90 c 0,18,19
 261 72 261 72 287 66 c 128,-1,20
 313 60 313 60 348.5 60 c 128,-1,21
 384 60 384 60 410 66 c 128,-1,22
 436 72 436 72 463 90 c 0,23,24
 518 127 518 127 518 244 c 2,25,-1
 518 730 l 1,0,-1
283 834.5 m 128,-1,27
 271 825 271 825 248.5 825 c 128,-1,28
 226 825 226 825 214.5 834.5 c 128,-1,29
 203 844 203 844 201 854 c 128,-1,30
 199 864 199 864 199 881 c 128,-1,31
 199 898 199 898 201 908.5 c 128,-1,32
 203 919 203 919 214.5 928.5 c 128,-1,33
 226 938 226 938 253.5 938 c 128,-1,34
 281 938 281 938 290 923 c 128,-1,35
 299 908 299 908 299 886 c 128,-1,36
 299 864 299 864 297 854 c 128,-1,26
 295 844 295 844 283 834.5 c 128,-1,27
495 834.5 m 128,-1,38
 483 825 483 825 460.5 825 c 128,-1,39
 438 825 438 825 426.5 834.5 c 128,-1,40
 415 844 415 844 413 854 c 128,-1,41
 411 864 411 864 411 881 c 128,-1,42
 411 898 411 898 413 908.5 c 128,-1,43
 415 919 415 919 426.5 928.5 c 128,-1,44
 438 938 438 938 465.5 938 c 128,-1,45
 493 938 493 938 502 923 c 128,-1,46
 511 908 511 908 511 886 c 128,-1,47
 511 864 511 864 509 854 c 128,-1,37
 507 844 507 844 495 834.5 c 128,-1,38
EndSplineSet
EndChar

StartChar: Yacute
Encoding: 221 221 158
Width: 550
GlyphClass: 2
Flags: W
LayerCount: 2
Fore
SplineSet
319 0 m 1,0,-1
 231 0 l 1,1,-1
 231 254 l 1,2,-1
 6 730 l 1,3,-1
 96 730 l 1,4,-1
 275 340 l 1,5,-1
 454 730 l 1,6,-1
 544 730 l 1,7,-1
 319 254 l 1,8,-1
 319 0 l 1,0,-1
224 783 m 1,9,-1
 185 829 l 1,10,-1
 353 985 l 1,11,-1
 407 921 l 1,12,-1
 224 783 l 1,9,-1
EndSplineSet
EndChar

StartChar: Thorn
Encoding: 222 222 159
Width: 581
GlyphClass: 2
Flags: W
LayerCount: 2
Fore
SplineSet
318 137 m 2,0,-1
 194 137 l 1,1,-1
 194 0 l 1,2,-1
 106 0 l 1,3,-1
 106 730 l 1,4,-1
 194 730 l 1,5,-1
 194 592 l 1,6,-1
 318 592 l 2,7,8
 539 592 539 592 539 364.5 c 128,-1,9
 539 137 539 137 318 137 c 2,0,-1
194 213 m 1,10,-1
 313 213 l 2,11,12
 367 213 367 213 399 235 c 128,-1,13
 431 257 431 257 441 288 c 128,-1,14
 451 319 451 319 451 376.5 c 128,-1,15
 451 434 451 434 421.5 475 c 128,-1,16
 392 516 392 516 313 516 c 2,17,-1
 194 516 l 1,18,-1
 194 213 l 1,10,-1
EndSplineSet
EndChar

StartChar: germandbls
Encoding: 223 223 160
Width: 642
GlyphClass: 2
Flags: W
LayerCount: 2
Fore
SplineSet
577 329 m 128,-1,1
 616 278 616 278 616 190.5 c 128,-1,2
 616 103 616 103 569.5 44.5 c 128,-1,3
 523 -14 523 -14 429.5 -14 c 128,-1,4
 336 -14 336 -14 295 35.5 c 128,-1,5
 254 85 254 85 254 183 c 1,6,-1
 326 183 l 1,7,8
 326 119 326 119 348 88 c 128,-1,9
 370 57 370 57 425.5 57 c 128,-1,10
 481 57 481 57 505.5 97.5 c 128,-1,11
 530 138 530 138 530 203.5 c 128,-1,12
 530 269 530 269 502.5 307.5 c 128,-1,13
 475 346 475 346 408 346 c 2,14,-1
 297 346 l 1,15,-1
 297 411 l 1,16,-1
 361 411 l 2,17,18
 414 411 414 411 442.5 453 c 128,-1,19
 471 495 471 495 471 555 c 128,-1,20
 471 615 471 615 437 648.5 c 128,-1,21
 403 682 403 682 336.5 682 c 128,-1,22
 270 682 270 682 236 648 c 128,-1,23
 202 614 202 614 202 553 c 2,24,-1
 202 0 l 1,25,-1
 116 0 l 1,26,-1
 116 553 l 2,27,28
 116 647 116 647 174.5 700 c 128,-1,29
 233 753 233 753 339 753 c 128,-1,30
 445 753 445 753 501 700.5 c 128,-1,31
 557 648 557 648 557 557 c 0,32,33
 557 507 557 507 533.5 464 c 128,-1,34
 510 421 510 421 471 393 c 1,35,0
 538 380 538 380 577 329 c 128,-1,1
EndSplineSet
EndChar

StartChar: agrave
Encoding: 224 224 161
Width: 586
GlyphClass: 2
Flags: W
LayerCount: 2
Fore
SplineSet
430 548 m 0,0,1
 490 505 490 505 490 386 c 2,2,-1
 490 0 l 1,3,-1
 433 0 l 1,4,-1
 411 89 l 1,5,6
 315 -14 315 -14 200 -14 c 0,7,8
 124 -14 124 -14 88.5 26 c 128,-1,9
 53 66 53 66 53 134 c 128,-1,10
 53 202 53 202 95.5 244 c 128,-1,11
 138 286 138 286 255 305 c 2,12,-1
 404 329 l 1,13,-1
 404 386 l 2,14,15
 404 460 404 460 372.5 488 c 128,-1,16
 341 516 341 516 286 516 c 0,17,18
 176 516 176 516 155 409 c 1,19,-1
 85 430 l 1,20,21
 101 504 101 504 152 545 c 128,-1,22
 203 586 203 586 290.5 586 c 128,-1,23
 378 586 378 586 430 548 c 0,0,1
224 52 m 0,24,25
 314 52 314 52 404 149 c 1,26,-1
 404 269 l 1,27,-1
 263 245 l 2,28,29
 192 232 192 232 165 204.5 c 128,-1,30
 138 177 138 177 138 137.5 c 128,-1,31
 138 98 138 98 159 75 c 128,-1,32
 180 52 180 52 224 52 c 0,24,25
393 671 m 1,33,-1
 354 625 l 1,34,-1
 171 763 l 1,35,-1
 225 827 l 1,36,-1
 393 671 l 1,33,-1
EndSplineSet
EndChar

StartChar: aacute
Encoding: 225 225 162
Width: 586
GlyphClass: 2
Flags: W
LayerCount: 2
Fore
SplineSet
430 548 m 0,0,1
 490 505 490 505 490 386 c 2,2,-1
 490 0 l 1,3,-1
 433 0 l 1,4,-1
 411 89 l 1,5,6
 315 -14 315 -14 200 -14 c 0,7,8
 124 -14 124 -14 88.5 26 c 128,-1,9
 53 66 53 66 53 134 c 128,-1,10
 53 202 53 202 95.5 244 c 128,-1,11
 138 286 138 286 255 305 c 2,12,-1
 404 329 l 1,13,-1
 404 386 l 2,14,15
 404 460 404 460 372.5 488 c 128,-1,16
 341 516 341 516 286 516 c 0,17,18
 176 516 176 516 155 409 c 1,19,-1
 85 430 l 1,20,21
 101 504 101 504 152 545 c 128,-1,22
 203 586 203 586 290.5 586 c 128,-1,23
 378 586 378 586 430 548 c 0,0,1
224 52 m 0,24,25
 314 52 314 52 404 149 c 1,26,-1
 404 269 l 1,27,-1
 263 245 l 2,28,29
 192 232 192 232 165 204.5 c 128,-1,30
 138 177 138 177 138 137.5 c 128,-1,31
 138 98 138 98 159 75 c 128,-1,32
 180 52 180 52 224 52 c 0,24,25
260 625 m 1,33,-1
 221 671 l 1,34,-1
 389 827 l 1,35,-1
 443 763 l 1,36,-1
 260 625 l 1,33,-1
EndSplineSet
EndChar

StartChar: acircumflex
Encoding: 226 226 163
Width: 586
GlyphClass: 2
Flags: W
LayerCount: 2
Fore
SplineSet
430 548 m 0,0,1
 490 505 490 505 490 386 c 2,2,-1
 490 0 l 1,3,-1
 433 0 l 1,4,-1
 411 89 l 1,5,6
 315 -14 315 -14 200 -14 c 0,7,8
 124 -14 124 -14 88.5 26 c 128,-1,9
 53 66 53 66 53 134 c 128,-1,10
 53 202 53 202 95.5 244 c 128,-1,11
 138 286 138 286 255 305 c 2,12,-1
 404 329 l 1,13,-1
 404 386 l 2,14,15
 404 460 404 460 372.5 488 c 128,-1,16
 341 516 341 516 286 516 c 0,17,18
 176 516 176 516 155 409 c 1,19,-1
 85 430 l 1,20,21
 101 504 101 504 152 545 c 128,-1,22
 203 586 203 586 290.5 586 c 128,-1,23
 378 586 378 586 430 548 c 0,0,1
224 52 m 0,24,25
 314 52 314 52 404 149 c 1,26,-1
 404 269 l 1,27,-1
 263 245 l 2,28,29
 192 232 192 232 165 204.5 c 128,-1,30
 138 177 138 177 138 137.5 c 128,-1,31
 138 98 138 98 159 75 c 128,-1,32
 180 52 180 52 224 52 c 0,24,25
168 632 m 1,33,-1
 132 668 l 1,34,-1
 266 821 l 1,35,-1
 303 821 l 1,36,-1
 437 668 l 1,37,-1
 401 632 l 1,38,-1
 284 728 l 1,39,-1
 168 632 l 1,33,-1
EndSplineSet
EndChar

StartChar: atilde
Encoding: 227 227 164
Width: 586
GlyphClass: 2
Flags: W
LayerCount: 2
Fore
SplineSet
430 548 m 0,0,1
 490 505 490 505 490 386 c 2,2,-1
 490 0 l 1,3,-1
 433 0 l 1,4,-1
 411 89 l 1,5,6
 315 -14 315 -14 200 -14 c 0,7,8
 124 -14 124 -14 88.5 26 c 128,-1,9
 53 66 53 66 53 134 c 128,-1,10
 53 202 53 202 95.5 244 c 128,-1,11
 138 286 138 286 255 305 c 2,12,-1
 404 329 l 1,13,-1
 404 386 l 2,14,15
 404 460 404 460 372.5 488 c 128,-1,16
 341 516 341 516 286 516 c 0,17,18
 176 516 176 516 155 409 c 1,19,-1
 85 430 l 1,20,21
 101 504 101 504 152 545 c 128,-1,22
 203 586 203 586 290.5 586 c 128,-1,23
 378 586 378 586 430 548 c 0,0,1
224 52 m 0,24,25
 314 52 314 52 404 149 c 1,26,-1
 404 269 l 1,27,-1
 263 245 l 2,28,29
 192 232 192 232 165 204.5 c 128,-1,30
 138 177 138 177 138 137.5 c 128,-1,31
 138 98 138 98 159 75 c 128,-1,32
 180 52 180 52 224 52 c 0,24,25
449 772 m 1,33,34
 422 673 422 673 360 673 c 0,35,36
 332 673 332 673 283.5 691 c 128,-1,37
 235 709 235 709 219.5 709 c 128,-1,38
 204 709 204 709 194 698.5 c 128,-1,39
 184 688 184 688 176 665 c 1,40,-1
 119 683 l 1,41,42
 134 737 134 737 156.5 759.5 c 128,-1,43
 179 782 179 782 207.5 782 c 128,-1,44
 236 782 236 782 285 764 c 128,-1,45
 334 746 334 746 349.5 746 c 128,-1,46
 365 746 365 746 375 756 c 128,-1,47
 385 766 385 766 393 790 c 1,48,-1
 449 772 l 1,33,34
EndSplineSet
EndChar

StartChar: adieresis
Encoding: 228 228 165
Width: 586
GlyphClass: 2
Flags: W
LayerCount: 2
Fore
SplineSet
430 548 m 0,0,1
 490 505 490 505 490 386 c 2,2,-1
 490 0 l 1,3,-1
 433 0 l 1,4,-1
 411 89 l 1,5,6
 315 -14 315 -14 200 -14 c 0,7,8
 124 -14 124 -14 88.5 26 c 128,-1,9
 53 66 53 66 53 134 c 128,-1,10
 53 202 53 202 95.5 244 c 128,-1,11
 138 286 138 286 255 305 c 2,12,-1
 404 329 l 1,13,-1
 404 386 l 2,14,15
 404 460 404 460 372.5 488 c 128,-1,16
 341 516 341 516 286 516 c 0,17,18
 176 516 176 516 155 409 c 1,19,-1
 85 430 l 1,20,21
 101 504 101 504 152 545 c 128,-1,22
 203 586 203 586 290.5 586 c 128,-1,23
 378 586 378 586 430 548 c 0,0,1
224 52 m 0,24,25
 314 52 314 52 404 149 c 1,26,-1
 404 269 l 1,27,-1
 263 245 l 2,28,29
 192 232 192 232 165 204.5 c 128,-1,30
 138 177 138 177 138 137.5 c 128,-1,31
 138 98 138 98 159 75 c 128,-1,32
 180 52 180 52 224 52 c 0,24,25
229 676.5 m 128,-1,34
 217 667 217 667 194.5 667 c 128,-1,35
 172 667 172 667 160.5 676.5 c 128,-1,36
 149 686 149 686 147 696 c 128,-1,37
 145 706 145 706 145 723 c 128,-1,38
 145 740 145 740 147 750.5 c 128,-1,39
 149 761 149 761 160.5 770.5 c 128,-1,40
 172 780 172 780 199.5 780 c 128,-1,41
 227 780 227 780 236 765 c 128,-1,42
 245 750 245 750 245 728 c 128,-1,43
 245 706 245 706 243 696 c 128,-1,33
 241 686 241 686 229 676.5 c 128,-1,34
441 676.5 m 128,-1,45
 429 667 429 667 406.5 667 c 128,-1,46
 384 667 384 667 372.5 676.5 c 128,-1,47
 361 686 361 686 359 696 c 128,-1,48
 357 706 357 706 357 723 c 128,-1,49
 357 740 357 740 359 750.5 c 128,-1,50
 361 761 361 761 372.5 770.5 c 128,-1,51
 384 780 384 780 411.5 780 c 128,-1,52
 439 780 439 780 448 765 c 128,-1,53
 457 750 457 750 457 728 c 128,-1,54
 457 706 457 706 455 696 c 128,-1,44
 453 686 453 686 441 676.5 c 128,-1,45
EndSplineSet
EndChar

StartChar: aring
Encoding: 229 229 166
Width: 586
GlyphClass: 2
Flags: W
LayerCount: 2
Fore
SplineSet
430 548 m 0,0,1
 490 505 490 505 490 386 c 2,2,-1
 490 0 l 1,3,-1
 433 0 l 1,4,-1
 411 89 l 1,5,6
 315 -14 315 -14 200 -14 c 0,7,8
 124 -14 124 -14 88.5 26 c 128,-1,9
 53 66 53 66 53 134 c 128,-1,10
 53 202 53 202 95.5 244 c 128,-1,11
 138 286 138 286 255 305 c 2,12,-1
 404 329 l 1,13,-1
 404 386 l 2,14,15
 404 460 404 460 372.5 488 c 128,-1,16
 341 516 341 516 286 516 c 0,17,18
 176 516 176 516 155 409 c 1,19,-1
 85 430 l 1,20,21
 101 504 101 504 152 545 c 128,-1,22
 203 586 203 586 290.5 586 c 128,-1,23
 378 586 378 586 430 548 c 0,0,1
224 52 m 0,24,25
 314 52 314 52 404 149 c 1,26,-1
 404 269 l 1,27,-1
 263 245 l 2,28,29
 192 232 192 232 165 204.5 c 128,-1,30
 138 177 138 177 138 137.5 c 128,-1,31
 138 98 138 98 159 75 c 128,-1,32
 180 52 180 52 224 52 c 0,24,25
303 668 m 0,33,34
 350 668 350 668 350 725 c 128,-1,35
 350 782 350 782 303 782 c 0,36,37
 259 782 259 782 259 725 c 128,-1,38
 259 668 259 668 303 668 c 0,33,34
303 621 m 0,39,40
 201 621 201 621 201 725 c 0,41,42
 201 751 201 751 208 772.5 c 128,-1,43
 215 794 215 794 239 812 c 128,-1,44
 263 830 263 830 303 830 c 0,45,46
 407 830 407 830 407 725.5 c 128,-1,47
 407 621 407 621 303 621 c 0,39,40
EndSplineSet
EndChar

StartChar: ae
Encoding: 230 230 167
Width: 928
GlyphClass: 2
Flags: W
LayerCount: 2
Fore
SplineSet
647 -14 m 0,0,1
 484 -14 484 -14 432 108 c 1,2,3
 326 -14 326 -14 202 -14 c 0,4,5
 125 -14 125 -14 88.5 26.5 c 128,-1,6
 52 67 52 67 52 134.5 c 128,-1,7
 52 202 52 202 94.5 245 c 128,-1,8
 137 288 137 288 253 308 c 2,9,-1
 402 334 l 1,10,-1
 402 386 l 2,11,12
 402 460 402 460 371 488 c 128,-1,13
 340 516 340 516 285.5 516 c 128,-1,14
 231 516 231 516 197 488 c 128,-1,15
 163 460 163 460 153 409 c 1,16,-1
 84 429 l 1,17,18
 118 586 118 586 286 586 c 0,19,20
 416 586 416 586 461 508 c 1,21,22
 521 586 521 586 643 586 c 0,23,24
 879 586 879 586 879 298 c 2,25,-1
 879 277 l 1,26,-1
 489 277 l 1,27,28
 490 159 490 159 525 107.5 c 128,-1,29
 560 56 560 56 647 56 c 0,30,31
 789 56 789 56 799 171 c 1,32,-1
 870 167 l 1,33,34
 851 -14 851 -14 647 -14 c 0,0,1
224 52 m 0,35,36
 325 52 325 52 415 159 c 1,37,38
 404 223 404 223 404 269 c 1,39,-1
 262 243 l 2,40,41
 190 230 190 230 163 202.5 c 128,-1,42
 136 175 136 175 136 136.5 c 128,-1,43
 136 98 136 98 157.5 75 c 128,-1,44
 179 52 179 52 224 52 c 0,35,36
755 470.5 m 128,-1,46
 722 516 722 516 644 516 c 128,-1,47
 566 516 566 516 532 469.5 c 128,-1,48
 498 423 498 423 491 341 c 1,49,-1
 793 341 l 1,50,45
 788 425 788 425 755 470.5 c 128,-1,46
EndSplineSet
EndChar

StartChar: ccedilla
Encoding: 231 231 168
Width: 550
GlyphClass: 2
Flags: W
LayerCount: 2
Fore
SplineSet
140 286 m 0,0,1
 140 237 140 237 146 199 c 128,-1,2
 152 161 152 161 168 127 c 0,3,4
 201 56 201 56 293 56 c 0,5,6
 368 56 368 56 400.5 85.5 c 128,-1,7
 433 115 433 115 436 173 c 1,8,-1
 506 170 l 1,9,10
 499 81 499 81 450 33.5 c 128,-1,11
 401 -14 401 -14 290 -14 c 0,12,13
 133 -14 133 -14 82 114 c 0,14,15
 54 184 54 184 54 267 c 128,-1,16
 54 350 54 350 64 399.5 c 128,-1,17
 74 449 74 449 99 494 c 0,18,19
 151 586 151 586 290 586 c 0,20,21
 401 586 401 586 450 540.5 c 128,-1,22
 499 495 499 495 505 409 c 1,23,-1
 436 399 l 1,24,25
 433 457 433 457 400.5 486.5 c 128,-1,26
 368 516 368 516 293 516 c 0,27,28
 201 516 201 516 168 445 c 0,29,30
 140 386 140 386 140 286 c 0,0,1
173 -142 m 1,31,-1
 239 -142 l 1,32,33
 239 -157 239 -157 241 -165 c 0,34,35
 246 -185 246 -185 275 -185 c 128,-1,36
 304 -185 304 -185 311 -174.5 c 128,-1,37
 318 -164 318 -164 318 -142 c 128,-1,38
 318 -120 318 -120 308.5 -109.5 c 128,-1,39
 299 -99 299 -99 274 -95 c 2,40,-1
 220 -85 l 1,41,-1
 227 -50 l 1,42,-1
 269 -50 l 2,43,44
 325 -50 325 -50 352.5 -69 c 128,-1,45
 380 -88 380 -88 380 -139.5 c 128,-1,46
 380 -191 380 -191 357.5 -216 c 128,-1,47
 335 -241 335 -241 276.5 -241 c 128,-1,48
 218 -241 218 -241 195.5 -215.5 c 128,-1,49
 173 -190 173 -190 173 -142 c 1,31,-1
EndSplineSet
EndChar

StartChar: egrave
Encoding: 232 232 169
Width: 578
GlyphClass: 2
Flags: W
LayerCount: 2
Fore
SplineSet
297 -14 m 0,0,1
 166 -14 166 -14 110 60.5 c 128,-1,2
 54 135 54 135 54 286 c 0,3,4
 54 586 54 586 293 586 c 0,5,6
 529 586 529 586 529 298 c 2,7,-1
 529 277 l 1,8,-1
 139 277 l 1,9,10
 140 159 140 159 175 107.5 c 128,-1,11
 210 56 210 56 297 56 c 0,12,13
 439 56 439 56 449 171 c 1,14,-1
 520 167 l 1,15,16
 501 -14 501 -14 297 -14 c 0,0,1
405 470.5 m 128,-1,18
 372 516 372 516 294 516 c 128,-1,19
 216 516 216 516 182 469.5 c 128,-1,20
 148 423 148 423 141 341 c 1,21,-1
 443 341 l 1,22,17
 438 425 438 425 405 470.5 c 128,-1,18
406 671 m 1,23,-1
 367 625 l 1,24,-1
 184 763 l 1,25,-1
 238 827 l 1,26,-1
 406 671 l 1,23,-1
EndSplineSet
EndChar

StartChar: eacute
Encoding: 233 233 170
Width: 578
GlyphClass: 2
Flags: W
LayerCount: 2
Fore
SplineSet
297 -14 m 0,0,1
 166 -14 166 -14 110 60.5 c 128,-1,2
 54 135 54 135 54 286 c 0,3,4
 54 586 54 586 293 586 c 0,5,6
 529 586 529 586 529 298 c 2,7,-1
 529 277 l 1,8,-1
 139 277 l 1,9,10
 140 159 140 159 175 107.5 c 128,-1,11
 210 56 210 56 297 56 c 0,12,13
 439 56 439 56 449 171 c 1,14,-1
 520 167 l 1,15,16
 501 -14 501 -14 297 -14 c 0,0,1
405 470.5 m 128,-1,18
 372 516 372 516 294 516 c 128,-1,19
 216 516 216 516 182 469.5 c 128,-1,20
 148 423 148 423 141 341 c 1,21,-1
 443 341 l 1,22,17
 438 425 438 425 405 470.5 c 128,-1,18
265 625 m 1,23,-1
 226 671 l 1,24,-1
 394 827 l 1,25,-1
 448 763 l 1,26,-1
 265 625 l 1,23,-1
EndSplineSet
EndChar

StartChar: ecircumflex
Encoding: 234 234 171
Width: 578
GlyphClass: 2
Flags: W
LayerCount: 2
Fore
SplineSet
297 -14 m 0,0,1
 166 -14 166 -14 110 60.5 c 128,-1,2
 54 135 54 135 54 286 c 0,3,4
 54 586 54 586 293 586 c 0,5,6
 529 586 529 586 529 298 c 2,7,-1
 529 277 l 1,8,-1
 139 277 l 1,9,10
 140 159 140 159 175 107.5 c 128,-1,11
 210 56 210 56 297 56 c 0,12,13
 439 56 439 56 449 171 c 1,14,-1
 520 167 l 1,15,16
 501 -14 501 -14 297 -14 c 0,0,1
405 470.5 m 128,-1,18
 372 516 372 516 294 516 c 128,-1,19
 216 516 216 516 182 469.5 c 128,-1,20
 148 423 148 423 141 341 c 1,21,-1
 443 341 l 1,22,17
 438 425 438 425 405 470.5 c 128,-1,18
181 632 m 1,23,-1
 145 668 l 1,24,-1
 279 821 l 1,25,-1
 316 821 l 1,26,-1
 450 668 l 1,27,-1
 414 632 l 1,28,-1
 297 728 l 1,29,-1
 181 632 l 1,23,-1
EndSplineSet
EndChar

StartChar: edieresis
Encoding: 235 235 172
Width: 570
GlyphClass: 2
Flags: W
LayerCount: 2
Fore
SplineSet
289 -14 m 0,0,1
 158 -14 158 -14 102 60.5 c 128,-1,2
 46 135 46 135 46 286 c 0,3,4
 46 586 46 586 285 586 c 0,5,6
 521 586 521 586 521 298 c 2,7,-1
 521 277 l 1,8,-1
 131 277 l 1,9,10
 132 159 132 159 167 107.5 c 128,-1,11
 202 56 202 56 289 56 c 0,12,13
 431 56 431 56 441 171 c 1,14,-1
 512 167 l 1,15,16
 493 -14 493 -14 289 -14 c 0,0,1
397 470.5 m 128,-1,18
 364 516 364 516 286 516 c 128,-1,19
 208 516 208 516 174 469.5 c 128,-1,20
 140 423 140 423 133 341 c 1,21,-1
 435 341 l 1,22,17
 430 425 430 425 397 470.5 c 128,-1,18
217 676.5 m 128,-1,24
 205 667 205 667 182.5 667 c 128,-1,25
 160 667 160 667 148.5 676.5 c 128,-1,26
 137 686 137 686 135 696 c 128,-1,27
 133 706 133 706 133 723 c 128,-1,28
 133 740 133 740 135 750.5 c 128,-1,29
 137 761 137 761 148.5 770.5 c 128,-1,30
 160 780 160 780 187.5 780 c 128,-1,31
 215 780 215 780 224 765 c 128,-1,32
 233 750 233 750 233 728 c 128,-1,33
 233 706 233 706 231 696 c 128,-1,23
 229 686 229 686 217 676.5 c 128,-1,24
429 676.5 m 128,-1,35
 417 667 417 667 394.5 667 c 128,-1,36
 372 667 372 667 360.5 676.5 c 128,-1,37
 349 686 349 686 347 696 c 128,-1,38
 345 706 345 706 345 723 c 128,-1,39
 345 740 345 740 347 750.5 c 128,-1,40
 349 761 349 761 360.5 770.5 c 128,-1,41
 372 780 372 780 399.5 780 c 128,-1,42
 427 780 427 780 436 765 c 128,-1,43
 445 750 445 750 445 728 c 128,-1,44
 445 706 445 706 443 696 c 128,-1,34
 441 686 441 686 429 676.5 c 128,-1,35
EndSplineSet
EndChar

StartChar: igrave
Encoding: 236 236 173
Width: 298
GlyphClass: 2
Flags: W
LayerCount: 2
Fore
SplineSet
106 572 m 1,0,-1
 192 572 l 1,1,-1
 192 0 l 1,2,-1
 106 0 l 1,3,-1
 106 572 l 1,0,-1
248 671 m 1,4,-1
 209 625 l 1,5,-1
 26 763 l 1,6,-1
 80 827 l 1,7,-1
 248 671 l 1,4,-1
EndSplineSet
EndChar

StartChar: iacute
Encoding: 237 237 174
Width: 298
GlyphClass: 2
Flags: W
LayerCount: 2
Fore
SplineSet
106 572 m 1,0,-1
 192 572 l 1,1,-1
 192 0 l 1,2,-1
 106 0 l 1,3,-1
 106 572 l 1,0,-1
94 625 m 1,4,-1
 55 671 l 1,5,-1
 223 827 l 1,6,-1
 277 763 l 1,7,-1
 94 625 l 1,4,-1
EndSplineSet
EndChar

StartChar: icircumflex
Encoding: 238 238 175
Width: 298
GlyphClass: 2
Flags: W
LayerCount: 2
Fore
SplineSet
106 572 m 1,0,-1
 192 572 l 1,1,-1
 192 0 l 1,2,-1
 106 0 l 1,3,-1
 106 572 l 1,0,-1
23 632 m 1,4,-1
 -13 668 l 1,5,-1
 121 821 l 1,6,-1
 158 821 l 1,7,-1
 292 668 l 1,8,-1
 256 632 l 1,9,-1
 139 728 l 1,10,-1
 23 632 l 1,4,-1
EndSplineSet
EndChar

StartChar: idieresis
Encoding: 239 239 176
Width: 298
GlyphClass: 2
Flags: W
LayerCount: 2
Fore
SplineSet
106 572 m 1,0,-1
 192 572 l 1,1,-1
 192 0 l 1,2,-1
 106 0 l 1,3,-1
 106 572 l 1,0,-1
77 676.5 m 128,-1,5
 65 667 65 667 42.5 667 c 128,-1,6
 20 667 20 667 8.5 676.5 c 128,-1,7
 -3 686 -3 686 -5 696 c 128,-1,8
 -7 706 -7 706 -7 723 c 128,-1,9
 -7 740 -7 740 -5 750.5 c 128,-1,10
 -3 761 -3 761 8.5 770.5 c 128,-1,11
 20 780 20 780 47.5 780 c 128,-1,12
 75 780 75 780 84 765 c 128,-1,13
 93 750 93 750 93 728 c 128,-1,14
 93 706 93 706 91 696 c 128,-1,4
 89 686 89 686 77 676.5 c 128,-1,5
289 676.5 m 128,-1,16
 277 667 277 667 254.5 667 c 128,-1,17
 232 667 232 667 220.5 676.5 c 128,-1,18
 209 686 209 686 207 696 c 128,-1,19
 205 706 205 706 205 723 c 128,-1,20
 205 740 205 740 207 750.5 c 128,-1,21
 209 761 209 761 220.5 770.5 c 128,-1,22
 232 780 232 780 259.5 780 c 128,-1,23
 287 780 287 780 296 765 c 128,-1,24
 305 750 305 750 305 728 c 128,-1,25
 305 706 305 706 303 696 c 128,-1,15
 301 686 301 686 289 676.5 c 128,-1,16
EndSplineSet
EndChar

StartChar: eth
Encoding: 240 240 177
Width: 604
GlyphClass: 2
Flags: W
LayerCount: 2
Fore
SplineSet
550 267 m 2,0,-1
 550 246 l 2,1,2
 550 52 550 52 404 2 c 0,3,4
 360 -14 360 -14 302 -14 c 128,-1,5
 244 -14 244 -14 199.5 1.5 c 128,-1,6
 155 17 155 17 128 42 c 128,-1,7
 101 67 101 67 84 102 c 0,8,9
 54 164 54 164 54 246 c 0,10,11
 54 348 54 348 102 420 c 0,12,13
 128 460 128 460 179 483 c 128,-1,14
 230 506 230 506 309.5 506 c 128,-1,15
 389 506 389 506 447 450 c 1,16,17
 423 541 423 541 375 614 c 1,18,-1
 270 572 l 1,19,-1
 270 635 l 1,20,-1
 339 662 l 1,21,22
 319 686 319 686 289 714 c 1,23,-1
 331 764 l 1,24,25
 371 729 371 729 405 689 c 1,26,-1
 528 739 l 1,27,-1
 528 676 l 1,28,-1
 441 641 l 1,29,30
 550 481 550 481 550 267 c 2,0,-1
302 55 m 128,-1,32
 464 55 464 55 464 246 c 128,-1,33
 464 437 464 437 302 437 c 128,-1,34
 140 437 140 437 140 246 c 128,-1,31
 140 55 140 55 302 55 c 128,-1,32
EndSplineSet
EndChar

StartChar: ntilde
Encoding: 241 241 178
Width: 654
GlyphClass: 2
Flags: W
LayerCount: 2
Fore
SplineSet
181 512 m 1,0,1
 282 586 282 586 380 586 c 128,-1,2
 478 586 478 586 518 541.5 c 128,-1,3
 558 497 558 497 558 406 c 2,4,-1
 558 0 l 1,5,-1
 472 0 l 1,6,-1
 472 404 l 2,7,8
 472 464 472 464 449 490 c 128,-1,9
 426 516 426 516 372 516 c 0,10,11
 279 516 279 516 192 449 c 1,12,-1
 192 0 l 1,13,-1
 106 0 l 1,14,-1
 106 572 l 1,15,-1
 157 572 l 1,16,-1
 181 512 l 1,0,1
507 772 m 1,17,18
 480 673 480 673 418 673 c 0,19,20
 390 673 390 673 341.5 691 c 128,-1,21
 293 709 293 709 277.5 709 c 128,-1,22
 262 709 262 709 252 698.5 c 128,-1,23
 242 688 242 688 234 665 c 1,24,-1
 177 683 l 1,25,26
 192 737 192 737 214.5 759.5 c 128,-1,27
 237 782 237 782 265.5 782 c 128,-1,28
 294 782 294 782 343 764 c 128,-1,29
 392 746 392 746 407.5 746 c 128,-1,30
 423 746 423 746 433 756 c 128,-1,31
 443 766 443 766 451 790 c 1,32,-1
 507 772 l 1,17,18
EndSplineSet
EndChar

StartChar: ograve
Encoding: 242 242 179
Width: 604
GlyphClass: 2
Flags: W
LayerCount: 2
Fore
SplineSet
302 56 m 128,-1,1
 352 56 352 56 385.5 74.5 c 128,-1,2
 419 93 419 93 435 127.5 c 128,-1,3
 451 162 451 162 457.5 199.5 c 128,-1,4
 464 237 464 237 464 286 c 128,-1,5
 464 335 464 335 457.5 372.5 c 128,-1,6
 451 410 451 410 435 444.5 c 128,-1,7
 419 479 419 479 385.5 497.5 c 128,-1,8
 352 516 352 516 302 516 c 128,-1,9
 252 516 252 516 218.5 497.5 c 128,-1,10
 185 479 185 479 168.5 444.5 c 128,-1,11
 152 410 152 410 146 373 c 128,-1,12
 140 336 140 336 140 286 c 128,-1,13
 140 236 140 236 146 199 c 128,-1,14
 152 162 152 162 168.5 127.5 c 128,-1,15
 185 93 185 93 218.5 74.5 c 128,-1,0
 252 56 252 56 302 56 c 128,-1,1
302 -14 m 128,-1,17
 54 -14 54 -14 54 286 c 128,-1,18
 54 586 54 586 302 586 c 128,-1,19
 550 586 550 586 550 286 c 128,-1,16
 550 -14 550 -14 302 -14 c 128,-1,17
411 671 m 1,20,-1
 372 625 l 1,21,-1
 189 763 l 1,22,-1
 243 827 l 1,23,-1
 411 671 l 1,20,-1
EndSplineSet
EndChar

StartChar: oacute
Encoding: 243 243 180
Width: 604
GlyphClass: 2
Flags: W
LayerCount: 2
Fore
SplineSet
302 56 m 128,-1,1
 352 56 352 56 385.5 74.5 c 128,-1,2
 419 93 419 93 435 127.5 c 128,-1,3
 451 162 451 162 457.5 199.5 c 128,-1,4
 464 237 464 237 464 286 c 128,-1,5
 464 335 464 335 457.5 372.5 c 128,-1,6
 451 410 451 410 435 444.5 c 128,-1,7
 419 479 419 479 385.5 497.5 c 128,-1,8
 352 516 352 516 302 516 c 128,-1,9
 252 516 252 516 218.5 497.5 c 128,-1,10
 185 479 185 479 168.5 444.5 c 128,-1,11
 152 410 152 410 146 373 c 128,-1,12
 140 336 140 336 140 286 c 128,-1,13
 140 236 140 236 146 199 c 128,-1,14
 152 162 152 162 168.5 127.5 c 128,-1,15
 185 93 185 93 218.5 74.5 c 128,-1,0
 252 56 252 56 302 56 c 128,-1,1
302 -14 m 128,-1,17
 54 -14 54 -14 54 286 c 128,-1,18
 54 586 54 586 302 586 c 128,-1,19
 550 586 550 586 550 286 c 128,-1,16
 550 -14 550 -14 302 -14 c 128,-1,17
269 625 m 1,20,-1
 230 671 l 1,21,-1
 398 827 l 1,22,-1
 452 763 l 1,23,-1
 269 625 l 1,20,-1
EndSplineSet
EndChar

StartChar: ocircumflex
Encoding: 244 244 181
Width: 604
GlyphClass: 2
Flags: W
LayerCount: 2
Fore
SplineSet
302 56 m 128,-1,1
 352 56 352 56 385.5 74.5 c 128,-1,2
 419 93 419 93 435 127.5 c 128,-1,3
 451 162 451 162 457.5 199.5 c 128,-1,4
 464 237 464 237 464 286 c 128,-1,5
 464 335 464 335 457.5 372.5 c 128,-1,6
 451 410 451 410 435 444.5 c 128,-1,7
 419 479 419 479 385.5 497.5 c 128,-1,8
 352 516 352 516 302 516 c 128,-1,9
 252 516 252 516 218.5 497.5 c 128,-1,10
 185 479 185 479 168.5 444.5 c 128,-1,11
 152 410 152 410 146 373 c 128,-1,12
 140 336 140 336 140 286 c 128,-1,13
 140 236 140 236 146 199 c 128,-1,14
 152 162 152 162 168.5 127.5 c 128,-1,15
 185 93 185 93 218.5 74.5 c 128,-1,0
 252 56 252 56 302 56 c 128,-1,1
302 -14 m 128,-1,17
 54 -14 54 -14 54 286 c 128,-1,18
 54 586 54 586 302 586 c 128,-1,19
 550 586 550 586 550 286 c 128,-1,16
 550 -14 550 -14 302 -14 c 128,-1,17
185 632 m 1,20,-1
 149 668 l 1,21,-1
 283 821 l 1,22,-1
 320 821 l 1,23,-1
 454 668 l 1,24,-1
 418 632 l 1,25,-1
 301 728 l 1,26,-1
 185 632 l 1,20,-1
EndSplineSet
EndChar

StartChar: otilde
Encoding: 245 245 182
Width: 604
GlyphClass: 2
Flags: W
LayerCount: 2
Fore
SplineSet
302 56 m 128,-1,1
 352 56 352 56 385.5 74.5 c 128,-1,2
 419 93 419 93 435 127.5 c 128,-1,3
 451 162 451 162 457.5 199.5 c 128,-1,4
 464 237 464 237 464 286 c 128,-1,5
 464 335 464 335 457.5 372.5 c 128,-1,6
 451 410 451 410 435 444.5 c 128,-1,7
 419 479 419 479 385.5 497.5 c 128,-1,8
 352 516 352 516 302 516 c 128,-1,9
 252 516 252 516 218.5 497.5 c 128,-1,10
 185 479 185 479 168.5 444.5 c 128,-1,11
 152 410 152 410 146 373 c 128,-1,12
 140 336 140 336 140 286 c 128,-1,13
 140 236 140 236 146 199 c 128,-1,14
 152 162 152 162 168.5 127.5 c 128,-1,15
 185 93 185 93 218.5 74.5 c 128,-1,0
 252 56 252 56 302 56 c 128,-1,1
302 -14 m 128,-1,17
 54 -14 54 -14 54 286 c 128,-1,18
 54 586 54 586 302 586 c 128,-1,19
 550 586 550 586 550 286 c 128,-1,16
 550 -14 550 -14 302 -14 c 128,-1,17
467 772 m 1,20,21
 440 673 440 673 378 673 c 0,22,23
 350 673 350 673 301.5 691 c 128,-1,24
 253 709 253 709 237.5 709 c 128,-1,25
 222 709 222 709 212 698.5 c 128,-1,26
 202 688 202 688 194 665 c 1,27,-1
 137 683 l 1,28,29
 152 737 152 737 174.5 759.5 c 128,-1,30
 197 782 197 782 225.5 782 c 128,-1,31
 254 782 254 782 303 764 c 128,-1,32
 352 746 352 746 367.5 746 c 128,-1,33
 383 746 383 746 393 756 c 128,-1,34
 403 766 403 766 411 790 c 1,35,-1
 467 772 l 1,20,21
EndSplineSet
EndChar

StartChar: odieresis
Encoding: 246 246 183
Width: 604
GlyphClass: 2
Flags: W
LayerCount: 2
Fore
SplineSet
302 56 m 128,-1,1
 352 56 352 56 385.5 74.5 c 128,-1,2
 419 93 419 93 435 127.5 c 128,-1,3
 451 162 451 162 457.5 199.5 c 128,-1,4
 464 237 464 237 464 286 c 128,-1,5
 464 335 464 335 457.5 372.5 c 128,-1,6
 451 410 451 410 435 444.5 c 128,-1,7
 419 479 419 479 385.5 497.5 c 128,-1,8
 352 516 352 516 302 516 c 128,-1,9
 252 516 252 516 218.5 497.5 c 128,-1,10
 185 479 185 479 168.5 444.5 c 128,-1,11
 152 410 152 410 146 373 c 128,-1,12
 140 336 140 336 140 286 c 128,-1,13
 140 236 140 236 146 199 c 128,-1,14
 152 162 152 162 168.5 127.5 c 128,-1,15
 185 93 185 93 218.5 74.5 c 128,-1,0
 252 56 252 56 302 56 c 128,-1,1
302 -14 m 128,-1,17
 54 -14 54 -14 54 286 c 128,-1,18
 54 586 54 586 302 586 c 128,-1,19
 550 586 550 586 550 286 c 128,-1,16
 550 -14 550 -14 302 -14 c 128,-1,17
230 676.5 m 128,-1,21
 218 667 218 667 195.5 667 c 128,-1,22
 173 667 173 667 161.5 676.5 c 128,-1,23
 150 686 150 686 148 696 c 128,-1,24
 146 706 146 706 146 723 c 128,-1,25
 146 740 146 740 148 750.5 c 128,-1,26
 150 761 150 761 161.5 770.5 c 128,-1,27
 173 780 173 780 200.5 780 c 128,-1,28
 228 780 228 780 237 765 c 128,-1,29
 246 750 246 750 246 728 c 128,-1,30
 246 706 246 706 244 696 c 128,-1,20
 242 686 242 686 230 676.5 c 128,-1,21
442 676.5 m 128,-1,32
 430 667 430 667 407.5 667 c 128,-1,33
 385 667 385 667 373.5 676.5 c 128,-1,34
 362 686 362 686 360 696 c 128,-1,35
 358 706 358 706 358 723 c 128,-1,36
 358 740 358 740 360 750.5 c 128,-1,37
 362 761 362 761 373.5 770.5 c 128,-1,38
 385 780 385 780 412.5 780 c 128,-1,39
 440 780 440 780 449 765 c 128,-1,40
 458 750 458 750 458 728 c 128,-1,41
 458 706 458 706 456 696 c 128,-1,31
 454 686 454 686 442 676.5 c 128,-1,32
EndSplineSet
EndChar

StartChar: divide
Encoding: 247 247 184
Width: 580
GlyphClass: 2
Flags: W
LayerCount: 2
Fore
SplineSet
92 284 m 1,0,-1
 92 352 l 1,1,-1
 488 352 l 1,2,-1
 488 284 l 1,3,-1
 92 284 l 1,0,-1
318.5 88 m 128,-1,5
 307 83 307 83 289.5 83 c 128,-1,6
 272 83 272 83 261 88 c 128,-1,7
 250 93 250 93 246 104 c 1,8,9
 238 121 238 121 238 140 c 128,-1,10
 238 159 238 159 239.5 168 c 128,-1,11
 241 177 241 177 246 188 c 0,12,13
 254 208 254 208 289 208 c 0,14,15
 326 208 326 208 334 188 c 0,16,17
 342 170 342 170 342 151 c 128,-1,18
 342 132 342 132 340.5 123 c 128,-1,19
 339 114 339 114 334.5 103.5 c 128,-1,4
 330 93 330 93 318.5 88 c 128,-1,5
318.5 423 m 128,-1,21
 307 418 307 418 289.5 418 c 128,-1,22
 272 418 272 418 261 423 c 128,-1,23
 250 428 250 428 246 438 c 0,24,25
 238 456 238 456 238 475 c 128,-1,26
 238 494 238 494 239.5 503 c 128,-1,27
 241 512 241 512 246 522 c 1,28,29
 254 543 254 543 289 543 c 0,30,31
 326 543 326 543 334 522 c 1,32,33
 342 505 342 505 342 486 c 128,-1,34
 342 467 342 467 340.5 458 c 128,-1,35
 339 449 339 449 334.5 438.5 c 128,-1,20
 330 428 330 428 318.5 423 c 128,-1,21
EndSplineSet
EndChar

StartChar: oslash
Encoding: 248 248 185
Width: 604
GlyphClass: 2
Flags: W
LayerCount: 2
Fore
SplineSet
54 286 m 0,0,1
 54 586 54 586 302 586 c 0,2,3
 321 586 321 586 351 582 c 1,4,-1
 379 686 l 1,5,-1
 440 686 l 1,6,-1
 408 568 l 1,7,8
 550 513 550 513 550 286 c 0,9,10
 550 -14 550 -14 302 -14 c 0,11,12
 276 -14 276 -14 253 -11 c 1,13,-1
 225 -115 l 1,14,-1
 165 -115 l 1,15,-1
 196 3 l 1,16,17
 54 57 54 57 54 286 c 0,0,1
140 286 m 0,18,19
 140 121 140 121 216 76 c 1,20,-1
 333 513 l 1,21,22
 318 516 318 516 302 516 c 0,23,24
 203 516 203 516 168 444 c 0,25,26
 140 385 140 385 140 286 c 0,18,19
302 56 m 0,27,28
 402 56 402 56 435 128 c 0,29,30
 464 190 464 190 464 286 c 0,31,32
 464 449 464 449 388 495 c 1,33,-1
 271 58 l 1,34,35
 281 56 281 56 302 56 c 0,27,28
EndSplineSet
EndChar

StartChar: ugrave
Encoding: 249 249 186
Width: 660
GlyphClass: 2
Flags: W
LayerCount: 2
Fore
SplineSet
265 -14 m 0,0,1
 176 -14 176 -14 136 30.5 c 128,-1,2
 96 75 96 75 96 164 c 2,3,-1
 96 572 l 1,4,-1
 182 572 l 1,5,-1
 182 170 l 2,6,7
 182 111 182 111 207.5 83.5 c 128,-1,8
 233 56 233 56 287 56 c 0,9,10
 384 56 384 56 468 155 c 1,11,-1
 468 572 l 1,12,-1
 554 572 l 1,13,-1
 554 0 l 1,14,-1
 497 0 l 1,15,-1
 470 85 l 1,16,17
 377 -14 377 -14 265 -14 c 0,0,1
414 671 m 1,18,-1
 375 625 l 1,19,-1
 192 763 l 1,20,-1
 246 827 l 1,21,-1
 414 671 l 1,18,-1
EndSplineSet
EndChar

StartChar: uacute
Encoding: 250 250 187
Width: 660
GlyphClass: 2
Flags: W
LayerCount: 2
Fore
SplineSet
265 -14 m 0,0,1
 176 -14 176 -14 136 30.5 c 128,-1,2
 96 75 96 75 96 164 c 2,3,-1
 96 572 l 1,4,-1
 182 572 l 1,5,-1
 182 170 l 2,6,7
 182 111 182 111 207.5 83.5 c 128,-1,8
 233 56 233 56 287 56 c 0,9,10
 384 56 384 56 468 155 c 1,11,-1
 468 572 l 1,12,-1
 554 572 l 1,13,-1
 554 0 l 1,14,-1
 497 0 l 1,15,-1
 470 85 l 1,16,17
 377 -14 377 -14 265 -14 c 0,0,1
306 625 m 1,18,-1
 267 671 l 1,19,-1
 435 827 l 1,20,-1
 489 763 l 1,21,-1
 306 625 l 1,18,-1
EndSplineSet
EndChar

StartChar: ucircumflex
Encoding: 251 251 188
Width: 660
GlyphClass: 2
Flags: W
LayerCount: 2
Fore
SplineSet
265 -14 m 0,0,1
 176 -14 176 -14 136 30.5 c 128,-1,2
 96 75 96 75 96 164 c 2,3,-1
 96 572 l 1,4,-1
 182 572 l 1,5,-1
 182 170 l 2,6,7
 182 111 182 111 207.5 83.5 c 128,-1,8
 233 56 233 56 287 56 c 0,9,10
 384 56 384 56 468 155 c 1,11,-1
 468 572 l 1,12,-1
 554 572 l 1,13,-1
 554 0 l 1,14,-1
 497 0 l 1,15,-1
 470 85 l 1,16,17
 377 -14 377 -14 265 -14 c 0,0,1
219 632 m 1,18,-1
 183 668 l 1,19,-1
 317 821 l 1,20,-1
 354 821 l 1,21,-1
 488 668 l 1,22,-1
 452 632 l 1,23,-1
 335 728 l 1,24,-1
 219 632 l 1,18,-1
EndSplineSet
EndChar

StartChar: udieresis
Encoding: 252 252 189
Width: 660
GlyphClass: 2
Flags: W
LayerCount: 2
Fore
SplineSet
265 -14 m 0,0,1
 176 -14 176 -14 136 30.5 c 128,-1,2
 96 75 96 75 96 164 c 2,3,-1
 96 572 l 1,4,-1
 182 572 l 1,5,-1
 182 170 l 2,6,7
 182 111 182 111 207.5 83.5 c 128,-1,8
 233 56 233 56 287 56 c 0,9,10
 384 56 384 56 468 155 c 1,11,-1
 468 572 l 1,12,-1
 554 572 l 1,13,-1
 554 0 l 1,14,-1
 497 0 l 1,15,-1
 470 85 l 1,16,17
 377 -14 377 -14 265 -14 c 0,0,1
263 676.5 m 128,-1,19
 251 667 251 667 228.5 667 c 128,-1,20
 206 667 206 667 194.5 676.5 c 128,-1,21
 183 686 183 686 181 696 c 128,-1,22
 179 706 179 706 179 723 c 128,-1,23
 179 740 179 740 181 750.5 c 128,-1,24
 183 761 183 761 194.5 770.5 c 128,-1,25
 206 780 206 780 233.5 780 c 128,-1,26
 261 780 261 780 270 765 c 128,-1,27
 279 750 279 750 279 728 c 128,-1,28
 279 706 279 706 277 696 c 128,-1,18
 275 686 275 686 263 676.5 c 128,-1,19
475 676.5 m 128,-1,30
 463 667 463 667 440.5 667 c 128,-1,31
 418 667 418 667 406.5 676.5 c 128,-1,32
 395 686 395 686 393 696 c 128,-1,33
 391 706 391 706 391 723 c 128,-1,34
 391 740 391 740 393 750.5 c 128,-1,35
 395 761 395 761 406.5 770.5 c 128,-1,36
 418 780 418 780 445.5 780 c 128,-1,37
 473 780 473 780 482 765 c 128,-1,38
 491 750 491 750 491 728 c 128,-1,39
 491 706 491 706 489 696 c 128,-1,29
 487 686 487 686 475 676.5 c 128,-1,30
EndSplineSet
EndChar

StartChar: yacute
Encoding: 253 253 190
Width: 542
GlyphClass: 2
Flags: W
LayerCount: 2
Fore
SplineSet
222 -245 m 1,0,-1
 144 -231 l 1,1,-1
 232 -4 l 1,2,-1
 16 572 l 1,3,-1
 105 572 l 1,4,-1
 274 109 l 1,5,-1
 438 572 l 1,6,-1
 526 572 l 1,7,-1
 222 -245 l 1,0,-1
230 625 m 1,8,-1
 191 671 l 1,9,-1
 359 827 l 1,10,-1
 413 763 l 1,11,-1
 230 625 l 1,8,-1
EndSplineSet
EndChar

StartChar: thorn
Encoding: 254 254 191
Width: 629
GlyphClass: 2
Flags: W
LayerCount: 2
Fore
SplineSet
353 586 m 0,0,1
 575 586 575 586 575 286 c 128,-1,2
 575 -14 575 -14 353 -14 c 0,3,4
 273 -14 273 -14 192 20 c 1,5,-1
 192 -222 l 1,6,-1
 106 -222 l 1,7,-1
 106 730 l 1,8,-1
 192 748 l 1,9,-1
 192 525 l 1,10,11
 270 586 270 586 353 586 c 0,0,1
344 512 m 0,12,13
 261 512 261 512 192 450 c 1,14,-1
 192 89 l 1,15,16
 259 60 259 60 344 60 c 0,17,18
 489 60 489 60 489 286 c 128,-1,19
 489 512 489 512 344 512 c 0,12,13
EndSplineSet
EndChar

StartChar: ydieresis
Encoding: 255 255 192
Width: 542
GlyphClass: 2
Flags: W
LayerCount: 2
Fore
SplineSet
222 -245 m 1,0,-1
 144 -231 l 1,1,-1
 232 -4 l 1,2,-1
 16 572 l 1,3,-1
 105 572 l 1,4,-1
 274 109 l 1,5,-1
 438 572 l 1,6,-1
 526 572 l 1,7,-1
 222 -245 l 1,0,-1
216 676.5 m 128,-1,9
 204 667 204 667 181.5 667 c 128,-1,10
 159 667 159 667 147.5 676.5 c 128,-1,11
 136 686 136 686 134 696 c 128,-1,12
 132 706 132 706 132 723 c 128,-1,13
 132 740 132 740 134 750.5 c 128,-1,14
 136 761 136 761 147.5 770.5 c 128,-1,15
 159 780 159 780 186.5 780 c 128,-1,16
 214 780 214 780 223 765 c 128,-1,17
 232 750 232 750 232 728 c 128,-1,18
 232 706 232 706 230 696 c 128,-1,8
 228 686 228 686 216 676.5 c 128,-1,9
428 676.5 m 128,-1,20
 416 667 416 667 393.5 667 c 128,-1,21
 371 667 371 667 359.5 676.5 c 128,-1,22
 348 686 348 686 346 696 c 128,-1,23
 344 706 344 706 344 723 c 128,-1,24
 344 740 344 740 346 750.5 c 128,-1,25
 348 761 348 761 359.5 770.5 c 128,-1,26
 371 780 371 780 398.5 780 c 128,-1,27
 426 780 426 780 435 765 c 128,-1,28
 444 750 444 750 444 728 c 128,-1,29
 444 706 444 706 442 696 c 128,-1,19
 440 686 440 686 428 676.5 c 128,-1,20
EndSplineSet
EndChar

StartChar: dotlessi
Encoding: 305 305 193
Width: 298
GlyphClass: 2
Flags: W
LayerCount: 2
Fore
SplineSet
106 572 m 1,0,-1
 192 572 l 1,1,-1
 192 0 l 1,2,-1
 106 0 l 1,3,-1
 106 572 l 1,0,-1
EndSplineSet
EndChar

StartChar: Lslash
Encoding: 321 321 194
Width: 482
GlyphClass: 2
Flags: W
LayerCount: 2
Fore
SplineSet
106 730 m 1,0,-1
 194 730 l 1,1,-1
 194 428 l 1,2,-1
 280 463 l 1,3,-1
 280 400 l 1,4,-1
 194 365 l 1,5,-1
 194 70 l 1,6,-1
 466 70 l 1,7,-1
 466 0 l 1,8,-1
 106 0 l 1,9,-1
 106 330 l 1,10,-1
 22 296 l 1,11,-1
 22 359 l 1,12,-1
 106 393 l 1,13,-1
 106 730 l 1,0,-1
EndSplineSet
EndChar

StartChar: lslash
Encoding: 322 322 195
Width: 298
GlyphClass: 2
Flags: W
LayerCount: 2
Fore
SplineSet
192 0 m 1,0,-1
 106 0 l 1,1,-1
 106 330 l 1,2,-1
 20 296 l 1,3,-1
 20 359 l 1,4,-1
 106 393 l 1,5,-1
 106 758 l 1,6,-1
 192 770 l 1,7,-1
 192 428 l 1,8,-1
 278 463 l 1,9,-1
 278 400 l 1,10,-1
 192 365 l 1,11,-1
 192 0 l 1,0,-1
EndSplineSet
EndChar

StartChar: OE
Encoding: 338 338 196
Width: 967
GlyphClass: 2
Flags: W
LayerCount: 2
Fore
SplineSet
355 0 m 2,0,1
 190 0 190 0 128 100 c 0,2,3
 98 150 98 150 86 213 c 128,-1,4
 74 276 74 276 74 364.5 c 128,-1,5
 74 453 74 453 86 516 c 128,-1,6
 98 579 98 579 128 630 c 0,7,8
 189 730 189 730 355 730 c 2,9,-1
 901 730 l 1,10,-1
 901 660 l 1,11,-1
 557 660 l 1,12,13
 629 585 629 585 636 406 c 1,14,-1
 880 406 l 1,15,-1
 880 336 l 1,16,-1
 636 336 l 1,17,18
 633 147 633 147 558 70 c 1,19,-1
 921 70 l 1,20,-1
 921 0 l 1,21,-1
 355 0 l 2,0,1
507 145 m 128,-1,23
 549 219 549 219 549 365 c 128,-1,24
 549 511 549 511 507 585 c 128,-1,25
 465 659 465 659 355 659 c 0,26,27
 240 659 240 659 200 578 c 1,28,29
 162 504 162 504 162 365 c 128,-1,30
 162 226 162 226 200 152 c 1,31,32
 240 71 240 71 352.5 71 c 128,-1,22
 465 71 465 71 507 145 c 128,-1,23
EndSplineSet
EndChar

StartChar: oe
Encoding: 339 339 197
Width: 989
GlyphClass: 2
Flags: W
LayerCount: 2
Fore
SplineSet
708 -14 m 0,0,1
 560 -14 560 -14 505 87 c 1,2,3
 445 -14 445 -14 302 -14 c 0,4,5
 54 -14 54 -14 54 286 c 128,-1,6
 54 586 54 586 302 586 c 0,7,8
 447 586 447 586 506 482 c 1,9,10
 565 586 565 586 704 586 c 0,11,12
 940 586 940 586 940 298 c 2,13,-1
 940 277 l 1,14,-1
 550 277 l 1,15,16
 552 162 552 162 587.5 109 c 128,-1,17
 623 56 623 56 708 56 c 0,18,19
 848 56 848 56 860 171 c 1,20,-1
 931 167 l 1,21,22
 912 -14 912 -14 708 -14 c 0,0,1
218 74 m 1,23,24
 252 56 252 56 301 56 c 128,-1,25
 350 56 350 56 383 73.5 c 128,-1,26
 416 91 416 91 433 123 c 0,27,28
 464 181 464 181 464 274 c 0,29,30
 464 376 464 376 437 440 c 0,31,32
 404 516 404 516 302 516 c 0,33,34
 203 516 203 516 168 444 c 0,35,36
 140 385 140 385 140 286 c 0,37,38
 140 118 140 118 218 74 c 1,23,24
816 470.5 m 128,-1,40
 783 516 783 516 704.5 516 c 128,-1,41
 626 516 626 516 592.5 469.5 c 128,-1,42
 559 423 559 423 552 341 c 1,43,-1
 854 341 l 1,44,39
 849 425 849 425 816 470.5 c 128,-1,40
EndSplineSet
EndChar

StartChar: Scaron
Encoding: 352 352 198
Width: 598
GlyphClass: 2
Flags: W
LayerCount: 2
Fore
SplineSet
498.5 323 m 128,-1,1
 542 280 542 280 542 190.5 c 128,-1,2
 542 101 542 101 479.5 43.5 c 128,-1,3
 417 -14 417 -14 298.5 -14 c 128,-1,4
 180 -14 180 -14 125 35 c 128,-1,5
 70 84 70 84 56 176 c 1,6,-1
 128 189 l 1,7,8
 147 57 147 57 291 57 c 0,9,10
 454 57 454 57 454 186 c 0,11,12
 454 242 454 242 424 269 c 128,-1,13
 394 296 394 296 324 315 c 1,14,-1
 258 334 l 1,15,16
 155 362 155 362 113 405.5 c 128,-1,17
 71 449 71 449 71 538.5 c 128,-1,18
 71 628 71 628 131 686 c 128,-1,19
 191 744 191 744 305.5 744 c 128,-1,20
 420 744 420 744 472 695 c 128,-1,21
 524 646 524 646 538 554 c 1,22,-1
 466 541 l 1,23,24
 447 673 447 673 314 673 c 0,25,26
 159 673 159 673 159 544 c 0,27,28
 159 488 159 488 186.5 460.5 c 128,-1,29
 214 433 214 433 280 415 c 2,30,-1
 349 396 l 2,31,0
 455 366 455 366 498.5 323 c 128,-1,1
421 977 m 1,32,-1
 457 941 l 1,33,-1
 323 788 l 1,34,-1
 286 788 l 1,35,-1
 152 941 l 1,36,-1
 188 977 l 1,37,-1
 305 881 l 1,38,-1
 421 977 l 1,32,-1
EndSplineSet
EndChar

StartChar: scaron
Encoding: 353 353 199
Width: 540
GlyphClass: 2
Flags: W
LayerCount: 2
Fore
SplineSet
445.5 260.5 m 128,-1,1
 484 224 484 224 484 151.5 c 128,-1,2
 484 79 484 79 430 34 c 128,-1,3
 376 -11 376 -11 270 -11 c 128,-1,4
 164 -11 164 -11 116.5 29.5 c 128,-1,5
 69 70 69 70 56 147 c 1,6,-1
 126 158 l 1,7,8
 141 57 141 57 263 57 c 0,9,10
 398 57 398 57 398 148 c 0,11,12
 398 188 398 188 373.5 207 c 128,-1,13
 349 226 349 226 286 242 c 2,14,-1
 229 256 l 2,15,16
 142 278 142 278 105.5 314 c 128,-1,17
 69 350 69 350 69 423.5 c 128,-1,18
 69 497 69 497 121 541.5 c 128,-1,19
 173 586 173 586 274.5 586 c 128,-1,20
 376 586 376 586 421.5 545.5 c 128,-1,21
 467 505 467 505 480 428 c 1,22,-1
 409 417 l 1,23,24
 396 518 396 518 281 518 c 0,25,26
 155 518 155 518 155 427 c 0,27,28
 155 387 155 387 178 367.5 c 128,-1,29
 201 348 201 348 259 333 c 2,30,-1
 317 319 l 2,31,0
 407 297 407 297 445.5 260.5 c 128,-1,1
418 819 m 1,32,-1
 454 783 l 1,33,-1
 320 630 l 1,34,-1
 283 630 l 1,35,-1
 149 783 l 1,36,-1
 185 819 l 1,37,-1
 302 723 l 1,38,-1
 418 819 l 1,32,-1
EndSplineSet
EndChar

StartChar: Ydieresis
Encoding: 376 376 200
Width: 550
GlyphClass: 2
Flags: W
LayerCount: 2
Fore
SplineSet
319 0 m 1,0,-1
 231 0 l 1,1,-1
 231 254 l 1,2,-1
 6 730 l 1,3,-1
 96 730 l 1,4,-1
 275 340 l 1,5,-1
 454 730 l 1,6,-1
 544 730 l 1,7,-1
 319 254 l 1,8,-1
 319 0 l 1,0,-1
203 834.5 m 128,-1,10
 191 825 191 825 168.5 825 c 128,-1,11
 146 825 146 825 134.5 834.5 c 128,-1,12
 123 844 123 844 121 854 c 128,-1,13
 119 864 119 864 119 881 c 128,-1,14
 119 898 119 898 121 908.5 c 128,-1,15
 123 919 123 919 134.5 928.5 c 128,-1,16
 146 938 146 938 173.5 938 c 128,-1,17
 201 938 201 938 210 923 c 128,-1,18
 219 908 219 908 219 886 c 128,-1,19
 219 864 219 864 217 854 c 128,-1,9
 215 844 215 844 203 834.5 c 128,-1,10
415 834.5 m 128,-1,21
 403 825 403 825 380.5 825 c 128,-1,22
 358 825 358 825 346.5 834.5 c 128,-1,23
 335 844 335 844 333 854 c 128,-1,24
 331 864 331 864 331 881 c 128,-1,25
 331 898 331 898 333 908.5 c 128,-1,26
 335 919 335 919 346.5 928.5 c 128,-1,27
 358 938 358 938 385.5 938 c 128,-1,28
 413 938 413 938 422 923 c 128,-1,29
 431 908 431 908 431 886 c 128,-1,30
 431 864 431 864 429 854 c 128,-1,20
 427 844 427 844 415 834.5 c 128,-1,21
EndSplineSet
EndChar

StartChar: Zcaron
Encoding: 381 381 201
Width: 549
GlyphClass: 2
Flags: W
LayerCount: 2
Fore
SplineSet
511 730 m 1,0,-1
 511 674 l 1,1,-1
 135 70 l 1,2,-1
 521 70 l 1,3,-1
 521 0 l 1,4,-1
 28 0 l 1,5,-1
 28 56 l 1,6,-1
 404 660 l 1,7,-1
 47 660 l 1,8,-1
 48 730 l 1,9,-1
 511 730 l 1,0,-1
401 977 m 1,10,-1
 437 941 l 1,11,-1
 303 788 l 1,12,-1
 266 788 l 1,13,-1
 132 941 l 1,14,-1
 168 977 l 1,15,-1
 285 881 l 1,16,-1
 401 977 l 1,10,-1
EndSplineSet
EndChar

StartChar: zcaron
Encoding: 382 382 202
Width: 520
GlyphClass: 2
Flags: W
LayerCount: 2
Fore
SplineSet
54 506 m 1,0,-1
 54 572 l 1,1,-1
 465 572 l 1,2,-1
 465 514 l 1,3,-1
 147 66 l 1,4,-1
 478 66 l 1,5,-1
 478 0 l 1,6,-1
 42 0 l 1,7,-1
 42 58 l 1,8,-1
 362 506 l 1,9,-1
 54 506 l 1,0,-1
400 819 m 1,10,-1
 436 783 l 1,11,-1
 302 630 l 1,12,-1
 265 630 l 1,13,-1
 131 783 l 1,14,-1
 167 819 l 1,15,-1
 284 723 l 1,16,-1
 400 819 l 1,10,-1
EndSplineSet
EndChar

StartChar: florin
Encoding: 402 402 203
Width: 630
GlyphClass: 2
Flags: W
LayerCount: 2
Fore
SplineSet
439 673 m 0,0,1
 334 673 334 673 334 519 c 2,2,-1
 334 374 l 1,3,-1
 504 374 l 1,4,-1
 504 314 l 1,5,-1
 334 314 l 1,6,-1
 334 -2 l 2,7,8
 334 -117 334 -117 291 -167.5 c 128,-1,9
 248 -218 248 -218 133 -218 c 1,10,-1
 128 -142 l 1,11,12
 194 -142 194 -142 220 -111 c 128,-1,13
 246 -80 246 -80 246 -2 c 2,14,-1
 246 314 l 1,15,-1
 122 314 l 1,16,-1
 122 374 l 1,17,-1
 246 374 l 1,18,-1
 246 519 l 2,19,20
 246 634 246 634 292 689 c 128,-1,21
 338 744 338 744 436 744 c 0,22,23
 510 744 510 744 562 711 c 1,24,-1
 533 649 l 1,25,26
 494 673 494 673 439 673 c 0,0,1
EndSplineSet
EndChar

StartChar: circumflex
Encoding: 710 710 204
Width: 397
GlyphClass: 2
Flags: W
LayerCount: 2
Fore
SplineSet
82 632 m 1,0,-1
 46 668 l 1,1,-1
 180 821 l 1,2,-1
 217 821 l 1,3,-1
 351 668 l 1,4,-1
 315 632 l 1,5,-1
 198 728 l 1,6,-1
 82 632 l 1,0,-1
EndSplineSet
EndChar

StartChar: caron
Encoding: 711 711 205
Width: 367
GlyphClass: 2
Flags: W
LayerCount: 2
Fore
SplineSet
300 819 m 1,0,-1
 336 783 l 1,1,-1
 202 630 l 1,2,-1
 165 630 l 1,3,-1
 31 783 l 1,4,-1
 67 819 l 1,5,-1
 184 723 l 1,6,-1
 300 819 l 1,0,-1
EndSplineSet
EndChar

StartChar: breve
Encoding: 728 728 206
Width: 421
GlyphClass: 2
Flags: W
LayerCount: 2
Fore
SplineSet
278 781 m 1,0,-1
 339 781 l 1,1,2
 339 721 339 721 318 686 c 0,3,4
 293 642 293 642 212.5 642 c 128,-1,5
 132 642 132 642 107 679 c 128,-1,6
 82 716 82 716 82 781 c 1,7,-1
 142 781 l 1,8,9
 142 725 142 725 172 714 c 0,10,11
 187 708 187 708 220 708 c 128,-1,12
 253 708 253 708 265.5 726.5 c 128,-1,13
 278 745 278 745 278 781 c 1,0,-1
EndSplineSet
EndChar

StartChar: dotaccent
Encoding: 729 729 207
Width: 270
GlyphClass: 2
Flags: W
LayerCount: 2
Fore
SplineSet
182 666 m 128,-1,1
 168 654 168 654 142.5 654 c 128,-1,2
 117 654 117 654 103.5 666 c 128,-1,3
 90 678 90 678 87.5 691 c 128,-1,4
 85 704 85 704 85 725.5 c 128,-1,5
 85 747 85 747 87.5 760 c 128,-1,6
 90 773 90 773 103.5 785 c 128,-1,7
 117 797 117 797 142.5 797 c 128,-1,8
 168 797 168 797 182 785 c 128,-1,9
 196 773 196 773 198.5 760 c 128,-1,10
 201 747 201 747 201 725.5 c 128,-1,11
 201 704 201 704 198.5 691 c 128,-1,0
 196 678 196 678 182 666 c 128,-1,1
EndSplineSet
EndChar

StartChar: ring
Encoding: 730 730 208
Width: 270
GlyphClass: 2
Flags: W
LayerCount: 2
Fore
SplineSet
134 668 m 0,0,1
 181 668 181 668 181 725 c 128,-1,2
 181 782 181 782 134 782 c 0,3,4
 90 782 90 782 90 725 c 128,-1,5
 90 668 90 668 134 668 c 0,0,1
134 621 m 0,6,7
 32 621 32 621 32 725 c 0,8,9
 32 751 32 751 39 772.5 c 128,-1,10
 46 794 46 794 70 812 c 128,-1,11
 94 830 94 830 134 830 c 0,12,13
 238 830 238 830 238 725.5 c 128,-1,14
 238 621 238 621 134 621 c 0,6,7
EndSplineSet
EndChar

StartChar: ogonek
Encoding: 731 731 209
Width: 328
GlyphClass: 2
Flags: W
LayerCount: 2
Fore
SplineSet
145 -221 m 0,0,1
 94 -221 94 -221 69 -196.5 c 128,-1,2
 44 -172 44 -172 44 -131.5 c 128,-1,3
 44 -91 44 -91 67 -66.5 c 128,-1,4
 90 -42 90 -42 137 -13 c 2,5,-1
 228 43 l 1,6,-1
 252 8 l 1,7,-1
 170 -42 l 2,8,9
 135 -64 135 -64 121 -80.5 c 128,-1,10
 107 -97 107 -97 107 -119 c 0,11,12
 107 -165 107 -165 156.5 -165 c 128,-1,13
 206 -165 206 -165 241 -106 c 1,14,-1
 282 -132 l 1,15,16
 233 -221 233 -221 145 -221 c 0,0,1
EndSplineSet
EndChar

StartChar: tilde
Encoding: 732 732 210
Width: 406
GlyphClass: 2
Flags: W
LayerCount: 2
Fore
SplineSet
368 772 m 1,0,1
 340 673 340 673 280 673 c 0,2,3
 251 673 251 673 202.5 691 c 128,-1,4
 154 709 154 709 138.5 709 c 128,-1,5
 123 709 123 709 113 698.5 c 128,-1,6
 103 688 103 688 95 665 c 1,7,-1
 38 683 l 1,8,9
 53 737 53 737 75.5 759.5 c 128,-1,10
 98 782 98 782 126.5 782 c 128,-1,11
 155 782 155 782 204 764 c 128,-1,12
 253 746 253 746 268.5 746 c 128,-1,13
 284 746 284 746 294 756 c 128,-1,14
 304 766 304 766 312 790 c 1,15,-1
 368 772 l 1,0,1
EndSplineSet
EndChar

StartChar: hungarumlaut
Encoding: 733 733 211
Width: 543
GlyphClass: 2
Flags: W
LayerCount: 2
Fore
SplineSet
79 625 m 1,0,-1
 40 671 l 1,1,-1
 208 827 l 1,2,-1
 262 763 l 1,3,-1
 79 625 l 1,0,-1
322 625 m 1,4,-1
 283 671 l 1,5,-1
 451 827 l 1,6,-1
 505 763 l 1,7,-1
 322 625 l 1,4,-1
EndSplineSet
EndChar

StartChar: pi
Encoding: 960 960 212
Width: 639
GlyphClass: 2
Flags: W
LayerCount: 2
Fore
SplineSet
64 513 m 1,0,-1
 64 572 l 1,1,-1
 575 572 l 1,2,-1
 575 513 l 1,3,-1
 515 513 l 1,4,-1
 515 0 l 1,5,-1
 429 0 l 1,6,-1
 429 513 l 1,7,-1
 210 513 l 1,8,-1
 210 0 l 1,9,-1
 124 0 l 1,10,-1
 124 513 l 1,11,-1
 64 513 l 1,0,-1
EndSplineSet
EndChar

StartChar: endash
Encoding: 8211 8211 213
Width: 576
GlyphClass: 2
Flags: W
LayerCount: 2
Fore
SplineSet
68 284 m 1,0,-1
 68 352 l 1,1,-1
 508 352 l 1,2,-1
 508 284 l 1,3,-1
 68 284 l 1,0,-1
EndSplineSet
EndChar

StartChar: emdash
Encoding: 8212 8212 214
Width: 909
GlyphClass: 2
Flags: W
LayerCount: 2
Fore
SplineSet
68 284 m 1,0,-1
 68 352 l 1,1,-1
 841 352 l 1,2,-1
 841 284 l 1,3,-1
 68 284 l 1,0,-1
EndSplineSet
EndChar

StartChar: quoteleft
Encoding: 8216 8216 215
Width: 281
GlyphClass: 2
Flags: W
LayerCount: 2
Fore
SplineSet
173.5 641 m 128,-1,1
 180 618 180 618 180 602.5 c 128,-1,2
 180 587 180 587 178.5 578 c 128,-1,3
 177 569 177 569 172 558 c 0,4,5
 164 538 164 538 129.5 538 c 128,-1,6
 95 538 95 538 84.5 555 c 128,-1,7
 74 572 74 572 74 604 c 128,-1,8
 74 636 74 636 87.5 669.5 c 128,-1,9
 101 703 101 703 123 728 c 0,10,11
 156 764 156 764 181 783 c 1,12,-1
 207 753 l 1,13,14
 167 718 167 718 167 674 c 0,15,0
 167 664 167 664 173.5 641 c 128,-1,1
EndSplineSet
EndChar

StartChar: quoteright
Encoding: 8217 8217 216
Width: 275
GlyphClass: 2
Flags: W
LayerCount: 2
Fore
SplineSet
107.5 680.5 m 128,-1,1
 101 704 101 704 101 719 c 128,-1,2
 101 734 101 734 102.5 743 c 128,-1,3
 104 752 104 752 108 762 c 0,4,5
 117 783 117 783 151.5 783 c 128,-1,6
 186 783 186 783 196.5 766 c 128,-1,7
 207 749 207 749 207 712 c 128,-1,8
 207 675 207 675 181 630 c 128,-1,9
 155 585 155 585 136 568 c 128,-1,10
 117 551 117 551 100 538 c 1,11,-1
 74 569 l 1,12,13
 114 604 114 604 114 648 c 0,14,0
 114 657 114 657 107.5 680.5 c 128,-1,1
EndSplineSet
EndChar

StartChar: quotesinglbase
Encoding: 8218 8218 217
Width: 226
GlyphClass: 2
Flags: W
LayerCount: 2
Fore
SplineSet
67 18 m 128,-1,1
 60 41 60 41 60 57.5 c 128,-1,2
 60 74 60 74 62.5 84.5 c 128,-1,3
 65 95 65 95 77 105 c 128,-1,4
 89 115 89 115 112.5 115 c 128,-1,5
 136 115 136 115 148.5 105 c 128,-1,6
 161 95 161 95 163.5 84.5 c 128,-1,7
 166 74 166 74 166 47.5 c 128,-1,8
 166 21 166 21 152.5 -11.5 c 128,-1,9
 139 -44 139 -44 117 -68 c 0,10,11
 84 -105 84 -105 59 -124 c 1,12,-1
 33 -94 l 1,13,14
 47 -81 47 -81 54 -73 c 0,15,16
 74 -50 74 -50 74 -15 c 0,17,0
 74 -5 74 -5 67 18 c 128,-1,1
EndSplineSet
EndChar

StartChar: quotedblleft
Encoding: 8220 8220 218
Width: 444
GlyphClass: 2
Flags: W
LayerCount: 2
Fore
SplineSet
173.5 641 m 128,-1,1
 180 618 180 618 180 600 c 128,-1,2
 180 582 180 582 177.5 570.5 c 128,-1,3
 175 559 175 559 162.5 548.5 c 128,-1,4
 150 538 150 538 122 538 c 128,-1,5
 94 538 94 538 84 555 c 128,-1,6
 74 572 74 572 74 604 c 128,-1,7
 74 636 74 636 87.5 669.5 c 128,-1,8
 101 703 101 703 123 728 c 0,9,10
 156 764 156 764 181 783 c 1,11,-1
 208 753 l 1,12,13
 167 717 167 717 167 674 c 0,14,0
 167 664 167 664 173.5 641 c 128,-1,1
336.5 641 m 128,-1,16
 343 618 343 618 343 602.5 c 128,-1,17
 343 587 343 587 341.5 578 c 128,-1,18
 340 569 340 569 336 558 c 0,19,20
 327 538 327 538 292.5 538 c 128,-1,21
 258 538 258 538 247.5 555 c 128,-1,22
 237 572 237 572 237 604 c 128,-1,23
 237 636 237 636 250.5 669.5 c 128,-1,24
 264 703 264 703 286 728 c 0,25,26
 319 764 319 764 344 783 c 1,27,-1
 370 753 l 1,28,29
 330 718 330 718 330 674 c 0,30,15
 330 664 330 664 336.5 641 c 128,-1,16
EndSplineSet
EndChar

StartChar: quotedblright
Encoding: 8221 8221 219
Width: 444
GlyphClass: 2
Flags: W
LayerCount: 2
Fore
SplineSet
270.5 680.5 m 128,-1,1
 264 704 264 704 264 721.5 c 128,-1,2
 264 739 264 739 266.5 750.5 c 128,-1,3
 269 762 269 762 281.5 772.5 c 128,-1,4
 294 783 294 783 322 783 c 128,-1,5
 350 783 350 783 360 766 c 128,-1,6
 370 749 370 749 370 712 c 128,-1,7
 370 675 370 675 344 630 c 128,-1,8
 318 585 318 585 299 568 c 128,-1,9
 280 551 280 551 263 538 c 1,10,-1
 236 569 l 1,11,12
 257 587 257 587 267 604 c 128,-1,13
 277 621 277 621 277 639 c 128,-1,0
 277 657 277 657 270.5 680.5 c 128,-1,1
107.5 680.5 m 128,-1,15
 101 704 101 704 101 719 c 128,-1,16
 101 734 101 734 102.5 743 c 128,-1,17
 104 752 104 752 108 762 c 0,18,19
 117 783 117 783 151.5 783 c 128,-1,20
 186 783 186 783 196.5 766 c 128,-1,21
 207 749 207 749 207 712 c 128,-1,22
 207 675 207 675 181 630 c 128,-1,23
 155 585 155 585 136 568 c 128,-1,24
 117 551 117 551 100 538 c 1,25,-1
 74 569 l 1,26,27
 114 604 114 604 114 648 c 0,28,14
 114 657 114 657 107.5 680.5 c 128,-1,15
EndSplineSet
EndChar

StartChar: quotedblbase
Encoding: 8222 8222 220
Width: 389
GlyphClass: 2
Flags: W
LayerCount: 2
Fore
SplineSet
229.5 17.5 m 128,-1,1
 223 41 223 41 223 58.5 c 128,-1,2
 223 76 223 76 225.5 87.5 c 128,-1,3
 228 99 228 99 240.5 109.5 c 128,-1,4
 253 120 253 120 281 120 c 128,-1,5
 309 120 309 120 319 103 c 128,-1,6
 329 86 329 86 329 49 c 128,-1,7
 329 12 329 12 303 -33 c 128,-1,8
 277 -78 277 -78 258 -95 c 128,-1,9
 239 -112 239 -112 222 -125 c 1,10,-1
 195 -94 l 1,11,12
 216 -76 216 -76 226 -59 c 128,-1,13
 236 -42 236 -42 236 -24 c 128,-1,0
 236 -6 236 -6 229.5 17.5 c 128,-1,1
66.5 17.5 m 128,-1,15
 60 41 60 41 60 56 c 128,-1,16
 60 71 60 71 61.5 80 c 128,-1,17
 63 89 63 89 68 100 c 0,18,19
 76 120 76 120 110.5 120 c 128,-1,20
 145 120 145 120 155.5 103 c 128,-1,21
 166 86 166 86 166 49 c 128,-1,22
 166 12 166 12 140 -33 c 128,-1,23
 114 -78 114 -78 95 -95 c 128,-1,24
 76 -112 76 -112 59 -125 c 1,25,-1
 33 -94 l 1,26,27
 73 -59 73 -59 73 -15 c 0,28,14
 73 -6 73 -6 66.5 17.5 c 128,-1,15
EndSplineSet
EndChar

StartChar: dagger
Encoding: 8224 8224 221
Width: 448
GlyphClass: 2
Flags: W
LayerCount: 2
Fore
SplineSet
430 572 m 1,0,-1
 430 494 l 1,1,-1
 382 494 l 1,2,-1
 268 505 l 1,3,-1
 254 0 l 1,4,-1
 194 0 l 1,5,-1
 180 505 l 1,6,-1
 66 494 l 1,7,-1
 18 494 l 1,8,-1
 18 572 l 1,9,-1
 66 572 l 1,10,-1
 178 560 l 1,11,-1
 174 730 l 1,12,-1
 274 730 l 1,13,-1
 269 560 l 1,14,-1
 382 572 l 1,15,-1
 430 572 l 1,0,-1
EndSplineSet
EndChar

StartChar: daggerdbl
Encoding: 8225 8225 222
Width: 448
GlyphClass: 2
Flags: W
LayerCount: 2
Fore
SplineSet
18 158 m 1,0,-1
 18 236 l 1,1,-1
 66 236 l 1,2,-1
 186 224 l 1,3,-1
 194 365 l 1,4,-1
 186 506 l 1,5,-1
 66 494 l 1,6,-1
 18 494 l 1,7,-1
 18 572 l 1,8,-1
 66 572 l 1,9,-1
 183 560 l 1,10,-1
 174 730 l 1,11,-1
 274 730 l 1,12,-1
 264 560 l 1,13,-1
 382 572 l 1,14,-1
 430 572 l 1,15,-1
 430 494 l 1,16,-1
 382 494 l 1,17,-1
 261 505 l 1,18,-1
 254 365 l 1,19,-1
 261 224 l 1,20,-1
 382 236 l 1,21,-1
 430 236 l 1,22,-1
 430 158 l 1,23,-1
 382 158 l 1,24,-1
 264 169 l 1,25,-1
 274 0 l 1,26,-1
 174 0 l 1,27,-1
 183 169 l 1,28,-1
 66 158 l 1,29,-1
 18 158 l 1,0,-1
EndSplineSet
EndChar

StartChar: bullet
Encoding: 8226 8226 223
Width: 266
GlyphClass: 2
Flags: W
LayerCount: 2
Fore
SplineSet
176.5 245.5 m 128,-1,1
 159 238 159 238 127.5 238 c 128,-1,2
 96 238 96 238 77 253 c 128,-1,3
 58 268 58 268 54.5 285 c 128,-1,4
 51 302 51 302 51 329.5 c 128,-1,5
 51 357 51 357 54.5 374.5 c 128,-1,6
 58 392 58 392 77 407.5 c 128,-1,7
 96 423 96 423 127.5 423 c 128,-1,8
 159 423 159 423 176.5 415 c 128,-1,9
 194 407 194 407 202 392 c 1,10,11
 213 368 213 368 213 338.5 c 128,-1,12
 213 309 213 309 211 296 c 128,-1,13
 209 283 209 283 201.5 268 c 128,-1,0
 194 253 194 253 176.5 245.5 c 128,-1,1
EndSplineSet
EndChar

StartChar: ellipsis
Encoding: 8230 8230 224
Width: 692
GlyphClass: 2
Flags: W
LayerCount: 2
Fore
SplineSet
150 2 m 128,-1,1
 137 -8 137 -8 113.5 -8 c 128,-1,2
 90 -8 90 -8 77.5 2 c 128,-1,3
 65 12 65 12 62.5 23.5 c 128,-1,4
 60 35 60 35 60 50.5 c 128,-1,5
 60 66 60 66 61.5 75 c 128,-1,6
 63 84 63 84 68 94 c 1,7,8
 76 115 76 115 112 115 c 128,-1,9
 148 115 148 115 158 98.5 c 128,-1,10
 168 82 168 82 168 58.5 c 128,-1,11
 168 35 168 35 165.5 23.5 c 128,-1,0
 163 12 163 12 150 2 c 128,-1,1
382 2 m 128,-1,13
 369 -8 369 -8 345.5 -8 c 128,-1,14
 322 -8 322 -8 309.5 2 c 128,-1,15
 297 12 297 12 294.5 23.5 c 128,-1,16
 292 35 292 35 292 50.5 c 128,-1,17
 292 66 292 66 293.5 75 c 128,-1,18
 295 84 295 84 300 94 c 1,19,20
 308 115 308 115 344 115 c 128,-1,21
 380 115 380 115 390 98.5 c 128,-1,22
 400 82 400 82 400 58.5 c 128,-1,23
 400 35 400 35 397.5 23.5 c 128,-1,12
 395 12 395 12 382 2 c 128,-1,13
614 2 m 128,-1,25
 601 -8 601 -8 577.5 -8 c 128,-1,26
 554 -8 554 -8 541.5 2 c 128,-1,27
 529 12 529 12 526.5 23.5 c 128,-1,28
 524 35 524 35 524 50.5 c 128,-1,29
 524 66 524 66 525.5 75 c 128,-1,30
 527 84 527 84 532 94 c 1,31,32
 540 115 540 115 576 115 c 128,-1,33
 612 115 612 115 622 98.5 c 128,-1,34
 632 82 632 82 632 58.5 c 128,-1,35
 632 35 632 35 629.5 23.5 c 128,-1,24
 627 12 627 12 614 2 c 128,-1,25
EndSplineSet
EndChar

StartChar: perthousand
Encoding: 8240 8240 225
Width: 1372
GlyphClass: 2
Flags: W
LayerCount: 2
Fore
SplineSet
341 -66 m 1,0,-1
 555 735 l 1,1,-1
 616 735 l 1,2,-1
 401 -66 l 1,3,-1
 341 -66 l 1,0,-1
1228 8 m 0,4,5
 1198 -8 1198 -8 1146 -8 c 128,-1,6
 1094 -8 1094 -8 1059 21.5 c 128,-1,7
 1024 51 1024 51 1012.5 94.5 c 128,-1,8
 1001 138 1001 138 1001 202.5 c 128,-1,9
 1001 267 1001 267 1012.5 310.5 c 128,-1,10
 1024 354 1024 354 1059 383.5 c 128,-1,11
 1094 413 1094 413 1146 413 c 128,-1,12
 1198 413 1198 413 1228.5 397 c 128,-1,13
 1259 381 1259 381 1275 351 c 0,14,15
 1304 297 1304 297 1304 203 c 0,16,17
 1304 48 1304 48 1228 8 c 0,4,5
1153 52 m 128,-1,19
 1196 52 1196 52 1211.5 88.5 c 128,-1,20
 1227 125 1227 125 1227 202.5 c 128,-1,21
 1227 280 1227 280 1211.5 316.5 c 128,-1,22
 1196 353 1196 353 1153 353 c 128,-1,23
 1110 353 1110 353 1094 316.5 c 128,-1,24
 1078 280 1078 280 1078 202.5 c 128,-1,25
 1078 125 1078 125 1094 88.5 c 128,-1,18
 1110 52 1110 52 1153 52 c 128,-1,19
278 334 m 0,26,27
 247 318 247 318 195 318 c 128,-1,28
 143 318 143 318 108 347.5 c 128,-1,29
 73 377 73 377 61.5 420.5 c 128,-1,30
 50 464 50 464 50 528.5 c 128,-1,31
 50 593 50 593 61.5 636.5 c 128,-1,32
 73 680 73 680 108 709.5 c 128,-1,33
 143 739 143 739 195 739 c 128,-1,34
 247 739 247 739 277.5 723 c 128,-1,35
 308 707 308 707 324 677 c 0,36,37
 353 623 353 623 353 529 c 0,38,39
 353 374 353 374 278 334 c 0,26,27
202 378 m 128,-1,41
 245 378 245 378 260.5 414.5 c 128,-1,42
 276 451 276 451 276 528.5 c 128,-1,43
 276 606 276 606 260.5 642.5 c 128,-1,44
 245 679 245 679 202 679 c 128,-1,45
 159 679 159 679 143 642.5 c 128,-1,46
 127 606 127 606 127 528.5 c 128,-1,47
 127 451 127 451 143 414.5 c 128,-1,40
 159 378 159 378 202 378 c 128,-1,41
828 8 m 0,48,49
 798 -8 798 -8 746 -8 c 128,-1,50
 694 -8 694 -8 659 21.5 c 128,-1,51
 624 51 624 51 612.5 94.5 c 128,-1,52
 601 138 601 138 601 202.5 c 128,-1,53
 601 267 601 267 612.5 310.5 c 128,-1,54
 624 354 624 354 659 383.5 c 128,-1,55
 694 413 694 413 746 413 c 128,-1,56
 798 413 798 413 828.5 397 c 128,-1,57
 859 381 859 381 875 351 c 0,58,59
 904 297 904 297 904 203 c 0,60,61
 904 48 904 48 828 8 c 0,48,49
753 52 m 128,-1,63
 796 52 796 52 811.5 88.5 c 128,-1,64
 827 125 827 125 827 202.5 c 128,-1,65
 827 280 827 280 811.5 316.5 c 128,-1,66
 796 353 796 353 753 353 c 128,-1,67
 710 353 710 353 694 316.5 c 128,-1,68
 678 280 678 280 678 202.5 c 128,-1,69
 678 125 678 125 694 88.5 c 128,-1,62
 710 52 710 52 753 52 c 128,-1,63
EndSplineSet
EndChar

StartChar: guilsinglleft
Encoding: 8249 8249 226
Width: 305
GlyphClass: 2
Flags: W
LayerCount: 2
Fore
SplineSet
251 470 m 1,0,-1
 129 315 l 1,1,-1
 251 160 l 1,2,-1
 199 109 l 1,3,-1
 28 297 l 1,4,-1
 28 333 l 1,5,-1
 199 521 l 1,6,-1
 251 470 l 1,0,-1
EndSplineSet
EndChar

StartChar: guilsinglright
Encoding: 8250 8250 227
Width: 305
GlyphClass: 2
Flags: W
LayerCount: 2
Fore
SplineSet
54 160 m 1,0,-1
 176 315 l 1,1,-1
 54 470 l 1,2,-1
 106 521 l 1,3,-1
 277 333 l 1,4,-1
 277 297 l 1,5,-1
 106 109 l 1,6,-1
 54 160 l 1,0,-1
EndSplineSet
EndChar

StartChar: fraction
Encoding: 8260 8260 228
Width: 271
GlyphClass: 2
Flags: W
LayerCount: 2
Fore
SplineSet
-2 -66 m 1,0,-1
 212 735 l 1,1,-1
 273 735 l 1,2,-1
 58 -66 l 1,3,-1
 -2 -66 l 1,0,-1
EndSplineSet
EndChar

StartChar: Euro
Encoding: 8364 8364 229
Width: 630
GlyphClass: 2
Flags: W
LayerCount: 2
Fore
SplineSet
47 407 m 1,0,-1
 47 468 l 1,1,-1
 118 468 l 1,2,3
 130 598 130 598 188 671 c 128,-1,4
 246 744 246 744 371 744 c 0,5,6
 476 744 476 744 533.5 697.5 c 128,-1,7
 591 651 591 651 593 564 c 1,8,-1
 517 560 l 1,9,10
 517 614 517 614 475.5 643.5 c 128,-1,11
 434 673 434 673 371 673 c 0,12,13
 289 673 289 673 251 620.5 c 128,-1,14
 213 568 213 568 204 468 c 1,15,-1
 437 468 l 1,16,-1
 437 407 l 1,17,-1
 200 407 l 1,18,-1
 200 323 l 1,19,-1
 437 323 l 1,20,-1
 437 262 l 1,21,-1
 204 262 l 1,22,23
 213 161 213 161 251 109 c 128,-1,24
 289 57 289 57 371 57 c 0,25,26
 435 57 435 57 476.5 87 c 128,-1,27
 518 117 518 117 518 172 c 1,28,-1
 593 168 l 1,29,30
 591 80 591 80 534 33 c 128,-1,31
 477 -14 477 -14 371 -14 c 0,32,33
 246 -14 246 -14 188 58.5 c 128,-1,34
 130 131 130 131 118 262 c 1,35,-1
 47 262 l 1,36,-1
 47 323 l 1,37,-1
 115 323 l 1,38,39
 114 337 114 337 114 365 c 128,-1,40
 114 393 114 393 115 407 c 1,41,-1
 47 407 l 1,0,-1
EndSplineSet
EndChar

StartChar: trademark
Encoding: 8482 8482 230
Width: 968
GlyphClass: 2
Flags: W
LayerCount: 2
Fore
SplineSet
858 730 m 1,0,-1
 858 288 l 1,1,-1
 789 288 l 1,2,-1
 789 631 l 1,3,-1
 677 334 l 1,4,-1
 613 334 l 1,5,-1
 510 629 l 1,6,-1
 510 288 l 1,7,-1
 442 288 l 1,8,-1
 442 730 l 1,9,-1
 540 730 l 1,10,-1
 646 417 l 1,11,-1
 761 730 l 1,12,-1
 858 730 l 1,0,-1
70 671 m 1,13,-1
 70 730 l 1,14,-1
 362 730 l 1,15,-1
 362 671 l 1,16,-1
 250 671 l 1,17,-1
 250 288 l 1,18,-1
 182 288 l 1,19,-1
 182 671 l 1,20,-1
 70 671 l 1,13,-1
EndSplineSet
EndChar

StartChar: Omega
Encoding: 8486 8486 231
Width: 809
GlyphClass: 2
Flags: W
LayerCount: 2
Fore
SplineSet
594.5 609.5 m 128,-1,1
 540 673 540 673 404.5 673 c 128,-1,2
 269 673 269 673 214.5 609.5 c 128,-1,3
 160 546 160 546 160 421 c 0,4,5
 160 331 160 331 193 276.5 c 128,-1,6
 226 222 226 222 306 203 c 1,7,-1
 306 0 l 1,8,-1
 100 0 l 1,9,-1
 100 60 l 1,10,-1
 231 60 l 1,11,-1
 231 159 l 1,12,13
 148 193 148 193 110 259.5 c 128,-1,14
 72 326 72 326 72 427 c 0,15,16
 72 582 72 582 150.5 663.5 c 128,-1,17
 229 745 229 745 404.5 745 c 128,-1,18
 580 745 580 745 658.5 663.5 c 128,-1,19
 737 582 737 582 737 427 c 0,20,21
 737 224 737 224 577 158 c 1,22,-1
 577 60 l 1,23,-1
 709 60 l 1,24,-1
 709 0 l 1,25,-1
 503 0 l 1,26,-1
 503 203 l 1,27,28
 583 222 583 222 616 276.5 c 128,-1,29
 649 331 649 331 649 421 c 0,30,0
 649 546 649 546 594.5 609.5 c 128,-1,1
EndSplineSet
EndChar

StartChar: partialdiff
Encoding: 8706 8706 232
Width: 611
GlyphClass: 2
Flags: W
LayerCount: 2
Fore
SplineSet
557 373 m 0,0,1
 557 173 557 173 487 79.5 c 128,-1,2
 417 -14 417 -14 258 -14 c 0,3,4
 145 -14 145 -14 99.5 35.5 c 128,-1,5
 54 85 54 85 54 168 c 0,6,7
 54 334 54 334 123 420 c 128,-1,8
 192 506 192 506 348 506 c 0,9,10
 435 506 435 506 475 451 c 1,11,12
 465 604 465 604 370 714 c 1,13,-1
 421 764 l 1,14,15
 557 618 557 618 557 373 c 0,0,1
270 55 m 0,16,17
 374 55 374 55 419.5 120.5 c 128,-1,18
 465 186 465 186 465 311.5 c 128,-1,19
 465 437 465 437 337 437 c 0,20,21
 232 437 232 437 186.5 371.5 c 128,-1,22
 141 306 141 306 141 180.5 c 128,-1,23
 141 55 141 55 270 55 c 0,16,17
EndSplineSet
EndChar

StartChar: Delta
Encoding: 8710 8710 233
Width: 618
GlyphClass: 2
Flags: W
LayerCount: 2
Fore
SplineSet
262 730 m 1,0,-1
 356 730 l 1,1,-1
 624 0 l 1,2,-1
 -6 0 l 1,3,-1
 262 730 l 1,0,-1
309 633 m 1,4,-1
 102 60 l 1,5,-1
 515 60 l 1,6,-1
 309 633 l 1,4,-1
EndSplineSet
EndChar

StartChar: product
Encoding: 8719 8719 234
Width: 747
GlyphClass: 2
Flags: W
LayerCount: 2
Fore
SplineSet
72 670 m 1,0,-1
 72 730 l 1,1,-1
 675 730 l 1,2,-1
 675 670 l 1,3,-1
 610 670 l 1,4,-1
 610 -190 l 1,5,-1
 524 -190 l 1,6,-1
 524 670 l 1,7,-1
 223 670 l 1,8,-1
 223 -190 l 1,9,-1
 137 -190 l 1,10,-1
 137 670 l 1,11,-1
 72 670 l 1,0,-1
EndSplineSet
EndChar

StartChar: summation
Encoding: 8721 8721 235
Width: 601
GlyphClass: 2
Flags: W
LayerCount: 2
Fore
SplineSet
51 730 m 1,0,-1
 561 730 l 1,1,-1
 561 670 l 1,2,-1
 143 670 l 1,3,-1
 400 271 l 1,4,-1
 146 -129 l 1,5,-1
 561 -129 l 1,6,-1
 561 -190 l 1,7,-1
 51 -190 l 1,8,-1
 51 -129 l 1,9,-1
 308 271 l 1,10,-1
 51 670 l 1,11,-1
 51 730 l 1,0,-1
EndSplineSet
EndChar

StartChar: minus
Encoding: 8722 8722 236
Width: 580
GlyphClass: 2
Flags: W
LayerCount: 2
Fore
SplineSet
92 284 m 1,0,-1
 92 352 l 1,1,-1
 488 352 l 1,2,-1
 488 284 l 1,3,-1
 92 284 l 1,0,-1
EndSplineSet
EndChar

StartChar: radical
Encoding: 8730 8730 237
Width: 553
GlyphClass: 2
Flags: W
LayerCount: 2
Fore
SplineSet
605 730 m 1,0,-1
 605 671 l 1,1,-1
 468 671 l 1,2,-1
 260 0 l 1,3,-1
 166 0 l 1,4,-1
 -2 437 l 1,5,-1
 85 437 l 1,6,-1
 209 103 l 1,7,-1
 400 730 l 1,8,-1
 605 730 l 1,0,-1
EndSplineSet
EndChar

StartChar: infinity
Encoding: 8734 8734 238
Width: 629
GlyphClass: 2
Flags: W
LayerCount: 2
Fore
SplineSet
75.5 454 m 128,-1,1
 115 492 115 492 196.5 492 c 128,-1,2
 278 492 278 492 312 426 c 1,3,4
 344 492 344 492 438 492 c 0,5,6
 514 492 514 492 553.5 454 c 128,-1,7
 593 416 593 416 593 318.5 c 128,-1,8
 593 221 593 221 553.5 183 c 128,-1,9
 514 145 514 145 432 145 c 128,-1,10
 350 145 350 145 317 210 c 1,11,12
 284 145 284 145 191 145 c 0,13,14
 115 145 115 145 75.5 183 c 128,-1,15
 36 221 36 221 36 318.5 c 128,-1,0
 36 416 36 416 75.5 454 c 128,-1,1
433 216 m 0,16,17
 479 216 479 216 503 238.5 c 128,-1,18
 527 261 527 261 527 318.5 c 128,-1,19
 527 376 527 376 503 398.5 c 128,-1,20
 479 421 479 421 436 421 c 128,-1,21
 393 421 393 421 374 402 c 128,-1,22
 355 383 355 383 347 338 c 2,23,-1
 340 293 l 1,24,25
 359 216 359 216 433 216 c 0,16,17
196 421 m 0,26,27
 150 421 150 421 126 398.5 c 128,-1,28
 102 376 102 376 102 318.5 c 128,-1,29
 102 261 102 261 126 238.5 c 128,-1,30
 150 216 150 216 192.5 216 c 128,-1,31
 235 216 235 216 254 234 c 128,-1,32
 273 252 273 252 281 294 c 1,33,-1
 289 343 l 1,34,35
 270 421 270 421 196 421 c 0,26,27
EndSplineSet
EndChar

StartChar: integral
Encoding: 8747 8747 239
Width: 488
GlyphClass: 2
Flags: W
LayerCount: 2
Fore
SplineSet
199 -37 m 2,0,-1
 199 519 l 2,1,2
 199 634 199 634 246 689 c 128,-1,3
 293 744 293 744 391 744 c 0,4,5
 464 744 464 744 516 711 c 1,6,-1
 488 649 l 1,7,8
 448 673 448 673 393 673 c 0,9,10
 287 673 287 673 287 519 c 2,11,-1
 287 -37 l 2,12,13
 287 -152 287 -152 240.5 -206.5 c 128,-1,14
 194 -261 194 -261 96 -261 c 0,15,16
 21 -261 21 -261 -29 -228 c 1,17,-1
 -1 -166 l 1,18,19
 37 -190 37 -190 93 -190 c 0,20,21
 199 -190 199 -190 199 -37 c 2,0,-1
EndSplineSet
EndChar

StartChar: approxequal
Encoding: 8776 8776 240
Width: 580
GlyphClass: 2
Flags: W
LayerCount: 2
Fore
SplineSet
92 452 m 1,0,1
 126 428 126 428 169.5 428 c 128,-1,2
 213 428 213 428 289.5 449.5 c 128,-1,3
 366 471 366 471 408.5 471 c 128,-1,4
 451 471 451 471 488 452 c 1,5,-1
 488 384 l 1,6,7
 450 405 450 405 408 405 c 128,-1,8
 366 405 366 405 289.5 383.5 c 128,-1,9
 213 362 213 362 171 362 c 128,-1,10
 129 362 129 362 92 384 c 1,11,-1
 92 452 l 1,0,1
92 252 m 1,12,13
 126 228 126 228 169.5 228 c 128,-1,14
 213 228 213 228 289.5 249.5 c 128,-1,15
 366 271 366 271 408.5 271 c 128,-1,16
 451 271 451 271 488 252 c 1,17,-1
 488 184 l 1,18,19
 450 205 450 205 408 205 c 128,-1,20
 366 205 366 205 289.5 183.5 c 128,-1,21
 213 162 213 162 171 162 c 128,-1,22
 129 162 129 162 92 184 c 1,23,-1
 92 252 l 1,12,13
EndSplineSet
EndChar

StartChar: notequal
Encoding: 8800 8800 241
Width: 580
GlyphClass: 2
Flags: W
LayerCount: 2
Fore
SplineSet
84 386 m 1,0,-1
 84 454 l 1,1,-1
 292 454 l 1,2,-1
 367 735 l 1,3,-1
 428 735 l 1,4,-1
 352 454 l 1,5,-1
 480 454 l 1,6,-1
 480 386 l 1,7,-1
 334 386 l 1,8,-1
 298 250 l 1,9,-1
 480 250 l 1,10,-1
 480 182 l 1,11,-1
 279 182 l 1,12,-1
 213 -66 l 1,13,-1
 153 -66 l 1,14,-1
 219 182 l 1,15,-1
 84 182 l 1,16,-1
 84 250 l 1,17,-1
 237 250 l 1,18,-1
 274 386 l 1,19,-1
 84 386 l 1,0,-1
EndSplineSet
EndChar

StartChar: lessequal
Encoding: 8804 8804 242
Width: 580
GlyphClass: 2
Flags: W
LayerCount: 2
Fore
SplineSet
89 344 m 1,0,-1
 89 430 l 1,1,-1
 491 599 l 1,2,-1
 491 524 l 1,3,-1
 155 387 l 1,4,-1
 491 250 l 1,5,-1
 491 175 l 1,6,-1
 89 344 l 1,0,-1
92 0 m 1,7,-1
 92 68 l 1,8,-1
 488 68 l 1,9,-1
 488 0 l 1,10,-1
 92 0 l 1,7,-1
EndSplineSet
EndChar

StartChar: greaterequal
Encoding: 8805 8805 243
Width: 580
GlyphClass: 2
Flags: W
LayerCount: 2
Fore
SplineSet
491 430 m 1,0,-1
 491 344 l 1,1,-1
 89 175 l 1,2,-1
 89 250 l 1,3,-1
 425 387 l 1,4,-1
 89 524 l 1,5,-1
 89 599 l 1,6,-1
 491 430 l 1,0,-1
92 0 m 1,7,-1
 92 68 l 1,8,-1
 488 68 l 1,9,-1
 488 0 l 1,10,-1
 92 0 l 1,7,-1
EndSplineSet
EndChar

StartChar: lozenge
Encoding: 9674 9674 244
Width: 568
GlyphClass: 2
Flags: W
LayerCount: 2
Fore
SplineSet
237 770 m 1,0,-1
 331 770 l 1,1,-1
 526 335 l 1,2,-1
 331 -100 l 1,3,-1
 237 -100 l 1,4,-1
 42 335 l 1,5,-1
 237 770 l 1,0,-1
284 -20 m 1,6,-1
 439 335 l 1,7,-1
 284 690 l 1,8,-1
 129 335 l 1,9,-1
 284 -20 l 1,6,-1
EndSplineSet
EndChar

StartChar: apple
Encoding: 63743 63743 245
Width: 919
GlyphClass: 2
Flags: W
LayerCount: 2
Fore
SplineSet
587 -89 m 2,0,-1
 564 -88 l 2,1,2
 550 -88 550 -88 532.5 -100 c 128,-1,3
 515 -112 515 -112 506 -112 c 1,4,-1
 460 -102 l 1,5,6
 452 -102 452 -102 436.5 -108 c 128,-1,7
 421 -114 421 -114 412.5 -114 c 128,-1,8
 404 -114 404 -114 388 -101.5 c 128,-1,9
 372 -89 372 -89 359 -89 c 1,10,-1
 335 -91 l 1,11,12
 320 -91 320 -91 302 -74 c 1,13,-1
 284 -55 l 1,14,15
 272 -49 272 -49 259 -48 c 128,-1,16
 246 -47 246 -47 237 -41.5 c 128,-1,17
 228 -36 228 -36 221 -18.5 c 128,-1,18
 214 -1 214 -1 208.5 3.5 c 128,-1,19
 203 8 203 8 189 13.5 c 128,-1,20
 175 19 175 19 169 28 c 0,21,22
 164 37 164 37 162 51.5 c 128,-1,23
 160 66 160 66 156 72.5 c 128,-1,24
 152 79 152 79 142 86 c 0,25,26
 120 104 120 104 120 124 c 1,27,-1
 123 149 l 1,28,29
 123 158 123 158 110.5 175.5 c 128,-1,30
 98 193 98 193 98 202 c 128,-1,31
 98 211 98 211 104 225.5 c 128,-1,32
 110 240 110 240 110 248.5 c 128,-1,33
 110 257 110 257 104 270 c 128,-1,34
 98 283 98 283 98 292 c 128,-1,35
 98 301 98 301 110.5 321.5 c 128,-1,36
 123 342 123 342 123 351 c 2,37,-1
 122 376 l 2,38,39
 122 391 122 391 138.5 405.5 c 128,-1,40
 155 420 155 420 157.5 425 c 128,-1,41
 160 430 160 430 162 446 c 128,-1,42
 164 462 164 462 168 468 c 128,-1,43
 172 474 172 474 187.5 480 c 128,-1,44
 203 486 203 486 208 491 c 128,-1,45
 213 496 213 496 220 511.5 c 128,-1,46
 227 527 227 527 233.5 532.5 c 128,-1,47
 240 538 240 538 259 542 c 128,-1,48
 278 546 278 546 283.5 549 c 128,-1,49
 289 552 289 552 304 569 c 128,-1,50
 319 586 319 586 333 587 c 1,51,-1
 359 585 l 2,52,53
 372 585 372 585 387.5 596.5 c 128,-1,54
 403 608 403 608 414 608 c 1,55,-1
 458 596 l 1,56,-1
 503 608 l 1,57,58
 516 608 516 608 532 595.5 c 128,-1,59
 548 583 548 583 560 583 c 1,60,-1
 588 586 l 1,61,62
 604 586 604 586 617 569.5 c 128,-1,63
 630 553 630 553 636.5 549.5 c 128,-1,64
 643 546 643 546 658 543 c 128,-1,65
 673 540 673 540 680.5 535 c 128,-1,66
 688 530 688 530 693 516 c 128,-1,67
 698 502 698 502 703.5 497 c 128,-1,68
 709 492 709 492 729 481.5 c 128,-1,69
 749 471 749 471 753.5 463 c 128,-1,70
 758 455 758 455 758.5 439 c 128,-1,71
 759 423 759 423 761.5 418.5 c 128,-1,72
 764 414 764 414 781 399.5 c 128,-1,73
 798 385 798 385 798 369 c 2,74,-1
 797 344 l 2,75,76
 797 331 797 331 809 312.5 c 128,-1,77
 821 294 821 294 821 285 c 128,-1,78
 821 276 821 276 815.5 263 c 128,-1,79
 810 250 810 250 810 243 c 128,-1,80
 810 236 810 236 815.5 221.5 c 128,-1,81
 821 207 821 207 820.5 199 c 128,-1,82
 820 191 820 191 808 178.5 c 128,-1,83
 796 166 796 166 796 152 c 2,84,-1
 798 120 l 2,85,86
 798 104 798 104 782 91 c 128,-1,87
 766 78 766 78 763.5 73 c 128,-1,88
 761 68 761 68 756.5 49 c 128,-1,89
 752 30 752 30 746.5 23.5 c 128,-1,90
 741 17 741 17 728.5 11.5 c 128,-1,91
 716 6 716 6 711 1 c 128,-1,92
 706 -4 706 -4 697 -20.5 c 128,-1,93
 688 -37 688 -37 681 -42 c 128,-1,94
 674 -47 674 -47 656.5 -51.5 c 128,-1,95
 639 -56 639 -56 634 -59 c 128,-1,96
 629 -62 629 -62 615.5 -75.5 c 128,-1,97
 602 -89 602 -89 587 -89 c 2,0,-1
460 -6 m 1,98,-1
 493 -13 l 1,99,100
 499 -13 499 -13 510 -6 c 0,101,102
 525 4 525 4 537 4 c 2,103,-1
 552 3 l 2,104,105
 564 3 564 3 573 13 c 128,-1,106
 582 23 582 23 585.5 25 c 128,-1,107
 589 27 589 27 602 30.5 c 128,-1,108
 615 34 615 34 620.5 38 c 128,-1,109
 626 42 626 42 632.5 53.5 c 128,-1,110
 639 65 639 65 642.5 68.5 c 128,-1,111
 646 72 646 72 655 76 c 128,-1,112
 664 80 664 80 668 84.5 c 128,-1,113
 672 89 672 89 675 103 c 128,-1,114
 678 117 678 117 680.5 121 c 128,-1,115
 683 125 683 125 694 134 c 128,-1,116
 705 143 705 143 705 157 c 2,117,-1
 704 177 l 2,118,119
 704 188 704 188 712.5 197.5 c 128,-1,120
 721 207 721 207 722 213 c 1,121,-1
 714 245 l 1,122,-1
 722 273 l 1,123,124
 722 281 722 281 713 295 c 128,-1,125
 704 309 704 309 704 318 c 2,126,-1
 705 335 l 2,127,128
 705 347 705 347 693 357 c 128,-1,129
 681 367 681 367 679 371 c 128,-1,130
 677 375 677 375 676.5 386.5 c 128,-1,131
 676 398 676 398 673 403.5 c 128,-1,132
 670 409 670 409 655.5 416.5 c 128,-1,133
 641 424 641 424 637 428 c 128,-1,134
 633 432 633 432 629 442 c 128,-1,135
 625 452 625 452 620 456 c 128,-1,136
 615 460 615 460 604 462 c 128,-1,137
 593 464 593 464 588 466.5 c 128,-1,138
 583 469 583 469 574 481 c 128,-1,139
 565 493 565 493 553 493 c 1,140,-1
 533 491 l 2,141,142
 524 491 524 491 513 500 c 128,-1,143
 502 509 502 509 492 509 c 1,144,-1
 459 500 l 1,145,-1
 427 509 l 1,146,147
 419 509 419 509 407 500.5 c 128,-1,148
 395 492 395 492 385 492 c 2,149,-1
 368 493 l 2,150,151
 357 493 357 493 346.5 480.5 c 128,-1,152
 336 468 336 468 331.5 465.5 c 128,-1,153
 327 463 327 463 314 460.5 c 128,-1,154
 301 458 301 458 296 454 c 128,-1,155
 291 450 291 450 286 439 c 128,-1,156
 281 428 281 428 277 424 c 128,-1,157
 273 420 273 420 262.5 416 c 128,-1,158
 252 412 252 412 248 407 c 0,159,160
 246 403 246 403 244.5 391.5 c 128,-1,161
 243 380 243 380 240.5 376 c 128,-1,162
 238 372 238 372 226 361.5 c 128,-1,163
 214 351 214 351 214 340 c 2,164,-1
 215 324 l 2,165,166
 215 316 215 316 206.5 301 c 128,-1,167
 198 286 198 286 198 278 c 1,168,-1
 206 248 l 1,169,-1
 198 215 l 1,170,171
 198 207 198 207 206.5 194.5 c 128,-1,172
 215 182 215 182 215 174 c 2,173,-1
 213 158 l 1,174,175
 213 147 213 147 225.5 135.5 c 128,-1,176
 238 124 238 124 240 120 c 128,-1,177
 242 116 242 116 243.5 105.5 c 128,-1,178
 245 95 245 95 249 88.5 c 128,-1,179
 253 82 253 82 263 78 c 128,-1,180
 273 74 273 74 277 70.5 c 128,-1,181
 281 67 281 67 286.5 54 c 128,-1,182
 292 41 292 41 298 37 c 128,-1,183
 304 33 304 33 313.5 33 c 128,-1,184
 323 33 323 33 329 30 c 128,-1,185
 335 27 335 27 346.5 14.5 c 128,-1,186
 358 2 358 2 369 2 c 2,187,-1
 384 3 l 2,188,189
 394 3 394 3 406 -5.5 c 128,-1,190
 418 -14 418 -14 424 -15 c 1,191,-1
 460 -6 l 1,98,-1
460 417 m 128,-1,193
 530 417 530 417 580 367.5 c 128,-1,194
 630 318 630 318 630 247 c 128,-1,195
 630 176 630 176 580 126.5 c 128,-1,196
 530 77 530 77 460 77 c 128,-1,197
 390 77 390 77 340 126.5 c 128,-1,198
 290 176 290 176 290 247 c 128,-1,199
 290 318 290 318 340 367.5 c 128,-1,192
 390 417 390 417 460 417 c 128,-1,193
503 292 m 1,200,-1
 555 292 l 1,201,-1
 555 360 l 1,202,-1
 364 360 l 1,203,-1
 364 292 l 1,204,-1
 418 292 l 1,205,-1
 418 117 l 1,206,-1
 503 117 l 1,207,-1
 503 292 l 1,200,-1
EndSplineSet
EndChar

StartChar: fi
Encoding: 64257 64257 246
Width: 640
GlyphClass: 3
Flags: W
LayerCount: 2
Fore
SplineSet
286 707 m 0,0,1
 208 707 208 707 208 616 c 2,2,-1
 208 572 l 1,3,-1
 340 572 l 1,4,-1
 340 513 l 1,5,-1
 208 513 l 1,6,-1
 208 0 l 1,7,-1
 122 0 l 1,8,-1
 122 513 l 1,9,-1
 56 513 l 1,10,-1
 56 572 l 1,11,-1
 122 572 l 1,12,-1
 122 616 l 2,13,14
 122 775 122 775 280 775 c 0,15,16
 339 775 339 775 386 758 c 1,17,-1
 364 693 l 1,18,19
 330 707 330 707 286 707 c 0,0,1
448 572 m 1,20,-1
 534 572 l 1,21,-1
 534 0 l 1,22,-1
 448 0 l 1,23,-1
 448 572 l 1,20,-1
491 668 m 0,24,25
 440 668 440 668 440 723.5 c 128,-1,26
 440 779 440 779 491 779 c 0,27,28
 544 779 544 779 544 723.5 c 128,-1,29
 544 668 544 668 491 668 c 0,24,25
EndSplineSet
Ligature2: "'liga' Standard Ligatures lookup 0 subtable" f i
EndChar

StartChar: fl
Encoding: 64258 64258 247
Width: 640
GlyphClass: 3
Flags: W
LayerCount: 2
Fore
SplineSet
286 707 m 0,0,1
 208 707 208 707 208 616 c 2,2,-1
 208 572 l 1,3,-1
 340 572 l 1,4,-1
 340 513 l 1,5,-1
 208 513 l 1,6,-1
 208 0 l 1,7,-1
 122 0 l 1,8,-1
 122 513 l 1,9,-1
 56 513 l 1,10,-1
 56 572 l 1,11,-1
 122 572 l 1,12,-1
 122 616 l 2,13,14
 122 775 122 775 280 775 c 0,15,16
 339 775 339 775 386 758 c 1,17,-1
 364 693 l 1,18,19
 330 707 330 707 286 707 c 0,0,1
534 0 m 1,20,-1
 448 0 l 1,21,-1
 448 758 l 1,22,-1
 534 770 l 1,23,-1
 534 0 l 1,20,-1
EndSplineSet
Ligature2: "'liga' Standard Ligatures lookup 0 subtable" f l
EndChar
